<?xml version="1.0" encoding="UTF-8" standalone="no"?>
<!-- Created with Inkscape (http://www.inkscape.org/) -->

<svg
   xmlns:dc="http://purl.org/dc/elements/1.1/"
   xmlns:cc="http://creativecommons.org/ns#"
   xmlns:rdf="http://www.w3.org/1999/02/22-rdf-syntax-ns#"
   xmlns:svg="http://www.w3.org/2000/svg"
   xmlns="http://www.w3.org/2000/svg"
   xmlns:sodipodi="http://sodipodi.sourceforge.net/DTD/sodipodi-0.dtd"
   xmlns:inkscape="http://www.inkscape.org/namespaces/inkscape"
   width="210mm"
   height="297mm"
   viewBox="0 0 744.09448819 1052.3622047"
   id="svg3365"
   version="1.1"
   inkscape:version="0.91 r13725"
   sodipodi:docname="projecting-node.svg">
  <defs
     id="defs3367" />
  <sodipodi:namedview
     id="base"
     pagecolor="#ffffff"
     bordercolor="#666666"
     borderopacity="1.0"
     inkscape:pageopacity="0.0"
     inkscape:pageshadow="2"
     inkscape:zoom="2.1815653"
     inkscape:cx="329.27711"
     inkscape:cy="874.49779"
     inkscape:document-units="px"
     inkscape:current-layer="layer1"
     showgrid="false"
     inkscape:window-width="1839"
     inkscape:window-height="1056"
     inkscape:window-x="81"
     inkscape:window-y="24"
     inkscape:window-maximized="1"
     inkscape:snap-grids="false"
     inkscape:snap-text-baseline="false" />
  <metadata
     id="metadata3370">
    <rdf:RDF>
      <cc:Work
         rdf:about="">
        <dc:format>image/svg+xml</dc:format>
        <dc:type
           rdf:resource="http://purl.org/dc/dcmitype/StillImage" />
        <dc:title />
      </cc:Work>
    </rdf:RDF>
  </metadata>
  <g
     inkscape:label="Layer 1"
     inkscape:groupmode="layer"
     id="layer1">
    <path
       id="path5"
       d="m 249.92418,148.73441 -0.0928,-0.0733 -0.0928,-0.0781 -0.0977,-0.0684 -0.0928,-0.0781 -0.0928,-0.0684 -0.0977,-0.0733 -0.3711,-0.29297 -0.0977,-0.0684 -0.0879,-0.0732 -0.0977,-0.0732 -0.0928,-0.0732 -0.0928,-0.0684 -0.18554,-0.14649 -0.0928,-0.0684 -0.0928,-0.0733 -0.0977,-0.0684 -0.0928,-0.0732 -0.0879,-0.0684 -0.0977,-0.0732 -0.18554,-0.13672 -0.0928,-0.0732 -0.18554,-0.13672 -0.0928,-0.0732 -0.0928,-0.0684 -0.0879,-0.0684 -0.55664,-0.41016 -0.0928,-0.0732 -0.0928,-0.0684 -0.0879,-0.0635 -0.27832,-0.20507 -0.0879,-0.0684 -0.18555,-0.13672 -0.0928,-0.0635 -0.0879,-0.0684 -0.0928,-0.0684 -0.0928,-0.0635 -0.0928,-0.0684 -0.0879,-0.0684 -0.0928,-0.0635 -0.0928,-0.0684 -0.0879,-0.0635 -0.0928,-0.0684 -0.0928,-0.0635 -0.0879,-0.0684 -0.0928,-0.0635 -0.0879,-0.0684 -0.18555,-0.12695 -0.0879,-0.0684 -0.0928,-0.0635 -0.0879,-0.0635 -0.0928,-0.0635 -0.0879,-0.0684 -0.0928,-0.0635 -0.0879,-0.0635 -0.0928,-0.0635 -0.0879,-0.0635 -0.0928,-0.0635 -0.0879,-0.0635 -0.0928,-0.0635 -0.17578,-0.12696 -0.0928,-0.0635 -0.17578,-0.12696 -0.0928,-0.0635 -0.0879,-0.0586 -0.0879,-0.0635 -0.0928,-0.0635 -0.0879,-0.0635 -0.0879,-0.0586 -0.0928,-0.0635 -0.0879,-0.0635 -0.0879,-0.0586 -0.0879,-0.0635 -0.0928,-0.0586 -0.0879,-0.0635 -0.0879,-0.0586 -0.0879,-0.0635 -0.0879,-0.0586 -0.0928,-0.0635 -0.0879,-0.0586 -0.0879,-0.0635 -0.17579,-0.11719 -0.0879,-0.0635 -0.0879,-0.0586 -0.0928,-0.0586 -0.0879,-0.0586 -0.0879,-0.0635 -0.9668,-0.64453 -0.0879,-0.0537 -0.083,-0.0586 -0.35156,-0.23438 -0.0879,-0.0537 -0.0879,-0.0586 -0.0879,-0.0537 -0.083,-0.0586 -0.0879,-0.0586 -0.0879,-0.0537 -0.0879,-0.0586 -0.083,-0.0537 -0.0879,-0.0586 -0.0879,-0.0537 -0.0879,-0.0586 -0.0879,-0.0537 -0.083,-0.0586 -0.17578,-0.10742 -0.083,-0.0537 -0.0879,-0.0586 -0.0879,-0.0537 -0.083,-0.0537 -0.0879,-0.0537 -0.083,-0.0586 -0.17578,-0.10742 -0.083,-0.0537 -0.0879,-0.0537 -0.083,-0.0537 -0.0879,-0.0537 -0.083,-0.0537 -0.0879,-0.0537 -0.083,-0.0537 -0.0879,-0.0537 -0.083,-0.0537 -0.0879,-0.0537 -0.083,-0.0488 -0.0879,-0.0537 -0.083,-0.0537 -0.0879,-0.0537 -0.083,-0.0537 -0.083,-0.0488 -0.0879,-0.0537 -0.083,-0.0537 -0.0879,-0.0488 -0.083,-0.0537 -0.083,-0.0488 -0.0879,-0.0537 -0.083,-0.0488 -0.083,-0.0537 -0.0879,-0.0488 -0.083,-0.0537 -0.16602,-0.0977 -0.083,-0.0537 -0.0879,-0.0488 -0.083,-0.0488 -0.083,-0.0537 -0.16602,-0.0976 -0.0879,-0.0488 -0.083,-0.0537 -0.41504,-0.24414 -0.0879,-0.0488 -0.58106,-0.3418 -0.083,-0.0439 -0.33203,-0.19531 -0.083,-0.0439 -0.0781,-0.0488 -0.083,-0.0488 -0.083,-0.0439 -0.083,-0.0488 -0.083,-0.0439 -0.083,-0.0488 -0.083,-0.044 -0.083,-0.0488 -0.0781,-0.0439 -0.083,-0.0488 -0.083,-0.0439 -0.083,-0.0488 -0.083,-0.0439 -0.0781,-0.044 -0.083,-0.0488 -0.16601,-0.0879 -0.0781,-0.0488 -0.16601,-0.0879 -0.0781,-0.0439 -0.24902,-0.13183 -0.0781,-0.0488 -0.083,-0.044 -0.0781,-0.0439 -0.083,-0.0391 -0.0781,-0.0439 -0.083,-0.0439 -0.0781,-0.0439 -0.16602,-0.0879 -0.0781,-0.044 -0.083,-0.0439 -0.0781,-0.0439 -0.083,-0.0391 -0.0781,-0.0439 -0.083,-0.0439 -0.0781,-0.0439 -0.083,-0.0391 -0.15625,-0.0879 -0.083,-0.0391 -0.0781,-0.0439 -0.083,-0.0391 -0.0781,-0.0439 -0.0781,-0.0391 -0.083,-0.0439 -0.0781,-0.0391 -0.0781,-0.0439 -0.083,-0.0391 -0.0781,-0.0439 -0.15625,-0.0781 -0.083,-0.0391 -0.0781,-0.0439 -0.15625,-0.0781 -0.083,-0.0391 -0.0781,-0.0439 -0.23438,-0.11719 -0.083,-0.0391 -0.54687,-0.27344 -0.083,-0.0391 -0.0732,-0.0391 -0.083,-0.0391 -0.0781,-0.0342 -0.23438,-0.11719 -0.0732,-0.0391 -0.083,-0.0342 -0.0732,-0.0391 -0.0781,-0.0391 -0.0781,-0.0342 -0.0781,-0.0391 -0.0781,-0.0342 -0.15625,-0.0781 -0.15625,-0.0684 -0.0781,-0.0391 -0.0732,-0.0391 -0.15625,-0.0684 -0.0781,-0.0391 -0.0781,-0.0342 -0.0732,-0.0342 -0.0781,-0.0391 -0.15625,-0.0684 -0.0732,-0.0342 -0.0781,-0.0342 -0.0781,-0.0391 -0.0732,-0.0342 -0.15625,-0.0684 -0.0732,-0.0342 -0.15625,-0.0684 -0.0732,-0.0342 -0.15625,-0.0684 -0.0732,-0.0342 -0.0781,-0.0342 -0.0732,-0.0342 -0.0781,-0.0342 -0.0732,-0.0342 -0.0781,-0.0342 -0.0732,-0.0342 -0.0781,-0.0293 -0.0732,-0.0342 -0.0781,-0.0342 -0.0732,-0.0342 -0.0781,-0.0293 -0.0732,-0.0342 -0.0781,-0.0342 -0.0732,-0.0293 -0.0781,-0.0342 -0.0732,-0.0293 -0.0732,-0.0342 -0.0781,-0.0293 -0.0732,-0.0342 -0.0732,-0.0293 -0.0781,-0.0342 -0.0732,-0.0293 -0.0732,-0.0342 -0.0781,-0.0293 -0.0732,-0.0293 -0.0732,-0.0342 -0.0732,-0.0293 -0.0781,-0.0342 -0.29297,-0.11719 -0.0781,-0.0342 -0.29297,-0.11718 -0.0781,-0.0293 -0.14649,-0.0586 -0.0732,-0.0342 -0.0732,-0.0244 -0.58594,-0.23437 -0.0732,-0.0244 -0.21972,-0.0879 -0.0732,-0.0244 -0.0732,-0.0293 -0.0732,-0.0244 -0.0732,-0.0293 -0.0684,-0.0293 -0.0732,-0.0244 -0.0732,-0.0293 -0.0732,-0.0244 -0.0732,-0.0293 -0.0732,-0.0244 -0.0732,-0.0293 -0.0684,-0.0244 -0.0732,-0.0293 -0.14649,-0.0488 -0.0684,-0.0293 -0.0732,-0.0244 -0.0732,-0.0293 -0.0732,-0.0244 -0.0684,-0.0244 -0.0732,-0.0244 -0.0732,-0.0293 -0.0684,-0.0244 -0.14649,-0.0488 -0.0684,-0.0244 -0.0732,-0.0244 -0.0684,-0.0293 -0.14648,-0.0488 -0.0684,-0.0244 -0.0732,-0.0244 -0.0684,-0.0244 -0.0732,-0.0244 -0.0684,-0.0244 -0.0732,-0.0244 -0.0684,-0.0244 -0.0732,-0.0244 -0.0684,-0.0195 -0.0732,-0.0244 -0.0684,-0.0244 -0.0732,-0.0244 -0.0684,-0.0244 -0.0732,-0.0195 -0.13672,-0.0488 -0.0732,-0.0195 -0.13672,-0.0488 -0.0732,-0.0195 -0.13671,-0.0488 -0.0732,-0.0195 -0.0684,-0.0244 -0.0684,-0.0195 -0.0732,-0.0195 -0.0684,-0.0244 -0.0684,-0.0195 -0.0684,-0.0244 -0.0684,-0.0195 -0.0732,-0.0244 -0.13672,-0.0391 -0.0684,-0.0244 -0.13672,-0.0391 -0.0732,-0.0244 -0.20508,-0.0586 -0.0684,-0.0244 -0.3418,-0.0977 -0.0732,-0.0195 -0.0635,-0.0195 -0.0684,-0.0195 -0.0732,-0.0195 -0.0635,-0.0195 -0.41015,-0.11719 -0.0684,-0.0146 -0.13672,-0.0391 -0.0635,-0.0195 -0.0684,-0.0146 -0.13672,-0.0391 -0.0684,-0.0146 -0.0635,-0.0195 -0.0684,-0.0195 -0.0684,-0.0146 -0.0684,-0.0195 -0.0684,-0.0146 -0.0635,-0.0195 -0.0684,-0.0195 -0.13672,-0.0293 -0.0635,-0.0195 -0.0684,-0.0195 -0.0684,-0.0147 -0.0635,-0.0146 -0.0684,-0.0195 -0.0635,-0.0146 -0.0684,-0.0195 -0.0684,-0.0146 -0.0635,-0.0147 -0.0684,-0.0146 -0.0635,-0.0195 -0.0684,-0.0147 -0.0635,-0.0147 -0.13672,-0.0293 -0.0635,-0.0195 -0.0635,-0.0146 -0.0684,-0.0147 -0.0635,-0.0147 -0.0684,-0.0147 -0.0635,-0.0147 -0.0684,-0.0146 -0.0635,-0.0147 -0.0684,-0.0147 -0.12696,-0.0293 -0.0684,-0.0147 -0.0635,-0.0147 -0.0684,-0.0147 -0.19043,-0.0439 -0.0684,-0.01 -0.12695,-0.0293 -0.0684,-0.0147 -0.0635,-0.01 -0.12695,-0.0293 -0.0684,-0.0147 -0.0635,-0.01 -0.12695,-0.0293 -0.0635,-0.01 -0.0635,-0.0147 -0.0684,-0.01 -0.0635,-0.0147 -0.0635,-0.01 -0.0635,-0.0147 -0.0635,-0.01 -0.0635,-0.0147 -0.0635,-0.01 -0.0635,-0.0147 -0.0635,-0.01 -0.0684,-0.01 -0.0635,-0.0147 -0.0635,-0.01 -0.0586,-0.0147 -0.0684,-0.01 -0.0635,-0.01 -0.0586,-0.0146 -0.25391,-0.0391 -0.0635,-0.0147 -0.31739,-0.0488 -0.0586,-0.01 -0.25391,-0.0391 -0.0586,-0.01 -0.19043,-0.0293 -0.0586,-0.01 -0.12696,-0.0195 -0.0635,-0.005 -0.0586,-0.01 -0.0635,-0.01 -0.0586,-0.01 -0.0635,-0.01 -0.0635,-0.005 -0.0586,-0.01 -0.0635,-0.01 -0.0635,-0.005 -0.0586,-0.01 -0.0635,-0.01 -0.0586,-0.005 -0.0635,-0.01 -0.0586,-0.01 -0.0635,-0.005 -0.0586,-0.01 -0.0635,-0.005 -0.0635,-0.01 -0.0586,-0.005 -0.0586,-0.01 -0.0635,-0.005 -0.0586,-0.01 -0.0635,-0.005 -0.0586,-0.01 -0.0635,-0.005 -0.0586,-0.005 -0.0586,-0.01 -0.0635,-0.005 -0.0586,-0.005 -0.0635,-0.005 -0.0586,-0.01 -0.11719,-0.01 -0.0635,-0.005 -0.0586,-0.01 -0.0586,-0.005 -0.0635,-0.005 -0.17579,-0.0147 -0.0586,-0.01 -0.0635,-0.005 -0.23437,-0.0195 -0.0635,-0.005 -0.0586,0 -0.46875,-0.0391 -0.0635,0 -0.0586,-0.005 -0.0537,-0.005 -0.0586,-0.005 -0.0586,0 -0.11718,-0.01 -0.0586,0 -0.11719,-0.01 -0.0586,0 -0.11718,-0.01 -0.0586,0 -0.0537,-0.005 -0.0586,0 -0.0586,-0.005 -0.0586,0 -0.0586,-0.005 -0.0586,0 -0.0537,-0.005 -0.11719,0 -0.0586,-0.005 -0.1123,0 -0.0586,-0.005 -0.1123,0 -0.0586,-0.005 -0.1709,0 -0.0586,-0.005 -0.16601,0 -0.0586,-0.005 -0.83985,0 -0.0586,0.005 -0.21973,0 -0.0586,0.005 -0.16113,0 -0.0586,0.005 -0.10742,0 -0.0537,0.005 -0.1123,0 -0.0537,0.005 -0.1123,0 -0.0537,0.005 -0.0537,0 -0.0537,0.005 -0.0537,0 -0.0537,0.005 -0.0586,0 -0.0537,0.005 -0.0537,0 -0.0537,0.005 -0.0537,0 -0.10742,0.01 -0.0537,0 -0.10743,0.01 -0.0537,0 -0.16114,0.0147 -0.0537,0 -0.16113,0.0147 -0.0537,0 -0.10743,0.01 -0.0488,0.005 -0.26856,0.0244 -0.0488,0 -0.16114,0.0147 -0.0488,0.005 -0.0537,0.01 -0.10743,0.01 -0.0488,0.005 -0.10743,0.01 -0.0488,0.005 -0.10743,0.01 -0.0488,0.005 -0.0537,0.01 -0.0488,0.005 -0.10743,0.01 -0.0488,0.01 -0.0537,0.005 -0.0488,0.005 -0.0537,0.01 -0.0488,0.005 -0.0537,0.005 -0.0488,0.01 -0.0537,0.005 -0.0488,0.005 -0.0537,0.01 -0.0488,0.005 -0.0537,0.01 -0.0488,0.005 -0.0488,0.01 -0.0537,0.005 -0.0488,0.01 -0.0537,0.005 -0.0488,0.01 -0.0488,0.005 -0.0537,0.01 -0.0488,0.005 -0.0488,0.01 -0.0537,0.005 -0.0977,0.0195 -0.0537,0.005 -0.0977,0.0195 -0.0488,0.005 -0.0537,0.01 -0.14649,0.0293 -0.0488,0.005 -0.0537,0.01 -0.0977,0.0195 -0.0488,0.005 -0.39063,0.0781 -0.0537,0.01 -0.24414,0.0488 -0.0439,0.01 -0.29297,0.0586 -0.0488,0.0147 -0.0488,0.01 -0.0439,0.01 -0.0977,0.0195 -0.0488,0.0147 -0.0977,0.0195 -0.0439,0.01 -0.0488,0.0146 -0.0488,0.01 -0.0439,0.01 -0.0488,0.0147 -0.0488,0.01 -0.0488,0.0147 -0.0439,0.01 -0.0488,0.01 -0.0488,0.0147 -0.0439,0.01 -0.0488,0.0147 -0.0439,0.01 -0.0488,0.01 -0.0488,0.0147 -0.0439,0.0147 -0.0977,0.0195 -0.0439,0.0147 -0.0488,0.0147 -0.0439,0.01 -0.0488,0.0147 -0.0439,0.01 -0.0488,0.0147 -0.044,0.0147 -0.0488,0.01 -0.0439,0.0147 -0.0488,0.0146 -0.0439,0.01 -0.0488,0.0146 -0.0439,0.0147 -0.0439,0.01 -0.0488,0.0147 -0.0879,0.0293 -0.0488,0.0147 -0.0439,0.01 -0.044,0.0147 -0.0488,0.0146 -0.0879,0.0293 -0.0488,0.01 -0.13184,0.0439 -0.0488,0.0146 -0.17578,0.0586 -0.0488,0.0146 -0.30762,0.10254 -0.0488,0.0146 -0.0439,0.0147 -0.0439,0.0195 -0.26368,0.0879 -0.044,0.0195 -0.0879,0.0293 -0.0439,0.0195 -0.0879,0.0293 -0.0391,0.0147 -0.0439,0.0195 -0.0879,0.0293 -0.0439,0.0195 -0.0439,0.0146 -0.0391,0.0147 -0.0439,0.0195 -0.044,0.0146 -0.0439,0.0195 -0.0439,0.0146 -0.0391,0.0195 -0.0439,0.0146 -0.0439,0.0195 -0.0439,0.0147 -0.0391,0.0146 -0.0879,0.0391 -0.0391,0.0146 -0.0439,0.0195 -0.0439,0.0146 -0.044,0.0195 -0.0391,0.0147 -0.044,0.0195 -0.0391,0.0147 -0.0879,0.0391 -0.0391,0.0147 -0.0439,0.0195 -0.0391,0.0195 -0.044,0.0146 -0.0391,0.0195 -0.0439,0.0195 -0.0391,0.0195 -0.0439,0.0147 -0.0391,0.0195 -0.0439,0.0195 -0.0391,0.0195 -0.0439,0.0146 -0.0391,0.0195 -0.0439,0.0195 -0.0781,0.0391 -0.0439,0.0195 -0.0391,0.0146 -0.0439,0.0244 -0.0391,0.0147 -0.0781,0.0391 -0.0439,0.0195 -0.0781,0.0391 -0.0439,0.0195 -0.0781,0.0391 -0.044,0.0195 -0.19532,0.0977 -0.0439,0.0195 -0.0781,0.0391 -0.0391,0.0244 -0.15625,0.0781 -0.0439,0.0195 -0.0391,0.0195 -0.0391,0.0244 -0.11719,0.0586 -0.0391,0.0244 -0.11719,0.0586 -0.0391,0.0244 -0.0342,0.0195 -0.0439,0.0195 -0.0342,0.0244 -0.0781,0.0391 -0.0391,0.0244 -0.0391,0.0195 -0.0391,0.0244 -0.0781,0.0391 -0.0342,0.0244 -0.0391,0.0195 -0.0391,0.0244 -0.0391,0.0195 -0.0391,0.0244 -0.0342,0.0195 -0.0391,0.0244 -0.0391,0.0195 -0.0391,0.0244 -0.0342,0.0195 -0.0391,0.0244 -0.0391,0.0195 -0.0342,0.0244 -0.0391,0.0195 -0.0391,0.0244 -0.0342,0.0244 -0.0391,0.0195 -0.0391,0.0244 -0.0342,0.0195 -0.0391,0.0244 -0.0342,0.0244 -0.0391,0.0195 -0.0391,0.0244 -0.0342,0.0244 -0.0391,0.0244 -0.0342,0.0195 -0.0391,0.0244 -0.0342,0.0244 -0.0391,0.0195 -0.0342,0.0244 -0.0391,0.0244 -0.0342,0.0244 -0.0391,0.0244 -0.0342,0.0195 -0.0342,0.0244 -0.0391,0.0244 -0.0342,0.0244 -0.0391,0.0244 -0.0342,0.0244 -0.0342,0.0195 -0.0391,0.0244 -0.0684,0.0488 -0.0391,0.0244 -0.10253,0.0732 -0.0391,0.0244 -0.10253,0.0732 -0.0391,0.0244 -0.10253,0.0732 -0.0391,0.0244 -0.23925,0.1709 -0.0342,0.0293 -0.0391,0.0244 -0.0293,0.0244 -0.0391,0.0244 -0.0293,0.0244 -0.0391,0.0244 -0.0342,0.0244 -0.0293,0.0293 -0.0391,0.0244 -0.0342,0.0244 -0.0293,0.0244 -0.0342,0.0293 -0.10254,0.0732 -0.0342,0.0293 -0.0684,0.0488 -0.0342,0.0293 -0.0293,0.0244 -0.0342,0.0244 -0.0342,0.0293 -0.0684,0.0488 -0.0293,0.0293 -0.0684,0.0488 -0.0342,0.0293 -0.0342,0.0244 -0.0293,0.0293 -0.0342,0.0244 -0.0342,0.0293 -0.0293,0.0244 -0.0342,0.0293 -0.0342,0.0244 -0.0293,0.0293 -0.0342,0.0244 -0.0342,0.0293 -0.0293,0.0244 -0.0342,0.0293 -0.0293,0.0244 -0.0342,0.0293 -0.0342,0.0244 -0.0293,0.0293 -0.0342,0.0244 -0.0293,0.0293 -0.0342,0.0293 -0.0293,0.0244 -0.0342,0.0293 -0.0293,0.0244 -0.0342,0.0293 -0.0293,0.0293 -0.0342,0.0244 -0.0293,0.0293 -0.0342,0.0293 -0.0293,0.0244 -0.0293,0.0293 -0.0342,0.0293 -0.0293,0.0244 -0.0342,0.0293 -0.0586,0.0586 -0.0342,0.0244 -0.0586,0.0586 -0.0342,0.0293 -0.0293,0.0244 -0.0586,0.0586 -0.0342,0.0293 -0.0879,0.0879 -0.0293,0.0244 -0.0342,0.0293 -0.11719,0.11719 -0.0342,0.0244 -0.0293,0.0342 -0.0293,0.0293 -0.0293,0.0244 -0.41015,0.41015 -0.0293,0.0342 -0.0879,0.0879 -0.0244,0.0293 -0.11719,0.11718 -0.0293,0.0342 -0.0244,0.0293 -0.0879,0.0879 -0.0293,0.0342 -0.0244,0.0293 -0.0586,0.0586 -0.0244,0.0293 -0.0293,0.0342 -0.0293,0.0293 -0.0244,0.0293 -0.0293,0.0293 -0.0293,0.0342 -0.0244,0.0293 -0.0293,0.0293 -0.0244,0.0342 -0.0586,0.0586 -0.0244,0.0293 -0.0293,0.0342 -0.0244,0.0293 -0.0293,0.0293 -0.0244,0.0342 -0.0293,0.0293 -0.0244,0.0293 -0.0293,0.0342 -0.0244,0.0293 -0.0293,0.0342 -0.0244,0.0293 -0.0293,0.0293 -0.0244,0.0342 -0.0244,0.0293 -0.0293,0.0342 -0.0244,0.0293 -0.0293,0.0342 -0.0488,0.0586 -0.0293,0.0342 -0.0244,0.0293 -0.0244,0.0342 -0.0293,0.0342 -0.0244,0.0293 -0.0244,0.0342 -0.0293,0.0293 -0.0244,0.0293 -0.0488,0.0684 -0.0244,0.0293 -0.0293,0.0342 -0.0244,0.0293 -0.0244,0.0342 -0.0244,0.0293 -0.0293,0.0342 -0.0244,0.0342 -0.0244,0.0293 -0.0488,0.0684 -0.0244,0.0293 -0.0244,0.0342 -0.0244,0.0293 -0.0488,0.0684 -0.0244,0.0293 -0.0293,0.0342 -0.0195,0.0342 -0.0293,0.0293 -0.0195,0.0342 -0.0293,0.0342 -0.0195,0.0342 -0.0293,0.0293 -0.0195,0.0342 -0.0488,0.0684 -0.0244,0.0293 -0.0732,0.10254 -0.0244,0.0293 -0.0244,0.0342 -0.0195,0.0342 -0.0244,0.0342 -0.0244,0.0293 -0.0488,0.0684 -0.0195,0.0342 -0.0732,0.10254 -0.0195,0.0293 -0.0732,0.10254 -0.0195,0.0342 -0.0488,0.0684 -0.0195,0.0342 -0.0244,0.0342 -0.0195,0.0342 -0.0244,0.0293 -0.0244,0.0342 -0.0195,0.0342 -0.0244,0.0342 -0.0195,0.0342 -0.0488,0.0684 -0.0195,0.0342 -0.0244,0.0342 -0.0195,0.0342 -0.0244,0.0342 -0.0195,0.0342 -0.0244,0.0342 -0.0195,0.0342 -0.0244,0.0342 -0.0391,0.0684 -0.0244,0.0342 -0.0195,0.0342 -0.0244,0.0342 -0.0391,0.0684 -0.0244,0.0391 -0.0391,0.0684 -0.0244,0.0342 -0.0586,0.10254 -0.0244,0.0342 -0.0195,0.0342 -0.0195,0.0391 -0.0244,0.0342 -0.0781,0.13672 -0.0244,0.0391 -0.0977,0.1709 -0.0195,0.0391 -0.0586,0.10253 -0.0244,0.0342 -0.0195,0.0391 -0.0586,0.10254 -0.0195,0.0391 -0.0391,0.0684 -0.0195,0.0391 -0.0146,0.0342 -0.0195,0.0342 -0.0195,0.0391 -0.0586,0.10254 -0.0195,0.0391 -0.0391,0.0684 -0.0147,0.0391 -0.0391,0.0684 -0.0195,0.0391 -0.0195,0.0342 -0.0146,0.0391 -0.0391,0.0684 -0.0195,0.0391 -0.0195,0.0342 -0.0146,0.0391 -0.0391,0.0684 -0.0146,0.0391 -0.0195,0.0342 -0.0195,0.0391 -0.0146,0.0342 -0.0195,0.0391 -0.0195,0.0342 -0.0146,0.0342 -0.0195,0.0391 -0.0147,0.0342 -0.0195,0.0391 -0.0147,0.0342 -0.0195,0.0342 -0.0195,0.0391 -0.0147,0.0391 -0.0195,0.0342 -0.0146,0.0342 -0.0195,0.0391 -0.0146,0.0391 -0.0195,0.0342 -0.0146,0.0391 -0.0195,0.0342 -0.0147,0.0342 -0.0146,0.0391 -0.0195,0.0391 -0.0146,0.0342 -0.0147,0.0391 -0.0195,0.0342 -0.0147,0.0391 -0.0195,0.0342 -0.0293,0.0781 -0.0195,0.0342 -0.0146,0.0391 -0.0147,0.0342 -0.0146,0.0391 -0.0195,0.0342 -0.0293,0.0781 -0.0146,0.0342 -0.0195,0.0391 -0.0146,0.0391 -0.0147,0.0342 -0.0146,0.0391 -0.0195,0.0342 -0.0293,0.0781 -0.0146,0.0342 -0.0293,0.0781 -0.0146,0.0342 -0.0293,0.0781 -0.0147,0.0342 -0.0195,0.0391 -0.0147,0.0391 -0.0146,0.0342 -0.01,0.0391 -0.0195,0.0391 -0.0146,0.0342 -0.01,0.0391 -0.0195,0.0391 -0.0147,0.0391 -0.01,0.0342 -0.0439,0.11719 -0.0146,0.0342 -0.044,0.11719 -0.01,0.0342 -0.0439,0.11719 -0.0146,0.0342 -0.0147,0.0391 -0.01,0.0391 -0.0146,0.0391 -0.0147,0.0342 -0.0146,0.0391 -0.01,0.0391 -0.0293,0.0781 -0.0146,0.0342 -0.01,0.0391 -0.0147,0.0391 -0.01,0.0391 -0.0293,0.0781 -0.01,0.0391 -0.0146,0.0342 -0.0146,0.0391 -0.01,0.0391 -0.0146,0.0391 -0.01,0.0391 -0.0146,0.0342 -0.01,0.0391 -0.0146,0.0391 -0.01,0.0391 -0.0293,0.0781 -0.0195,0.0781 -0.0146,0.0391 -0.01,0.0342 -0.0147,0.0391 -0.0195,0.0781 -0.0147,0.0391 -0.01,0.0391 -0.0146,0.0391 -0.01,0.0391 -0.0147,0.0342 -0.0293,0.11718 -0.0146,0.0391 -0.0195,0.0781 -0.0146,0.0391 -0.0391,0.15625 -0.0146,0.0391 -0.0488,0.19531 -0.0146,0.0391 -0.20508,0.82031 -0.005,0.0391 -0.0488,0.19531 -0.005,0.0391 -0.0293,0.11719 -0.01,0.0439 -0.005,0.0391 -0.0195,0.0781 -0.005,0.0391 -0.0195,0.0781 -0.005,0.0391 -0.0195,0.0781 -0.005,0.0439 -0.01,0.0342 -0.01,0.0439 -0.005,0.0391 -0.01,0.0391 -0.005,0.0391 -0.0195,0.0781 -0.005,0.0391 -0.01,0.0391 -0.005,0.0439 -0.005,0.0391 -0.0195,0.0781 -0.01,0.0781 -0.01,0.0391 -0.005,0.0439 -0.01,0.0391 -0.01,0.0781 -0.01,0.0391 -0.005,0.0391 -0.01,0.0391 -0.005,0.0439 -0.005,0.0391 -0.01,0.0391 -0.01,0.0781 -0.01,0.0391 -0.005,0.0391 -0.005,0.044 -0.005,0.0391 -0.01,0.0391 -0.0147,0.11719 -0.005,0.044 -0.01,0.0391 -0.0147,0.11719 -0.005,0.0439 -0.0195,0.15625 -0.01,0.0391 -0.005,0.0439 -0.0195,0.15625 -0.005,0.0439 -0.0195,0.15625 -0.005,0.0439 -0.005,0.0391 0,0.0391 -0.01,0.0781 -0.005,0.0439 -0.0146,0.11718 0,0.0439 -0.0195,0.15625 -0.005,0.0439 0,0.0391 -0.01,0.0781 0,0.044 -0.01,0.0781 0,0.0391 -0.005,0.0439 -0.005,0.0391 0,0.0391 -0.005,0.0391 -0.005,0.0439 -0.005,0.0391 0,0.0391 -0.005,0.0391 0,0.0391 -0.005,0.0439 0,0.0391 -0.005,0.0391 0,0.0391 -0.005,0.0439 0,0.0391 -0.005,0.0391 0,0.0391 -0.005,0.0439 0,0.0391 -0.005,0.0391 0,0.0391 -0.005,0.0439 0,0.0781 -0.005,0.0391 0,0.044 -0.005,0.0391 0,0.083 -0.005,0.0391 0,0.0781 -0.005,0.0439 0,0.11719 -0.005,0.0439 0,0.11719 -0.005,0.0439 0,0.23926 -0.005,0.0391 0,0.72754 0.005,0.0391 0,0.24414 0.005,0.0391 0,0.16114 0.005,0.0391 0,0.083 0.005,0.0391 0,0.12207 0.005,0.0391 0,0.0391 0.005,0.044 0,0.0391 0.005,0.0391 0,0.083 0.005,0.0391 0,0.0391 0.005,0.0439 0,0.0781 0.005,0.0391 0,0.0439 0.005,0.0391 0,0.0391 0.005,0.0391 0,0.0439 0.01,0.0781 0,0.0391 0.005,0.0439 0,0.0391 0.01,0.0781 0,0.0439 0.01,0.0781 0,0.0391 0.005,0.0391 0.005,0.0439 0,0.0391 0.01,0.0781 0,0.0439 0.0146,0.11719 0.005,0.0439 0.005,0.0391 0,0.0391 0.01,0.0781 0.005,0.0439 0.005,0.0391 0,0.0391 0.005,0.0391 0.005,0.0439 0.0195,0.15625 0.005,0.0439 0.0195,0.15625 0.005,0.0439 0.0195,0.15625 0.005,0.0439 0.01,0.0781 0.01,0.0391 0.01,0.0781 0.005,0.0439 0.01,0.0781 0.01,0.0391 0.005,0.0391 0.005,0.0439 0.01,0.0781 0.01,0.0391 0.01,0.0781 0.005,0.0439 0.01,0.0391 0.01,0.0781 0.01,0.0391 0.01,0.0781 0.01,0.0439 0.005,0.0391 0.01,0.0391 0.01,0.0781 0.01,0.0391 0.005,0.0391 0.005,0.0439 0.0195,0.0781 0.005,0.0391 0.01,0.0391 0.01,0.0781 0.01,0.0439 0.005,0.0342 0.01,0.0439 0.01,0.0391 0.005,0.0391 0.01,0.0391 0.005,0.0391 0.0195,0.0781 0.005,0.0391 0.01,0.0391 0.01,0.0439 0.005,0.0391 0.0293,0.11719 0.005,0.0391 0.0195,0.0781 0.005,0.0391 0.0391,0.15625 0.005,0.0439 0.0586,0.23437 0.005,0.0391 0.16601,0.66407 0.0146,0.0391 0.0391,0.15625 0.0146,0.0391 0.0391,0.15625 0.0146,0.0391 0.0195,0.0781 0.01,0.0342 0.0147,0.0391 0.0293,0.11719 0.0147,0.0391 0.01,0.0391 0.0146,0.0391 0.0195,0.0781 0.0147,0.0391 0.01,0.0342 0.0146,0.0391 0.0195,0.0781 0.0146,0.0391 0.01,0.0391 0.0147,0.0391 0.01,0.0391 0.0146,0.0391 0.01,0.0342 0.0147,0.0391 0.01,0.0391 0.0146,0.0391 0.01,0.0391 0.0293,0.0781 0.01,0.0342 0.0147,0.0391 0.01,0.0391 0.0293,0.0781 0.01,0.0391 0.0146,0.0391 0.0146,0.0342 0.01,0.0391 0.0293,0.0781 0.01,0.0342 0.044,0.11719 0.01,0.0391 0.0146,0.0342 0.0586,0.15625 0.01,0.0342 0.0439,0.11719 0.0146,0.0342 0.0293,0.0781 0.0147,0.0342 0.0146,0.0391 0.01,0.0391 0.0195,0.0391 0.0146,0.0342 0.01,0.0391 0.0147,0.0391 0.0195,0.0342 0.0146,0.0391 0.01,0.0391 0.0195,0.0342 0.0293,0.0781 0.0146,0.0342 0.0293,0.0781 0.0146,0.0342 0.0293,0.0781 0.0195,0.0342 0.0293,0.0781 0.0146,0.0342 0.0146,0.0391 0.0195,0.0342 0.0293,0.0781 0.0146,0.0342 0.0195,0.0391 0.0147,0.0342 0.0293,0.0781 0.0195,0.0342 0.0146,0.0391 0.0147,0.0342 0.0195,0.0391 0.0146,0.0342 0.0146,0.0391 0.0195,0.0391 0.0147,0.0342 0.0195,0.0391 0.0147,0.0342 0.0146,0.0391 0.0195,0.0342 0.0146,0.0391 0.0195,0.0342 0.0147,0.0391 0.0195,0.0342 0.0147,0.0391 0.0195,0.0342 0.0146,0.0391 0.0195,0.0342 0.0146,0.0391 0.0195,0.0342 0.0146,0.0391 0.0195,0.0342 0.0195,0.0391 0.0146,0.0342 0.0195,0.0342 0.0195,0.0391 0.0146,0.0342 0.0195,0.0391 0.0195,0.0342 0.0146,0.0342 0.0195,0.0391 0.0195,0.0342 0.0146,0.0391 0.0195,0.0342 0.0195,0.0391 0.0146,0.0342 0.0195,0.0342 0.0195,0.0391 0.0391,0.0684 0.0146,0.0391 0.0391,0.0684 0.0195,0.0391 0.0391,0.0684 0.0147,0.0391 0.0244,0.0342 0.0147,0.0342 0.0195,0.0391 0.0391,0.0684 0.0195,0.0391 0.0586,0.10254 0.0195,0.0391 0.0586,0.10254 0.0195,0.0391 0.0586,0.10254 0.0244,0.0342 0.0195,0.0391 0.0781,0.13671 0.0195,0.0391 0.0244,0.0342 0.0781,0.13672 0.0244,0.0342 0.0195,0.0391 0.0391,0.0684 0.0244,0.0342 0.0391,0.0684 0.0244,0.0342 0.0391,0.0684 0.0244,0.0391 0.0195,0.0342 0.0244,0.0342 0.0391,0.0684 0.0244,0.0342 0.0195,0.0342 0.0244,0.0342 0.0195,0.0342 0.0244,0.0342 0.0391,0.0684 0.0244,0.0342 0.0195,0.0342 0.0488,0.0684 0.0195,0.0342 0.0244,0.0342 0.0195,0.0342 0.0244,0.0342 0.0195,0.0342 0.0488,0.0684 0.0195,0.0293 0.0244,0.0342 0.0195,0.0342 0.0732,0.10254 0.0195,0.0342 0.0244,0.0342 0.0244,0.0293 0.0244,0.0342 0.0195,0.0342 0.0732,0.10253 0.0195,0.0293 0.0977,0.13672 0.0244,0.0293 0.0195,0.0342 0.0732,0.10253 0.0244,0.0293 0.0488,0.0684 0.0244,0.0293 0.0732,0.10253 0.0244,0.0293 0.0488,0.0684 0.0244,0.0293 0.0488,0.0684 0.0244,0.0293 0.0488,0.0684 0.0293,0.0293 0.0244,0.0342 0.0244,0.0293 0.0488,0.0684 0.0244,0.0293 0.0244,0.0342 0.0293,0.0293 0.0244,0.0342 0.0244,0.0293 0.0244,0.0342 0.0244,0.0293 0.0293,0.0342 0.0244,0.0342 0.0244,0.0293 0.0293,0.0342 0.0244,0.0293 0.0244,0.0342 0.0293,0.0293 0.0244,0.0342 0.0244,0.0293 0.0293,0.0293 0.0488,0.0684 0.0293,0.0293 0.0244,0.0293 0.0293,0.0342 0.0244,0.0293 0.0293,0.0342 0.0488,0.0586 0.0293,0.0342 0.0244,0.0293 0.0293,0.0342 0.0244,0.0293 0.0586,0.0586 0.0244,0.0342 0.0293,0.0293 0.0244,0.0293 0.0293,0.0342 0.0244,0.0293 0.0293,0.0293 0.0293,0.0342 0.0244,0.0293 0.0586,0.0586 0.0244,0.0342 0.0586,0.0586 0.0244,0.0293 0.0293,0.0293 0.0293,0.0342 0.0293,0.0293 0.0244,0.0293 0.0586,0.0586 0.0293,0.0342 0.0293,0.0293 0.0244,0.0293 0.11719,0.11719 0.0293,0.0342 0.0244,0.0293 0.49805,0.49805 0.0342,0.0293 0.0586,0.0586 0.0293,0.0244 0.0879,0.0879 0.0342,0.0293 0.0879,0.0879 0.0293,0.0244 0.0293,0.0293 0.0342,0.0293 0.0586,0.0586 0.0342,0.0244 0.0586,0.0586 0.0342,0.0293 0.0293,0.0244 0.0293,0.0293 0.0342,0.0293 0.0293,0.0293 0.0342,0.0244 0.0586,0.0586 0.0342,0.0244 0.0293,0.0293 0.0342,0.0293 0.0293,0.0244 0.0342,0.0293 0.0293,0.0293 0.0342,0.0244 0.0293,0.0293 0.0342,0.0244 0.0293,0.0293 0.0342,0.0244 0.0293,0.0293 0.0342,0.0293 0.0293,0.0244 0.0342,0.0293 0.0342,0.0244 0.0293,0.0293 0.0342,0.0244 0.0293,0.0293 0.0342,0.0244 0.0342,0.0293 0.0293,0.0244 0.0342,0.0293 0.0342,0.0244 0.0293,0.0293 0.0342,0.0244 0.0342,0.0293 0.0684,0.0488 0.0293,0.0293 0.0684,0.0488 0.0342,0.0293 0.0342,0.0244 0.0293,0.0293 0.10253,0.0732 0.0342,0.0293 0.0342,0.0244 0.0293,0.0244 0.0342,0.0293 0.10254,0.0732 0.0342,0.0293 0.13672,0.0977 0.0342,0.0293 0.10253,0.0732 0.0391,0.0244 0.0293,0.0244 0.0391,0.0244 0.0342,0.0293 0.0342,0.0195 0.0342,0.0293 0.10254,0.0732 0.0391,0.0244 0.13672,0.0977 0.0391,0.0244 0.10254,0.0732 0.0391,0.0244 0.0684,0.0488 0.0391,0.0195 0.0684,0.0488 0.0391,0.0244 0.0684,0.0488 0.0391,0.0244 0.0342,0.0244 0.0391,0.0195 0.0342,0.0244 0.0391,0.0244 0.0684,0.0488 0.0391,0.0195 0.0391,0.0244 0.0684,0.0488 0.0391,0.0195 0.0342,0.0244 0.0391,0.0244 0.0391,0.0195 0.0342,0.0244 0.0391,0.0244 0.0342,0.0195 0.0391,0.0244 0.0342,0.0244 0.0391,0.0195 0.0391,0.0244 0.0342,0.0195 0.0781,0.0488 0.0391,0.0195 0.0342,0.0244 0.0391,0.0195 0.0391,0.0244 0.0391,0.0195 0.0342,0.0244 0.0391,0.0195 0.0391,0.0244 0.0342,0.0195 0.0391,0.0244 0.0781,0.0391 0.0391,0.0244 0.0391,0.0195 0.0391,0.0244 0.0342,0.0195 0.0391,0.0195 0.0391,0.0244 0.0781,0.0391 0.0391,0.0244 0.0781,0.0391 0.0391,0.0244 0.0781,0.0391 0.0391,0.0244 0.15625,0.0781 0.0391,0.0244 0.23438,0.11718 0.0439,0.0244 0.15625,0.0781 0.0439,0.0195 0.11718,0.0586 0.044,0.0195 0.11719,0.0586 0.0439,0.0195 0.0781,0.0391 0.044,0.0195 0.0391,0.0195 0.0391,0.0147 0.0439,0.0195 0.0781,0.0391 0.0439,0.0195 0.0391,0.0195 0.0439,0.0146 0.0391,0.0195 0.0439,0.0195 0.0391,0.0195 0.0439,0.0195 0.0391,0.0146 0.0391,0.0195 0.0439,0.0195 0.044,0.0146 0.0391,0.0195 0.044,0.0195 0.0391,0.0146 0.0439,0.0195 0.0391,0.0195 0.0439,0.0146 0.0391,0.0195 0.0439,0.0195 0.0439,0.0146 0.0391,0.0195 0.0439,0.0146 0.044,0.0195 0.0391,0.0195 0.0439,0.0146 0.044,0.0195 0.0439,0.0146 0.0391,0.0195 0.044,0.0146 0.0439,0.0195 0.0439,0.0147 0.0391,0.0146 0.0439,0.0195 0.0439,0.0146 0.0439,0.0195 0.0439,0.0146 0.0391,0.0147 0.0439,0.0195 0.0879,0.0293 0.0439,0.0195 0.0879,0.0293 0.044,0.0195 0.0879,0.0293 0.0391,0.0146 0.0439,0.0195 0.13183,0.0439 0.0488,0.0146 0.0391,0.0195 0.0879,0.0293 0.0488,0.0146 0.30762,0.10254 0.0488,0.0147 0.21972,0.0732 0.0488,0.0146 0.0879,0.0293 0.0488,0.0146 0.0879,0.0293 0.0439,0.01 0.0488,0.0147 0.0879,0.0293 0.0488,0.0147 0.0439,0.0146 0.0439,0.01 0.0488,0.0147 0.0439,0.0146 0.0488,0.01 0.0879,0.0293 0.0488,0.01 0.0439,0.0146 0.0488,0.0147 0.0439,0.01 0.0488,0.0146 0.0439,0.0147 0.0488,0.01 0.0439,0.0146 0.0488,0.01 0.0488,0.0147 0.0439,0.01 0.0488,0.0146 0.044,0.01 0.0488,0.0147 0.044,0.01 0.0488,0.0146 0.0488,0.01 0.0439,0.0147 0.0488,0.01 0.0488,0.0146 0.0439,0.01 0.0488,0.01 0.0488,0.0147 0.0439,0.01 0.0488,0.01 0.0488,0.0146 0.0488,0.01 0.044,0.01 0.0488,0.0146 0.14649,0.0293 0.0488,0.0146 0.0439,0.01 0.19532,0.0391 0.0488,0.0146 0.0488,0.01 0.044,0.01 0.58593,0.11718 0.0537,0.01 0.0488,0.005 0.24414,0.0488 0.0488,0.005 0.0537,0.01 0.14648,0.0293 0.0537,0.005 0.0977,0.0195 0.0488,0.005 0.0537,0.01 0.0488,0.005 0.0977,0.0195 0.0537,0.005 0.0488,0.01 0.0488,0.005 0.0537,0.01 0.0488,0.01 0.0488,0.005 0.0537,0.01 0.0488,0.005 0.0537,0.01 0.0977,0.01 0.0537,0.01 0.0488,0.005 0.0537,0.01 0.0488,0.005 0.0537,0.005 0.0488,0.01 0.0537,0.005 0.0488,0.005 0.0537,0.01 0.0488,0.005 0.0537,0.005 0.0537,0.01 0.0488,0.005 0.0537,0.005 0.0488,0.005 0.10742,0.01 0.0488,0.01 0.10742,0.01 0.0488,0.005 0.16113,0.0146 0.0488,0.005 0.10743,0.01 0.0537,0.01 0.0488,0.005 0.0537,0 0.16113,0.0146 0.0488,0.005 0.16113,0.0146 0.0537,0 0.16113,0.0146 0.0488,0.005 0.0537,0.005 0.0537,0 0.10743,0.01 0.0537,0 0.10743,0.01 0.0586,0 0.0537,0.005 0.0537,0 0.10742,0.01 0.0537,0 0.0537,0.005 0.0537,0 0.0537,0.005 0.0537,0 0.0537,0.005 0.0586,0 0.0537,0.005 0.10742,0 0.0537,0.005 0.0586,0 0.0537,0.005 0.10742,0 0.0586,0.005 0.16601,0 0.0537,0.005 0.27832,0 0.0537,0.005 0.83984,0 0.0586,-0.005 0.22461,0 0.0586,-0.005 0.17089,0 0.0586,-0.005 0.1123,0 0.0586,-0.005 0.1123,0 0.0586,-0.005 0.11718,0 0.0537,-0.005 0.0586,0 0.0586,-0.005 0.0586,0 0.0586,-0.005 0.0586,0 0.0586,-0.005 0.0537,-0.005 0.0586,0 0.11719,-0.01 0.0586,0 0.11718,-0.01 0.0586,0 0.11719,-0.01 0.0586,0 0.29297,-0.0244 0.0586,0 0.29297,-0.0244 0.0635,-0.005 0.23437,-0.0195 0.0635,-0.005 0.17578,-0.0147 0.0635,-0.005 0.0586,-0.01 0.11719,-0.01 0.0635,-0.005 0.0586,-0.01 0.0586,-0.005 0.0635,-0.005 0.11719,-0.01 0.0635,-0.01 0.0586,-0.005 0.0635,-0.01 0.11719,-0.01 0.0635,-0.01 0.0586,-0.005 0.0635,-0.01 0.0586,-0.005 0.0635,-0.005 0.11718,-0.0195 0.0635,-0.005 0.0635,-0.01 0.0586,-0.005 0.0635,-0.01 0.0586,-0.005 0.0635,-0.01 0.0586,-0.01 0.0635,-0.01 0.0635,-0.005 0.0586,-0.01 0.0635,-0.01 0.0586,-0.005 0.12695,-0.0195 0.0586,-0.01 0.0635,-0.01 0.0635,-0.005 0.0635,-0.01 0.0586,-0.01 0.12695,-0.0195 0.0586,-0.01 0.25391,-0.0391 0.0586,-0.01 0.0684,-0.01 0.0586,-0.01 0.25391,-0.0391 0.0635,-0.0146 0.0635,-0.01 0.0586,-0.01 0.12695,-0.0195 0.0635,-0.0147 0.12695,-0.0195 0.0635,-0.0147 0.0635,-0.01 0.0635,-0.0146 0.12696,-0.0195 0.0684,-0.0147 0.0635,-0.01 0.0635,-0.0146 0.0635,-0.01 0.0635,-0.0147 0.0635,-0.01 0.0635,-0.0146 0.0635,-0.01 0.0635,-0.0147 0.0684,-0.0146 0.0635,-0.01 0.0635,-0.0146 0.0635,-0.01 0.0684,-0.0146 0.0635,-0.0146 0.0635,-0.01 0.0635,-0.0147 0.0684,-0.0146 0.0635,-0.0147 0.0635,-0.01 0.0635,-0.0146 0.0684,-0.0147 0.12696,-0.0293 0.0684,-0.0147 0.12695,-0.0293 0.0684,-0.0147 0.0635,-0.0146 0.0684,-0.0147 0.12696,-0.0293 0.0684,-0.0147 0.0635,-0.0146 0.0684,-0.0147 0.0635,-0.0146 0.0684,-0.0146 0.0635,-0.0147 0.0684,-0.0146 0.0635,-0.0195 0.0684,-0.0146 0.0635,-0.0147 0.0684,-0.0146 0.0635,-0.0195 0.13672,-0.0293 0.0635,-0.0195 0.0684,-0.0147 0.0684,-0.0195 0.0635,-0.0146 0.0684,-0.0146 0.0684,-0.0195 0.0635,-0.0147 0.0684,-0.0195 0.0635,-0.0147 0.0684,-0.0195 0.0684,-0.0146 0.0684,-0.0195 0.0684,-0.0146 0.0635,-0.0195 0.0684,-0.0195 0.0684,-0.0146 0.0684,-0.0195 0.0635,-0.0195 0.0684,-0.0146 0.20508,-0.0586 0.0684,-0.0146 0.0684,-0.0195 0.0635,-0.0195 0.20508,-0.0586 0.0684,-0.0146 0.0684,-0.0244 0.0684,-0.0147 0.0684,-0.0244 0.0684,-0.0146 0.0684,-0.0195 0.0684,-0.0244 0.47851,-0.13672 0.0732,-0.0244 0.20508,-0.0586 0.0684,-0.0244 0.0684,-0.0195 0.0732,-0.0195 0.0684,-0.0244 0.13672,-0.0391 0.0684,-0.0244 0.0732,-0.0195 0.0684,-0.0244 0.0684,-0.0195 0.0684,-0.0244 0.0732,-0.0195 0.13672,-0.0488 0.0732,-0.0195 0.0684,-0.0244 0.0684,-0.0195 0.0732,-0.0244 0.0684,-0.0244 0.0684,-0.0195 0.0732,-0.0244 0.0684,-0.0244 0.0732,-0.0244 0.0684,-0.0195 0.0732,-0.0244 0.0684,-0.0244 0.0732,-0.0244 0.0684,-0.0244 0.0732,-0.0244 0.0684,-0.0244 0.0732,-0.0195 0.0684,-0.0244 0.0732,-0.0244 0.0684,-0.0244 0.0732,-0.0244 0.0684,-0.0293 0.14649,-0.0488 0.0684,-0.0244 0.0732,-0.0244 0.0684,-0.0244 0.14648,-0.0488 0.0684,-0.0293 0.14648,-0.0488 0.0684,-0.0244 0.0732,-0.0293 0.0732,-0.0244 0.0732,-0.0293 0.0732,-0.0244 0.0684,-0.0244 0.0732,-0.0293 0.0732,-0.0244 0.0732,-0.0293 0.0732,-0.0244 0.0684,-0.0293 0.0732,-0.0244 0.0732,-0.0293 0.0732,-0.0244 0.14649,-0.0586 0.0732,-0.0244 0.0684,-0.0293 0.0732,-0.0244 0.29297,-0.11718 0.0732,-0.0244 0.36621,-0.14648 0.0732,-0.0244 0.0732,-0.0342 0.0781,-0.0293 0.0732,-0.0244 0.0732,-0.0342 0.0732,-0.0244 0.0732,-0.0342 0.29297,-0.11719 0.0781,-0.0293 0.0732,-0.0293 0.0732,-0.0342 0.0732,-0.0293 0.0781,-0.0293 0.0732,-0.0342 0.14648,-0.0586 0.0781,-0.0342 0.0732,-0.0293 0.0732,-0.0342 0.0732,-0.0293 0.0781,-0.0293 0.0732,-0.0342 0.0732,-0.0293 0.0781,-0.0342 0.0732,-0.0293 0.0781,-0.0342 0.0732,-0.0293 0.0781,-0.0342 0.0732,-0.0342 0.0732,-0.0293 0.0781,-0.0342 0.0732,-0.0342 0.0781,-0.0342 0.0732,-0.0293 0.0781,-0.0342 0.0732,-0.0342 0.0781,-0.0342 0.0732,-0.0293 0.0781,-0.0342 0.0732,-0.0342 0.15625,-0.0684 0.0732,-0.0342 0.0781,-0.0342 0.0732,-0.0342 0.15625,-0.0684 0.0732,-0.0342 0.0781,-0.0391 0.0781,-0.0342 0.0732,-0.0342 0.23438,-0.10254 0.0732,-0.0391 0.15625,-0.0684 0.0781,-0.0391 0.0732,-0.0342 0.0781,-0.0342 0.0781,-0.0391 0.0781,-0.0342 0.0732,-0.0342 0.0781,-0.0391 0.0781,-0.0342 0.0781,-0.0391 0.0781,-0.0342 0.0781,-0.0391 0.0781,-0.0342 0.15625,-0.0781 0.0732,-0.0391 0.0781,-0.0342 0.15625,-0.0781 0.0781,-0.0342 0.23437,-0.11719 0.0781,-0.0342 0.083,-0.0391 0.0732,-0.0391 0.083,-0.0391 0.54687,-0.27344 0.083,-0.0391 0.0781,-0.0391 0.0781,-0.0439 0.15625,-0.0781 0.083,-0.0391 0.0781,-0.0391 0.0781,-0.0439 0.0781,-0.0391 0.083,-0.0391 0.0781,-0.0439 0.15625,-0.0781 0.083,-0.0439 0.0781,-0.044 0.083,-0.0391 0.0781,-0.0391 0.0781,-0.0439 0.0781,-0.0391 0.083,-0.0439 0.083,-0.0391 0.15625,-0.0879 0.083,-0.044 0.0781,-0.0391 0.083,-0.0439 0.0781,-0.044 0.0781,-0.0391 0.083,-0.044 0.0781,-0.0439 0.083,-0.0439 0.0781,-0.0439 0.083,-0.0439 0.083,-0.0391 0.0781,-0.0439 0.083,-0.0439 0.0781,-0.0488 0.083,-0.0391 0.083,-0.0439 0.0781,-0.0439 0.083,-0.0488 0.083,-0.0439 0.0781,-0.0439 0.16602,-0.0879 0.0781,-0.0439 0.083,-0.0488 0.16601,-0.0879 0.0781,-0.0488 0.24902,-0.13184 0.0781,-0.0488 0.083,-0.0439 0.083,-0.0488 0.083,-0.0439 0.083,-0.0488 0.083,-0.0439 0.0781,-0.0488 0.083,-0.0439 0.16601,-0.0977 0.083,-0.0439 0.24902,-0.14648 0.083,-0.0439 0.33203,-0.19532 0.083,-0.044 0.49804,-0.29296 0.083,-0.0537 0.16601,-0.0977 0.0879,-0.0488 0.16601,-0.0977 0.083,-0.0537 0.083,-0.0488 0.0879,-0.0488 0.083,-0.0488 0.083,-0.0537 0.083,-0.0488 0.0879,-0.0488 0.083,-0.0537 0.083,-0.0488 0.083,-0.0537 0.0879,-0.0488 0.083,-0.0537 0.083,-0.0488 0.0879,-0.0537 0.083,-0.0488 0.083,-0.0537 0.0879,-0.0537 0.083,-0.0488 0.083,-0.0537 0.0879,-0.0537 0.083,-0.0488 0.0879,-0.0537 0.083,-0.0537 0.0879,-0.0537 0.083,-0.0537 0.083,-0.0488 0.17578,-0.10743 0.083,-0.0537 0.0879,-0.0537 0.083,-0.0537 0.0879,-0.0537 0.083,-0.0537 0.0879,-0.0586 0.083,-0.0537 0.17578,-0.10742 0.083,-0.0537 0.0879,-0.0537 0.0879,-0.0586 0.083,-0.0537 0.17578,-0.10742 0.083,-0.0586 0.17578,-0.10743 0.083,-0.0586 0.0879,-0.0537 0.0879,-0.0586 0.0879,-0.0537 0.083,-0.0586 0.0879,-0.0586 0.0879,-0.0537 0.0879,-0.0586 0.0879,-0.0537 0.083,-0.0586 0.0879,-0.0586 0.0879,-0.0537 0.35156,-0.23438 0.0879,-0.0537 0.0879,-0.0586 0.083,-0.0586 0.0928,-0.0586 0.0879,-0.0586 0.083,-0.0586 0.0879,-0.0586 0.0928,-0.0586 0.083,-0.0586 0.0879,-0.0586 0.0928,-0.0586 0.083,-0.0586 0.0928,-0.0635 0.26367,-0.17578 0.0879,-0.0635 0.17579,-0.11719 0.0879,-0.0635 0.0928,-0.0586 0.0879,-0.0635 0.17578,-0.11719 0.0879,-0.0635 0.0879,-0.0586 0.0928,-0.0635 0.0879,-0.0635 0.0879,-0.0586 0.0928,-0.0635 0.0879,-0.0586 0.17578,-0.12695 0.0928,-0.0635 0.0879,-0.0586 0.0879,-0.0635 0.0928,-0.0635 0.0879,-0.0635 0.0928,-0.0635 0.17579,-0.12696 0.0928,-0.0635 0.17578,-0.12695 0.0928,-0.0635 0.0879,-0.0635 0.0928,-0.0635 0.0879,-0.0635 0.0928,-0.0635 0.0879,-0.0635 0.0928,-0.0684 0.0879,-0.0635 0.18554,-0.12695 0.0879,-0.0684 0.0928,-0.0635 0.0879,-0.0635 0.0928,-0.0684 0.0879,-0.0635 0.0928,-0.0684 0.0928,-0.0635 0.0879,-0.0684 0.0928,-0.0635 0.0928,-0.0684 0.0879,-0.0635 0.18554,-0.13672 0.0879,-0.0635 0.27832,-0.20508 0.0879,-0.0635 0.46386,-0.34179 0.0879,-0.0684 0.64942,-0.47852 0.0928,-0.0732 0.0928,-0.0684 0.0879,-0.0684 0.0928,-0.0684 0.0928,-0.0732 0.18555,-0.13672 0.0928,-0.0732 0.0928,-0.0684 0.0928,-0.0732 0.0977,-0.0684 0.0879,-0.0684 0.0976,-0.0733 0.0928,-0.0732 0.0928,-0.0684 0.0928,-0.0732 0.0928,-0.0684 0.18554,-0.14648 0.0977,-0.0733 0.0928,-0.0684 0.27832,-0.21973 0.0977,-0.0732 0.37109,-0.29297 0.0977,-0.0684 0.0928,-0.0781 0.0928,-0.0732 0.0976,-0.0732 0.18555,-0.14649 0.0977,-0.0732 0.0928,-0.0781 0.0928,-0.0732 0.0977,-0.0733 0.0928,-0.0781 0.0977,-0.0732 0.0928,-0.0733 0.0928,-0.0781 0.0976,-0.0732 0.0928,-0.0733 0.0977,-0.0781 0.0928,-0.0732 0.0977,-0.0781 0.0928,-0.0781 0.0977,-0.0733 0.0928,-0.0781 0.0977,-0.0732 0.0977,-0.0781 0.0928,-0.0781 0.0977,-0.0781 0.0928,-0.0732 0.0977,-0.0781 0.0928,-0.0781 0.19531,-0.15625 0.0928,-0.0781 0.19531,-0.15625 0.0928,-0.0781 0.19531,-0.15625 0.0928,-0.0781 0.29297,-0.23438 0.0977,-0.083 0.0928,-0.0781 0.19531,-0.15625 0.0977,-0.083 0.0977,-0.0781 0.0928,-0.083 0.19532,-0.15625 0.0976,-0.083 0.0977,-0.0781 0.19531,-0.16601 0.0977,-0.0781 0.19531,-0.16601 0.0977,-0.0781 0.0976,-0.083 0.0928,-0.083 0.0976,-0.0781 0.29297,-0.24902 0.10254,-0.083 0.78125,-0.66406 0.10254,-0.083 0.0977,-0.083 0.0977,-0.0879 0.19531,-0.16601 0.0977,-0.0879 0.10254,-0.083 0.0977,-0.083 0.0976,-0.0879 0.0977,-0.083 0.10254,-0.0879 0.0977,-0.083 0.0977,-0.0879 0.0977,-0.083 0.10254,-0.0879 0.0977,-0.0879 0.0977,-0.083 0.10254,-0.0879 0.0976,-0.0879 0.10254,-0.083 0.19531,-0.17578 0.10254,-0.0879 0.0978,-0.0879 0.10254,-0.0879 0.19532,-0.17578 0.10253,-0.083 0.10254,-0.0928 0.0977,-0.0879 0.10254,-0.0879 0.0977,-0.0879 0.10253,-0.0879 0.0977,-0.0879 0.10254,-0.0879 0.0977,-0.0928 0.10253,-0.0879 0.0977,-0.0879 0.10254,-0.0879 0.10254,-0.0928 0.0977,-0.0879 0.10253,-0.0928 0.10254,-0.0879 0.0977,-0.0928 0.10254,-0.0879 0.10254,-0.0928 0.0976,-0.0879 0.10254,-0.0928 0.10254,-0.0879 0.10254,-0.0928 0.0977,-0.0928 0.10254,-0.0928 0.10254,-0.0879 0.0976,-0.0928 0.5127,-0.46386 0.0977,-0.0928 0.10254,-0.0879 0.10253,-0.0977 0.5127,-0.46387 0.10254,-0.0977 0.30762,-0.27832 0.10253,-0.0977 0.10254,-0.0928 0.10254,-0.0977 0.10253,-0.0928 0.10254,-0.0976 0.10254,-0.0928 0.10254,-0.0976 0.10253,-0.0928 0.20508,-0.19531 0.10254,-0.0928 0.20508,-0.19532 0.10742,-0.0928 0.41016,-0.39062 0.10742,-0.0977 0.30762,-0.29297 0.10743,-0.0976 0.30761,-0.29297 0.10743,-0.0977 0.10254,-0.0977 0.10253,-0.10254 0.10743,-0.0976 0.10254,-0.0977 0.10253,-0.10254 0.10743,-0.0977 0.10254,-0.0977 0.10742,-0.10254 0.10254,-0.0976 0.10742,-0.10254 0.10254,-0.0977 0.10254,-0.10254 0.10742,-0.0977 0.10254,-0.10253 0.10743,-0.10254 0.10253,-0.0977 0.10743,-0.10254 0.10254,-0.10254 0.10742,-0.10254 0.10254,-0.10254 0.10742,-0.0977 0.10743,-0.10254 0.10254,-0.10254 0.21484,-0.20508 0.10254,-0.10254 0.10742,-0.10254 0.10254,-0.10253 0.10742,-0.10254 0.20997,-0.20996 0.21484,-0.20508 0.10254,-0.10742 0.21484,-0.20508 0.20996,-0.20996 0.10742,-0.10254 0.10743,-0.10742 0.10743,-0.10254 0.4248,-0.42481 0.10742,-0.10254 0.21485,-0.21484 0.10742,-0.10254 0.10743,-0.10742 0.10254,-0.10742 1.07421,-1.07422 0.10743,-0.1123 0.21484,-0.21485 0.1123,-0.10742 0.10743,-0.1123 0.21484,-0.21485 0.10743,-0.1123 0.10742,-0.10742 0.10743,-0.1123 0.32715,-0.32715 0.21484,-0.22461 0.21973,-0.21972 0.21484,-0.22462 0.1123,-0.10742 0.32227,-0.33692 0.1123,-0.11229 0.21484,-0.22462 0.1123,-0.1123 0.10742,-0.1123 0.1123,-0.1123 0.10743,-0.11229 0.10742,-0.11719 0.1123,-0.1123 0.10743,-0.1123 0.1123,-0.1123 0.10742,-0.11719 0.10743,-0.1123 0.1123,-0.1123 0.1123,-0.11719 0.10742,-0.1123 0.1123,-0.11719 0.10743,-0.1123 0.1123,-0.11718 0.10742,-0.1123 0.1123,-0.11719 0.10743,-0.11719 0.1123,-0.11719 0.10743,-0.1123 0.2246,-0.23437 0.10743,-0.1123 0.1123,-0.12208 0.1123,-0.1123 0.10742,-0.11718 0.22461,-0.23438 0.10743,-0.11719 0.22461,-0.23437 0.1123,-0.12208 0.10742,-0.11718 0.33692,-0.35157 0.10742,-0.12207 0.1123,-0.11719 0.1123,-0.12207 0.22461,-0.23438 0.1123,-0.12207 0.1123,-0.11719 0.10743,-0.12208 0.1123,-0.11718 0.2246,-0.24414 0.1123,-0.11719 0.22461,-0.24414 0.1123,-0.11719 0.1123,-0.12695 0.1123,-0.11719 1.01075,-1.09863 0.1123,-0.12696 0.11718,-0.12207 0.1123,-0.12208 0.1123,-0.12695 0.22461,-0.24414 0.1123,-0.12695 0.11719,-0.12208 0.1123,-0.12207 0.1123,-0.12696 0.1123,-0.12207 0.11719,-0.12696 0.1123,-0.12695 0.1123,-0.12207 0.22461,-0.25391 0.11718,-0.12695 0.1123,-0.12208 0.1123,-0.12695 0.11719,-0.12695 0.1123,-0.12696 0.11719,-0.12695 0.22461,-0.25391 0.11718,-0.12695 0.1123,-0.12695 0.11719,-0.12696 0.22461,-0.2539 0.11719,-0.12696 0.1123,-0.13183 0.11719,-0.12695 0.1123,-0.12696 0.11718,-0.13183 0.1123,-0.12696 0.11719,-0.12695 0.1123,-0.13184 0.11719,-0.12695 0.1123,-0.13183 0.11719,-0.12696 0.11718,-0.13183 0.1123,-0.13184 0.11719,-0.12695 0.1123,-0.13184 0.11719,-0.13183 0.11719,-0.12696 0.11718,-0.13183 0.1123,-0.13184 0.11719,-0.13184 0.1123,-0.13183 0.35156,-0.39551 0.1123,-0.13183 0.35157,-0.39551 0.1123,-0.13672 0.35156,-0.39551 0.11719,-0.13672 0.23437,-0.26367 0.1123,-0.13672 0.11719,-0.13184 0.11719,-0.13671 0.11718,-0.13184 0.23438,-0.27344 0.11719,-0.13183 0.35156,-0.41016 0.11719,-0.13183 1.28906,-1.50391 0.12207,-0.1416 0.23438,-0.27344 0.11719,-0.1416 0.11718,-0.13672 0.12208,-0.13672 0.11719,-0.1416 0.11718,-0.13672 0.11719,-0.1416 0.11719,-0.13672 0.12207,-0.1416 0.11719,-0.1416 0.11719,-0.13672 0.12207,-0.1416 0.23438,-0.28321 0.12207,-0.13672 0.23438,-0.2832 0.12207,-0.1416 0.23438,-0.2832 0.12207,-0.14161 0.11719,-0.1416 0.12208,-0.1416 0.11718,-0.1416 0.11719,-0.14648 0.12208,-0.14161 0.11718,-0.1416"
       style="fill:none;stroke:#211e1e;stroke-width:0.99624997;stroke-linecap:round;stroke-linejoin:round;stroke-miterlimit:10;stroke-opacity:1"
       inkscape:connector-curvature="0" />
    <path
       id="path7"
       d="m 295.95934,194.71097 -0.12207,-0.1416 -0.11719,-0.14648 -0.12207,-0.13672 -0.11719,-0.14649 -0.11719,-0.1416 -0.12207,-0.13672 -0.11718,-0.1416 -0.12207,-0.1416 -0.23438,-0.2832 -0.12207,-0.1416 -0.11719,-0.14161 -0.11719,-0.13671 -0.11718,-0.14161 -0.12207,-0.1416 -0.11719,-0.13672 -0.11719,-0.1416 -0.11719,-0.13672 -0.12207,-0.1416 -0.11718,-0.13672 -0.11719,-0.1416 -0.23438,-0.27344 -0.11718,-0.1416 -0.12207,-0.13672 -0.11719,-0.13672 -0.11719,-0.1416 -0.46875,-0.54687 -0.12207,-0.13672 -0.70313,-0.82031 -0.11718,-0.13184 -0.23438,-0.27344 -0.11719,-0.13183 -0.1123,-0.13672 -0.11719,-0.13672 -0.11718,-0.13184 -0.11719,-0.13671 -0.11719,-0.13184 -0.11719,-0.13672 -0.11718,-0.13184 -0.11719,-0.13671 -0.11231,-0.13184 -0.23437,-0.26367 -0.11719,-0.13672 -0.23437,-0.26367 -0.11231,-0.13184 -0.23437,-0.26367 -0.11231,-0.13184 -0.35156,-0.3955 -0.1123,-0.13184 -0.23438,-0.26367 -0.1123,-0.13184 -0.11719,-0.12695 -0.11719,-0.13184 -0.1123,-0.13183 -0.11719,-0.12696 -0.11719,-0.13183 -0.11231,-0.13184 -0.11718,-0.12695 -0.11231,-0.13184 -0.11718,-0.12695 -0.11231,-0.13184 -0.11719,-0.12695 -0.1123,-0.12695 -0.11719,-0.12696 -0.1123,-0.13183 -0.11719,-0.12695 -0.1123,-0.12696 -0.11719,-0.12695 -0.11231,-0.12695 -0.11718,-0.13184 -0.22462,-0.25391 -0.11718,-0.12695 -0.11231,-0.12695 -0.11718,-0.12696 -0.22461,-0.2539 -0.11231,-0.12207 -0.11719,-0.12695 -0.2246,-0.25391 -0.11719,-0.12208 -0.22461,-0.2539 -0.11719,-0.12208 -0.1123,-0.12695 -0.11231,-0.12207 -0.1123,-0.12696 -0.11231,-0.12207 -0.1123,-0.12696 -0.11719,-0.12207 -0.1123,-0.12208 -0.1123,-0.12695 -0.33692,-0.36621 -0.11719,-0.12695 -1.01074,-1.09864 -0.1123,-0.11718 -0.33691,-0.36621 -0.1123,-0.11719 -0.1123,-0.12208 -0.10743,-0.12207 -0.1123,-0.11719 -0.1123,-0.12207 -0.1123,-0.11719 -0.1123,-0.12208 -0.1123,-0.11718 -0.1123,-0.12208 -0.1123,-0.11719 -0.10742,-0.11718 -0.1123,-0.12208 -0.33692,-0.35156 -0.10742,-0.12208 -0.22461,-0.23437 -0.10743,-0.11719 -0.33691,-0.35156 -0.10743,-0.11719 -0.22461,-0.23437 -0.10742,-0.1123 -0.1123,-0.11719 -0.10742,-0.11719 -0.22462,-0.23437 -0.10742,-0.1123 -0.1123,-0.11719 -0.10742,-0.1123 -0.1123,-0.11719 -0.10743,-0.11719 -0.1123,-0.1123 -0.10743,-0.11718 -0.1123,-0.1123 -0.10742,-0.1123 -0.1123,-0.11719 -0.10743,-0.1123 -0.1123,-0.1123 -0.10742,-0.11719 -0.1123,-0.1123 -0.21484,-0.22461 -0.1123,-0.1123 -0.10743,-0.11719 -0.1123,-0.1123 -0.21484,-0.2246 -0.1123,-0.10743 -0.32227,-0.33691 -0.1123,-0.1123 -0.21484,-0.22461 -0.1123,-0.10743 -0.21485,-0.2246 -0.10742,-0.10743 -0.10743,-0.1123 -0.21972,-0.21973 -0.10743,-0.1123 -0.21484,-0.21484 -0.10743,-0.1123 -0.54199,-0.54199 -0.10742,-0.1123 -1.07422,-1.07422 -0.10254,-0.10743 -0.1123,-0.10254 -0.10254,-0.10742 -0.21484,-0.21484 -0.10743,-0.10254 -0.21484,-0.21484 -0.10743,-0.10254 -0.10253,-0.10743 -0.10743,-0.10253 -0.10742,-0.10743 -0.10743,-0.10254 -0.10253,-0.10742 -0.21485,-0.20508 -0.20996,-0.20996 -0.21484,-0.20508 -0.10254,-0.10743 -0.21485,-0.20507 -0.10253,-0.10254 -0.21485,-0.20508 -0.10253,-0.10254 -0.21485,-0.20507 -0.10254,-0.10254 -0.10742,-0.10254 -0.10254,-0.10254 -0.10742,-0.0977 -0.10254,-0.10254 -0.10742,-0.10254 -0.10254,-0.0977 -0.10743,-0.10254 -0.10253,-0.10253 -0.10743,-0.0977 -0.10254,-0.10253 -0.10742,-0.10254 -0.10254,-0.0977 -0.10743,-0.10254 -0.20507,-0.19531 -0.10743,-0.10254 -0.20508,-0.19531 -0.10742,-0.10254 -0.20508,-0.19531 -0.10742,-0.0977 -0.10254,-0.10254 -0.10254,-0.0977 -0.10742,-0.0977 -0.30762,-0.29297 -0.10742,-0.0977 -0.30762,-0.29297 -0.10254,-0.0928 -0.10742,-0.0977 -0.20508,-0.19531 -0.10254,-0.0928 -0.30762,-0.29297 -0.10742,-0.0928 -0.10254,-0.0928 -0.0977,-0.0977 -0.10254,-0.0977 -0.10743,-0.0928 -0.10253,-0.0977 -0.20508,-0.18555 -0.10254,-0.0977 -0.30762,-0.27832 -0.0977,-0.0977 -0.82031,-0.74218 -0.0977,-0.0928 -0.30762,-0.27832 -0.10254,-0.0879 -0.10254,-0.0928 -0.0977,-0.0928 -0.10254,-0.0928 -0.10253,-0.0879 -0.0977,-0.0928 -0.10253,-0.0928 -0.10254,-0.0879 -0.0977,-0.0928 -0.10254,-0.0879 -0.10254,-0.0928 -0.10254,-0.0879 -0.0977,-0.0928 -0.10254,-0.0879 -0.10253,-0.0928 -0.0977,-0.0879 -0.10253,-0.0879 -0.0977,-0.0928 -0.10253,-0.0879 -0.0977,-0.0879 -0.10253,-0.0879 -0.0977,-0.0879 -0.10253,-0.0879 -0.0977,-0.0879 -0.10253,-0.0928 -0.10254,-0.0879 -0.0977,-0.0879"
       style="fill:none;stroke:#211e1e;stroke-width:0.99624997;stroke-linecap:round;stroke-linejoin:round;stroke-miterlimit:10;stroke-opacity:1"
       inkscape:connector-curvature="0" />
    <path
       id="path9"
       d="m 545.95934,194.71097 -0.12207,-0.1416 -0.11719,-0.14648 -0.12207,-0.13672 -0.11719,-0.14649 -0.11719,-0.1416 -0.12207,-0.13672 -0.11719,-0.1416 -0.12207,-0.1416 -0.23437,-0.2832 -0.12207,-0.1416 -0.11719,-0.14161 -0.11719,-0.13671 -0.11718,-0.14161 -0.12207,-0.1416 -0.11719,-0.13672 -0.11719,-0.1416 -0.11719,-0.13672 -0.12207,-0.1416 -0.11718,-0.13672 -0.11719,-0.1416 -0.23438,-0.27344 -0.11718,-0.1416 -0.12207,-0.13672 -0.11719,-0.13672 -0.11719,-0.1416 -0.46875,-0.54687 -0.12207,-0.13672 -0.70313,-0.82031 -0.11718,-0.13184 -0.23438,-0.27344 -0.11719,-0.13183 -0.1123,-0.13672 -0.11719,-0.13672 -0.11718,-0.13184 -0.11719,-0.13671 -0.11719,-0.13184 -0.11719,-0.13672 -0.11718,-0.13184 -0.11719,-0.13671 -0.11231,-0.13184 -0.23437,-0.26367 -0.11719,-0.13672 -0.23437,-0.26367 -0.11231,-0.13184 -0.23437,-0.26367 -0.11231,-0.13184 -0.35156,-0.3955 -0.11231,-0.13184 -0.23437,-0.26367 -0.11231,-0.13184 -0.11718,-0.12695 -0.11719,-0.13184 -0.11231,-0.13183 -0.11718,-0.12696 -0.11719,-0.13183 -0.11231,-0.13184 -0.11718,-0.12695 -0.11231,-0.13184 -0.11718,-0.12695 -0.11231,-0.13184 -0.11719,-0.12695 -0.1123,-0.12695 -0.11719,-0.12696 -0.1123,-0.13183 -0.11719,-0.12695 -0.11231,-0.12696 -0.11718,-0.12695 -0.11231,-0.12695 -0.11719,-0.13184 -0.22461,-0.25391 -0.11718,-0.12695 -0.11231,-0.12695 -0.11718,-0.12696 -0.22461,-0.2539 -0.11231,-0.12207 -0.11719,-0.12695 -0.22461,-0.25391 -0.11718,-0.12208 -0.22461,-0.2539 -0.11719,-0.12208 -0.1123,-0.12695 -0.11231,-0.12207 -0.1123,-0.12696 -0.11231,-0.12207 -0.1123,-0.12696 -0.11719,-0.12207 -0.11231,-0.12208 -0.1123,-0.12695 -0.33691,-0.36621 -0.11719,-0.12695 -1.01074,-1.09864 -0.1123,-0.11718 -0.33691,-0.36621 -0.1123,-0.11719 -0.1123,-0.12208 -0.10743,-0.12207 -0.1123,-0.11719 -0.1123,-0.12207 -0.1123,-0.11719 -0.1123,-0.12208 -0.1123,-0.11718 -0.1123,-0.12208 -0.1123,-0.11719 -0.10742,-0.11718 -0.1123,-0.12208 -0.33692,-0.35156 -0.10742,-0.12208 -0.22461,-0.23437 -0.10743,-0.11719 -0.33691,-0.35156 -0.10743,-0.11719 -0.22461,-0.23437 -0.10742,-0.1123 -0.1123,-0.11719 -0.10743,-0.11719 -0.22461,-0.23437 -0.10742,-0.1123 -0.1123,-0.11719 -0.10743,-0.1123 -0.1123,-0.11719 -0.10742,-0.11719 -0.1123,-0.1123 -0.10743,-0.11718 -0.1123,-0.1123 -0.10742,-0.1123 -0.1123,-0.11719 -0.10743,-0.1123 -0.1123,-0.1123 -0.10742,-0.11719 -0.1123,-0.1123 -0.21484,-0.22461 -0.1123,-0.1123 -0.10743,-0.11719 -0.1123,-0.1123 -0.21484,-0.2246 -0.1123,-0.10743 -0.32227,-0.33691 -0.1123,-0.1123 -0.21484,-0.22461 -0.1123,-0.10743 -0.21485,-0.2246 -0.10742,-0.10743 -0.10743,-0.1123 -0.21972,-0.21973 -0.10743,-0.1123 -0.21484,-0.21484 -0.10743,-0.1123 -0.54199,-0.54199 -0.10742,-0.1123 -1.07422,-1.07422 -0.10254,-0.10743 -0.1123,-0.10254 -0.10254,-0.10742 -0.21484,-0.21484 -0.10743,-0.10254 -0.21484,-0.21484 -0.10743,-0.10254 -0.10253,-0.10743 -0.10743,-0.10253 -0.10742,-0.10743 -0.10743,-0.10254 -0.10254,-0.10742 -0.21484,-0.20508 -0.20996,-0.20996 -0.21484,-0.20508 -0.10254,-0.10743 -0.21485,-0.20507 -0.10253,-0.10254 -0.21485,-0.20508 -0.10253,-0.10254 -0.21485,-0.20507 -0.10254,-0.10254 -0.10742,-0.10254 -0.10254,-0.10254 -0.10742,-0.0977 -0.10254,-0.10254 -0.10743,-0.10254 -0.10253,-0.0977 -0.10743,-0.10254 -0.10254,-0.10253 -0.10742,-0.0977 -0.10254,-0.10253 -0.10742,-0.10254 -0.10254,-0.0977 -0.10743,-0.10254 -0.20507,-0.19531 -0.10743,-0.10254 -0.20508,-0.19531 -0.10742,-0.10254 -0.20508,-0.19531 -0.10742,-0.0977 -0.10254,-0.10254 -0.10254,-0.0977 -0.10742,-0.0977 -0.30762,-0.29297 -0.10742,-0.0977 -0.30762,-0.29297 -0.10254,-0.0928 -0.10742,-0.0977 -0.20508,-0.19531 -0.10254,-0.0928 -0.30762,-0.29297 -0.10742,-0.0928 -0.10254,-0.0928 -0.0977,-0.0977 -0.10254,-0.0977 -0.10743,-0.0928 -0.10253,-0.0977 -0.20508,-0.18555 -0.10254,-0.0977 -0.30762,-0.27832 -0.0977,-0.0977 -0.82031,-0.74218 -0.0977,-0.0928 -0.30762,-0.27832 -0.10254,-0.0879 -0.10254,-0.0928 -0.0977,-0.0928 -0.10254,-0.0928 -0.10253,-0.0879 -0.0977,-0.0928 -0.10253,-0.0928 -0.10254,-0.0879 -0.0977,-0.0928 -0.10254,-0.0879 -0.10254,-0.0928 -0.10254,-0.0879 -0.0977,-0.0928 -0.10254,-0.0879 -0.10253,-0.0928 -0.0977,-0.0879 -0.10253,-0.0879 -0.0977,-0.0928 -0.10253,-0.0879 -0.0977,-0.0879 -0.10253,-0.0879 -0.0977,-0.0879 -0.10253,-0.0879 -0.0977,-0.0879 -0.10253,-0.0928 -0.10254,-0.0879 -0.19531,-0.17578 -0.10254,-0.0879 -0.0977,-0.083 -0.10254,-0.0879 -0.19531,-0.17579 -0.10254,-0.0879 -0.0977,-0.0879 -0.10254,-0.083 -0.19531,-0.17578 -0.10254,-0.083 -0.0977,-0.0879 -0.0977,-0.083 -0.10253,-0.0879 -0.0977,-0.0879 -0.19531,-0.16602 -0.10254,-0.0879 -0.0977,-0.083 -0.0977,-0.0879 -0.0977,-0.083 -0.10254,-0.083 -0.0977,-0.0879 -0.39063,-0.33203 -0.10254,-0.0879 -0.0977,-0.0781 -0.0977,-0.0879 -0.29297,-0.24902 -0.0977,-0.0781 -0.58594,-0.49804 -0.0977,-0.0781 -0.19531,-0.16601 -0.0977,-0.0781 -0.0977,-0.083 -0.0977,-0.0781 -0.19531,-0.16601 -0.0928,-0.0781 -0.0977,-0.083 -0.0977,-0.0781 -0.0977,-0.083 -0.29297,-0.23437 -0.0928,-0.083 -0.29297,-0.23437 -0.0977,-0.083 -0.0928,-0.0781 -0.19531,-0.15625 -0.0928,-0.0781 -0.19532,-0.15625 -0.0928,-0.0781 -0.19531,-0.15625 -0.0928,-0.0781 -0.19531,-0.15625 -0.0928,-0.0732 -0.0977,-0.0781 -0.0928,-0.0781 -0.0977,-0.0781 -0.0928,-0.0732 -0.0977,-0.0781 -0.0977,-0.0732 -0.0928,-0.0781 -0.0928,-0.0732 -0.0977,-0.0781 -0.0928,-0.0781 -0.0977,-0.0732 -0.0928,-0.0732 -0.0977,-0.0781 -0.0928,-0.0732 -0.0977,-0.0732 -0.0928,-0.0781 -0.0928,-0.0732 -0.0977,-0.0732 -0.0928,-0.0781 -0.0928,-0.0732 -0.0977,-0.0732 -0.0928,-0.0732 -0.0977,-0.0732 -0.18555,-0.14648 -0.0928,-0.0781 -0.0977,-0.0684 -0.0928,-0.0781 -0.0928,-0.0684 -0.0928,-0.0732 -0.0977,-0.0732 -0.27832,-0.21973 -0.0928,-0.0684 -0.0977,-0.0732 -0.0928,-0.0732 -0.0928,-0.0684 -0.27832,-0.21973 -0.0928,-0.0684 -0.0928,-0.0732 -0.0977,-0.0684 -0.0879,-0.0732 -0.0977,-0.0684 -0.0928,-0.0732 -0.18555,-0.13672 -0.0928,-0.0732 -0.18555,-0.13672 -0.0928,-0.0732 -0.0879,-0.0684 -0.37109,-0.27344 -0.0928,-0.0732 -0.0928,-0.0635 -0.0928,-0.0684 -0.0928,-0.0732 -0.0879,-0.0684 -0.0928,-0.0635 -0.0928,-0.0732 -0.0928,-0.0635 -0.18554,-0.13672 -0.0879,-0.0684 -0.0928,-0.0684 -0.0928,-0.0635 -0.0928,-0.0684 -0.0879,-0.0684 -0.0928,-0.0635 -0.0928,-0.0684 -0.0879,-0.0684 -0.0928,-0.0635 -0.0928,-0.0684 -0.0879,-0.0635 -0.0928,-0.0684 -0.0928,-0.0635 -0.0879,-0.0684 -0.0928,-0.0635 -0.0879,-0.0684 -0.18555,-0.12695 -0.0879,-0.0684 -0.0928,-0.0635 -0.0879,-0.0635 -0.0928,-0.0635 -0.0879,-0.0684 -0.0928,-0.0635 -0.0879,-0.0635 -0.0928,-0.0635 -0.0879,-0.0635 -0.0928,-0.0635 -0.17578,-0.12696 -0.0928,-0.0635 -0.0879,-0.0635 -0.0928,-0.0635 -0.17578,-0.12696 -0.0928,-0.0586 -0.17578,-0.12696 -0.0928,-0.0635 -0.0879,-0.0635 -0.0879,-0.0586 -0.0928,-0.0635 -0.0879,-0.0635 -0.0879,-0.0586 -0.0879,-0.0635 -0.0928,-0.0586 -0.17578,-0.12696 -0.0879,-0.0586 -0.0928,-0.0586 -0.0879,-0.0635 -0.0879,-0.0586 -0.0879,-0.0635 -0.17578,-0.11719 -0.0879,-0.0635 -0.0928,-0.0586 -0.083,-0.0586 -0.0928,-0.0586 -0.0879,-0.0635 -1.05469,-0.70312 -0.0879,-0.0537 -0.083,-0.0586 -0.26367,-0.17578 -0.0879,-0.0537 -0.0879,-0.0586 -0.083,-0.0586 -0.0879,-0.0537 -0.0879,-0.0586 -0.0879,-0.0537 -0.0879,-0.0586 -0.0879,-0.0537 -0.083,-0.0586 -0.0879,-0.0537 -0.0879,-0.0586 -0.083,-0.0537 -0.0879,-0.0586 -0.0879,-0.0537 -0.083,-0.0537 -0.0879,-0.0586 -0.0879,-0.0537 -0.083,-0.0537 -0.17578,-0.10742 -0.083,-0.0586 -0.17579,-0.10743 -0.083,-0.0537 -0.0879,-0.0537 -0.083,-0.0537 -0.0879,-0.0537 -0.083,-0.0537 -0.0879,-0.0537 -0.083,-0.0537 -0.0879,-0.0537 -0.083,-0.0537 -0.0879,-0.0488 -0.083,-0.0586 -0.0879,-0.0488 -0.083,-0.0537 -0.0879,-0.0537 -0.083,-0.0537 -0.083,-0.0488 -0.0879,-0.0537 -0.083,-0.0537 -0.0879,-0.0488 -0.083,-0.0537 -0.083,-0.0488 -0.0879,-0.0537 -0.083,-0.0488 -0.083,-0.0537 -0.083,-0.0488 -0.0879,-0.0537 -0.16601,-0.0977 -0.083,-0.0537 -0.0879,-0.0488 -0.083,-0.0488 -0.083,-0.0537 -0.083,-0.0488 -0.0879,-0.0488 -0.083,-0.0488 -0.083,-0.0537 -0.41504,-0.24414 -0.0879,-0.0488 -0.58105,-0.34179 -0.083,-0.0439 -0.33204,-0.19532 -0.083,-0.0439 -0.0781,-0.0488 -0.0879,-0.0488 -0.0781,-0.0439 -0.083,-0.0488 -0.083,-0.0439 -0.083,-0.0488 -0.083,-0.0439 -0.083,-0.0488 -0.083,-0.0439 -0.0781,-0.0488 -0.083,-0.0439 -0.083,-0.0488 -0.083,-0.0439 -0.0781,-0.0439 -0.083,-0.0488 -0.16602,-0.0879 -0.0781,-0.0488 -0.24902,-0.13183 -0.0781,-0.0439 -0.083,-0.0439 -0.0781,-0.0439 -0.083,-0.0488 -0.083,-0.0439 -0.0781,-0.0391 -0.083,-0.0439 -0.0781,-0.0488 -0.083,-0.0439 -0.083,-0.0391 -0.0781,-0.044 -0.083,-0.0439 -0.0781,-0.0439 -0.083,-0.0439 -0.0781,-0.0439 -0.083,-0.0439 -0.0781,-0.0391 -0.083,-0.0439 -0.0781,-0.044 -0.083,-0.0391 -0.15625,-0.0879 -0.083,-0.0391 -0.0781,-0.0439 -0.083,-0.0391 -0.0781,-0.044 -0.0781,-0.0391 -0.083,-0.044 -0.0781,-0.0391 -0.0781,-0.0439 -0.083,-0.0391 -0.0781,-0.0439 -0.15625,-0.0781 -0.083,-0.0391 -0.0781,-0.0439 -0.15625,-0.0781 -0.083,-0.0391 -0.0781,-0.0439 -0.15625,-0.0781 -0.083,-0.0391 -0.70313,-0.35156 -0.083,-0.0391 -0.0732,-0.0391 -0.083,-0.0342 -0.0732,-0.0391 -0.083,-0.0391 -0.0732,-0.0391 -0.083,-0.0391 -0.0732,-0.0342 -0.15625,-0.0781 -0.0781,-0.0342 -0.0781,-0.0391 -0.0781,-0.0342 -0.15625,-0.0781 -0.0781,-0.0342 -0.0781,-0.0391 -0.0732,-0.0342 -0.0781,-0.0342 -0.0781,-0.0391 -0.0781,-0.0342 -0.0781,-0.0391 -0.0781,-0.0342 -0.0732,-0.0342 -0.0781,-0.0391 -0.15625,-0.0684 -0.0732,-0.0342 -0.0781,-0.0391 -0.15625,-0.0684 -0.0732,-0.0342 -0.0781,-0.0342 -0.0732,-0.0342 -0.15625,-0.0684 -0.0732,-0.0342 -0.0781,-0.0342 -0.0732,-0.0342 -0.15625,-0.0684 -0.0732,-0.0342 -0.0781,-0.0342 -0.0732,-0.0342 -0.0781,-0.0342 -0.0732,-0.0293 -0.0781,-0.0342 -0.0732,-0.0342 -0.0781,-0.0342 -0.0732,-0.0342 -0.0781,-0.0293 -0.0732,-0.0342 -0.0781,-0.0342 -0.0732,-0.0293 -0.0732,-0.0342 -0.0781,-0.0293 -0.0732,-0.0342 -0.0781,-0.0293 -0.0732,-0.0342 -0.0732,-0.0293 -0.0781,-0.0342 -0.0732,-0.0293 -0.0732,-0.0342 -0.0732,-0.0293 -0.0781,-0.0342 -0.14648,-0.0586 -0.0781,-0.0342 -0.21972,-0.0879 -0.0781,-0.0293 -0.0732,-0.0342 -0.36621,-0.14648 -0.0781,-0.0293 -0.73242,-0.29297 -0.0732,-0.0244 -0.29297,-0.11719 -0.0732,-0.0244 -0.0732,-0.0293 -0.0732,-0.0244 -0.0732,-0.0293 -0.0684,-0.0293 -0.0732,-0.0244 -0.0732,-0.0293 -0.0732,-0.0244 -0.14649,-0.0586 -0.0684,-0.0244 -0.0732,-0.0244 -0.0732,-0.0293 -0.14648,-0.0488 -0.0684,-0.0293 -0.0732,-0.0244 -0.0732,-0.0293 -0.0684,-0.0244 -0.14648,-0.0488 -0.0684,-0.0293 -0.21972,-0.0732 -0.0684,-0.0244 -0.0732,-0.0244 -0.0684,-0.0293 -0.0732,-0.0244 -0.0684,-0.0244 -0.14648,-0.0488 -0.0684,-0.0244 -0.0732,-0.0244 -0.0684,-0.0244 -0.0732,-0.0244 -0.0684,-0.0244 -0.0732,-0.0195 -0.0684,-0.0244 -0.0732,-0.0244 -0.0684,-0.0244 -0.0732,-0.0244 -0.0684,-0.0244 -0.0684,-0.0195 -0.0732,-0.0244 -0.0684,-0.0244 -0.0732,-0.0195 -0.13672,-0.0488 -0.0732,-0.0195 -0.13672,-0.0488 -0.0732,-0.0195 -0.0684,-0.0195 -0.0684,-0.0244 -0.0732,-0.0244 -0.13672,-0.0391 -0.0684,-0.0244 -0.0684,-0.0195 -0.0732,-0.0244 -0.13672,-0.0391 -0.0684,-0.0244 -0.0684,-0.0195 -0.0732,-0.0195 -0.0684,-0.0244 -0.27344,-0.0781 -0.0684,-0.0244 -0.95703,-0.27343 -0.0684,-0.0146 -0.27343,-0.0781 -0.0635,-0.0146 -0.13672,-0.0391 -0.0684,-0.0146 -0.0684,-0.0195 -0.0635,-0.0195 -0.0684,-0.0146 -0.13672,-0.0391 -0.0635,-0.0146 -0.0684,-0.0195 -0.0684,-0.0147 -0.0635,-0.0195 -0.0684,-0.0147 -0.0684,-0.0195 -0.0635,-0.0146 -0.0684,-0.0146 -0.0684,-0.0195 -0.0635,-0.0147 -0.0684,-0.0146 -0.0684,-0.0195 -0.0635,-0.0146 -0.0684,-0.0146 -0.0635,-0.0195 -0.0684,-0.0147 -0.0635,-0.0147 -0.0684,-0.0147 -0.0684,-0.0195 -0.12696,-0.0293 -0.13672,-0.0293 -0.12695,-0.0293 -0.0684,-0.0147 -0.0635,-0.0147 -0.0684,-0.0147 -0.12695,-0.0293 -0.0684,-0.0147 -0.12695,-0.0293 -0.0684,-0.0147 -0.0635,-0.0147 -0.0684,-0.0147 -0.0635,-0.01 -0.12696,-0.0293 -0.0684,-0.0146 -0.0635,-0.01 -0.12695,-0.0293 -0.0684,-0.0147 -0.0635,-0.01 -0.12695,-0.0293 -0.0635,-0.01 -0.0684,-0.0147 -0.0635,-0.01 -0.0635,-0.0147 -0.0635,-0.01 -0.0635,-0.0147 -0.0635,-0.01 -0.0635,-0.0147 -0.0635,-0.01 -0.0635,-0.0147 -0.12695,-0.0195 -0.0684,-0.0147 -0.0635,-0.01 -0.0635,-0.0147 -0.0586,-0.01 -0.0635,-0.01 -0.0684,-0.0147 -0.0586,-0.01 -0.19043,-0.0293 -0.0635,-0.0147 -0.31738,-0.0488 -0.0586,-0.01 -0.25391,-0.0391 -0.0586,-0.01 -0.19043,-0.0293 -0.0586,-0.01 -0.12695,-0.0195 -0.0586,-0.005 -0.19043,-0.0293 -0.0586,-0.01 -0.0635,-0.005 -0.0586,-0.01 -0.0635,-0.01 -0.0635,-0.005 -0.0586,-0.01 -0.0635,-0.01 -0.0586,-0.005 -0.12695,-0.0195 -0.0586,-0.005 -0.0586,-0.01 -0.0635,-0.005 -0.0586,-0.01 -0.0635,-0.005 -0.0635,-0.01 -0.0586,-0.005 -0.0586,-0.01 -0.0635,-0.005 -0.0586,-0.01 -0.0635,-0.005 -0.0586,-0.005 -0.0586,-0.01 -0.0635,-0.005 -0.11719,-0.01 -0.0635,-0.01 -0.11718,-0.01 -0.0635,-0.01 -0.17578,-0.0146 -0.0635,-0.005 -0.11718,-0.01 -0.0635,-0.005 -0.0586,-0.01 -0.17578,-0.0147 -0.0635,-0.005 -0.0586,-0.005 -0.0586,0 -0.46875,-0.0391 -0.0586,0 -0.11719,-0.01 -0.0635,-0.005 -0.0537,0 -0.11719,-0.01 -0.0586,0 -0.11719,-0.01 -0.0586,0 -0.11719,-0.01 -0.0586,0 -0.0586,-0.005 -0.0537,0 -0.0586,-0.005 -0.0586,0 -0.0586,-0.005 -0.0586,0 -0.0586,-0.005 -0.1123,0 -0.0586,-0.005 -0.1123,0 -0.0586,-0.005 -0.1123,0 -0.0586,-0.005 -0.1709,0 -0.0586,-0.005 -0.2832,0 -0.0537,-0.005 -0.67382,0 -0.0537,0.005 -0.27832,0 -0.0586,0.005 -0.16602,0 -0.0537,0.005 -0.10743,0 -0.0586,0.005 -0.10743,0 -0.0537,0.005 -0.1123,0 -0.0537,0.005 -0.0537,0 -0.0537,0.005 -0.0537,0 -0.0586,0.005 -0.0537,0 -0.0537,0.005 -0.0537,0 -0.0537,0.005 -0.0537,0 -0.10743,0.01 -0.0537,0 -0.10742,0.01 -0.0537,0 -0.10742,0.01 -0.0537,0 -0.21485,0.0195 -0.0537,0 -0.0488,0.005 -0.32226,0.0293 -0.0488,0 -0.16113,0.0146 -0.0488,0.005 -0.0537,0.01 -0.10742,0.01 -0.0488,0.005 -0.10742,0.01 -0.0488,0.005 -0.10742,0.01 -0.0488,0.005 -0.0537,0.01 -0.0537,0.005 -0.0488,0.005 -0.0537,0.005 -0.0488,0.005 -0.0537,0.01 -0.0537,0.005 -0.0488,0.005 -0.0537,0.005 -0.0488,0.01 -0.0537,0.005 -0.0488,0.01 -0.0537,0.005 -0.0488,0.005 -0.0537,0.01 -0.0488,0.005 -0.0537,0.01 -0.0488,0.005 -0.0488,0.01 -0.0537,0.005 -0.0488,0.01 -0.0537,0.005 -0.0488,0.01 -0.0488,0.005 -0.0537,0.01 -0.0488,0.005 -0.0488,0.01 -0.0537,0.005 -0.0977,0.0195 -0.0537,0.01 -0.0488,0.005 -0.0488,0.01 -0.0488,0.005 -0.0537,0.01 -0.0977,0.0195 -0.0488,0.005 -0.0977,0.0195 -0.0537,0.01 -0.0488,0.005 -0.0488,0.0147 -0.0488,0.005 -0.29297,0.0586 -0.0537,0.01 -0.24414,0.0488 -0.0439,0.01 -0.3418,0.0684 -0.0488,0.0147 -0.0488,0.01 -0.0439,0.01 -0.0488,0.01 -0.0488,0.0147 -0.0977,0.0195 -0.0439,0.01 -0.0488,0.01 -0.0488,0.0147 -0.0488,0.01 -0.0439,0.01 -0.0488,0.0147 -0.0488,0.01 -0.0488,0.0147 -0.0439,0.01 -0.0488,0.01 -0.0488,0.0147 -0.0439,0.01 -0.0488,0.0147 -0.0488,0.01 -0.0439,0.01 -0.0488,0.0146 -0.0439,0.0147 -0.0977,0.0195 -0.0439,0.0146 -0.0488,0.0147 -0.0439,0.01 -0.0488,0.0147 -0.044,0.01 -0.0488,0.0147 -0.0439,0.0147 -0.0488,0.01 -0.0439,0.0147 -0.0488,0.0147 -0.0439,0.01 -0.0439,0.0147 -0.0488,0.0147 -0.0439,0.01 -0.0488,0.0147 -0.0879,0.0293 -0.0488,0.0147 -0.0439,0.01 -0.0439,0.0147 -0.0488,0.0147 -0.0879,0.0293 -0.0488,0.01 -0.13184,0.0439 -0.0488,0.0147 -0.17578,0.0586 -0.0488,0.0147 -0.26367,0.0879 -0.0488,0.0147 -0.0391,0.0146 -0.0488,0.0146 -0.0439,0.0195 -0.26367,0.0879 -0.044,0.0195 -0.0879,0.0293 -0.0439,0.0195 -0.0391,0.0147 -0.0879,0.0293 -0.044,0.0195 -0.0879,0.0293 -0.0439,0.0195 -0.0439,0.0146 -0.0391,0.0147 -0.0439,0.0195 -0.0439,0.0147 -0.0439,0.0195 -0.0439,0.0147 -0.0391,0.0195 -0.0439,0.0146 -0.0439,0.0195 -0.0439,0.0146 -0.0391,0.0147 -0.0879,0.0391 -0.0391,0.0147 -0.0439,0.0195 -0.0439,0.0146 -0.0391,0.0195 -0.0439,0.0146 -0.0439,0.0195 -0.0391,0.0146 -0.0439,0.0195 -0.0391,0.0195 -0.0439,0.0146 -0.0439,0.0195 -0.0391,0.0195 -0.0439,0.0146 -0.0391,0.0195 -0.0439,0.0195 -0.0391,0.0195 -0.0439,0.0146 -0.0391,0.0195 -0.0439,0.0195 -0.0391,0.0195 -0.0439,0.0146 -0.0391,0.0195 -0.0439,0.0195 -0.0781,0.0391 -0.0439,0.0195 -0.0391,0.0146 -0.0391,0.0195 -0.0439,0.0195 -0.0391,0.0195 -0.0439,0.0195 -0.11718,0.0586 -0.0439,0.0195 -0.11719,0.0586 -0.0439,0.0195 -0.15625,0.0781 -0.0439,0.0195 -0.0391,0.0195 -0.0391,0.0244 -0.19531,0.0977 -0.044,0.0195 -0.0391,0.0195 -0.0391,0.0244 -0.11719,0.0586 -0.0391,0.0244 -0.11719,0.0586 -0.0391,0.0244 -0.0781,0.0391 -0.0391,0.0244 -0.0342,0.0195 -0.0391,0.0195 -0.0391,0.0244 -0.0391,0.0195 -0.0391,0.0244 -0.0781,0.0391 -0.0391,0.0244 -0.0342,0.0195 -0.0391,0.0244 -0.0391,0.0195 -0.0391,0.0244 -0.0342,0.0195 -0.0391,0.0244 -0.0391,0.0195 -0.0342,0.0244 -0.0391,0.0195 -0.0391,0.0244 -0.0391,0.0195 -0.0342,0.0244 -0.0391,0.0195 -0.0391,0.0244 -0.0342,0.0244 -0.0391,0.0195 -0.0391,0.0244 -0.0342,0.0195 -0.0391,0.0244 -0.0342,0.0244 -0.0391,0.0195 -0.0342,0.0244 -0.0781,0.0488 -0.0342,0.0195 -0.0391,0.0244 -0.0342,0.0244 -0.0391,0.0195 -0.0342,0.0244 -0.0391,0.0244 -0.0342,0.0244 -0.0342,0.0195 -0.0391,0.0244 -0.0342,0.0244 -0.0391,0.0244 -0.0342,0.0244 -0.0391,0.0244 -0.0342,0.0244 -0.0342,0.0195 -0.0391,0.0244 -0.0684,0.0488 -0.0391,0.0244 -0.10254,0.0732 -0.0391,0.0244 -0.0684,0.0488 -0.0391,0.0244 -0.17089,0.12208 -0.0391,0.0244 -0.20507,0.14648 -0.0342,0.0293 -0.0342,0.0244 -0.0391,0.0244 -0.10253,0.0732 -0.0342,0.0293 -0.0684,0.0488 -0.0293,0.0244 -0.0342,0.0244 -0.0342,0.0293 -0.10254,0.0732 -0.0342,0.0293 -0.0684,0.0488 -0.0342,0.0293 -0.0342,0.0244 -0.0293,0.0244 -0.0342,0.0293 -0.0684,0.0488 -0.0342,0.0293 -0.0293,0.0244 -0.0342,0.0244 -0.0342,0.0293 -0.0342,0.0244 -0.0293,0.0293 -0.0342,0.0244 -0.0342,0.0293 -0.0293,0.0244 -0.0342,0.0293 -0.0342,0.0244 -0.0293,0.0293 -0.0342,0.0244 -0.0342,0.0293 -0.0293,0.0244 -0.0342,0.0293 -0.0342,0.0244 -0.0293,0.0293 -0.0342,0.0244 -0.0293,0.0293 -0.0342,0.0244 -0.0293,0.0293 -0.0342,0.0293 -0.0293,0.0244 -0.0342,0.0293 -0.0293,0.0244 -0.0342,0.0293 -0.0293,0.0293 -0.0342,0.0244 -0.0293,0.0293 -0.0342,0.0293 -0.0293,0.0244 -0.0293,0.0293 -0.0342,0.0293 -0.0293,0.0244 -0.0342,0.0293 -0.0586,0.0586 -0.0342,0.0244 -0.0586,0.0586 -0.0342,0.0293 -0.0293,0.0244 -0.0586,0.0586 -0.0342,0.0293 -0.0879,0.0879 -0.0342,0.0244 -0.17578,0.17578 -0.0342,0.0293 -0.0293,0.0293 -0.0293,0.0244 -0.35157,0.35156 -0.0293,0.0342 -0.0293,0.0244 -0.0293,0.0342 -0.0586,0.0586 -0.0244,0.0293 -0.14648,0.14649 -0.0293,0.0342 -0.0244,0.0293 -0.0879,0.0879 -0.0244,0.0293 -0.0293,0.0342 -0.0586,0.0586 -0.0244,0.0293 -0.0293,0.0342 -0.0293,0.0293 -0.0244,0.0293 -0.0293,0.0293 -0.0293,0.0342 -0.0244,0.0293 -0.0586,0.0586 -0.0244,0.0342 -0.0293,0.0293 -0.0244,0.0293 -0.0293,0.0342 -0.0244,0.0293 -0.0293,0.0293 -0.0244,0.0342 -0.0293,0.0293 -0.0244,0.0293 -0.0293,0.0342 -0.0244,0.0293 -0.0293,0.0342 -0.0244,0.0293 -0.0293,0.0293 -0.0244,0.0342 -0.0293,0.0293 -0.0244,0.0342 -0.0244,0.0293 -0.0293,0.0342 -0.0488,0.0586 -0.0293,0.0342 -0.0244,0.0342 -0.0244,0.0293 -0.0293,0.0342 -0.0488,0.0586 -0.0293,0.0342 -0.0244,0.0293 -0.0488,0.0684 -0.0293,0.0293 -0.0244,0.0342 -0.0244,0.0293 -0.0488,0.0684 -0.0244,0.0293 -0.0293,0.0342 -0.0244,0.0293 -0.0488,0.0684 -0.0244,0.0293 -0.0488,0.0684 -0.0244,0.0293 -0.0293,0.0342 -0.0195,0.0293 -0.0293,0.0342 -0.0244,0.0342 -0.0195,0.0293 -0.0293,0.0342 -0.0195,0.0342 -0.0293,0.0342 -0.0195,0.0293 -0.0732,0.10254 -0.0244,0.0293 -0.0732,0.10254 -0.0244,0.0293 -0.0195,0.0342 -0.0488,0.0684 -0.0244,0.0293 -0.0488,0.0684 -0.0195,0.0342 -0.0488,0.0684 -0.0244,0.0293 -0.0195,0.0342 -0.0488,0.0684 -0.0195,0.0342 -0.0732,0.10254 -0.0195,0.0342 -0.0488,0.0684 -0.0195,0.0293 -0.0244,0.0342 -0.0195,0.0342 -0.0244,0.0342 -0.0195,0.0342 -0.0488,0.0684 -0.0195,0.0342 -0.0244,0.0342 -0.0195,0.0342 -0.0244,0.0342 -0.0391,0.0684 -0.0244,0.0342 -0.0195,0.0342 -0.0244,0.0342 -0.0195,0.0342 -0.0244,0.0342 -0.0391,0.0684 -0.0244,0.0342 -0.0195,0.0342 -0.0244,0.0391 -0.0391,0.0684 -0.0244,0.0342 -0.0586,0.10253 -0.0244,0.0342 -0.0195,0.0342 -0.0195,0.0391 -0.0244,0.0342 -0.0781,0.13672 -0.0244,0.0391 -0.0195,0.0293 -0.0195,0.0391 -0.0586,0.10253 -0.0195,0.0391 -0.0195,0.0342 -0.0244,0.0342 -0.0195,0.0342 -0.0147,0.0391 -0.0244,0.0342 -0.0586,0.10254 -0.0195,0.0391 -0.0391,0.0684 -0.0147,0.0391 -0.0244,0.0342 -0.0147,0.0342 -0.0195,0.0342 -0.0195,0.0391 -0.0391,0.0684 -0.0195,0.0391 -0.0391,0.0684 -0.0147,0.0391 -0.0391,0.0684 -0.0195,0.0391 -0.0391,0.0684 -0.0146,0.0391 -0.0195,0.0342 -0.0195,0.0391 -0.0147,0.0342 -0.0195,0.0391 -0.0391,0.0684 -0.0146,0.0391 -0.0391,0.0684 -0.0147,0.0391 -0.0195,0.0342 -0.0147,0.0391 -0.0195,0.0342 -0.0195,0.0391 -0.0147,0.0342 -0.0195,0.0391 -0.0147,0.0342 -0.0195,0.0391 -0.0195,0.0342 -0.0147,0.0391 -0.0195,0.0342 -0.0147,0.0342 -0.0195,0.0391 -0.0146,0.0391 -0.0195,0.0342 -0.0147,0.0391 -0.0147,0.0342 -0.0195,0.0391 -0.0146,0.0342 -0.0195,0.0391 -0.0146,0.0342 -0.0195,0.0391 -0.0147,0.0342 -0.0147,0.0391 -0.0195,0.0391 -0.0146,0.0342 -0.0147,0.0391 -0.0195,0.0342 -0.0147,0.0391 -0.0146,0.0342 -0.0195,0.0391 -0.0146,0.0391 -0.0147,0.0342 -0.0147,0.0391 -0.0146,0.0342 -0.0195,0.0391 -0.0147,0.0391 -0.0147,0.0342 -0.0146,0.0391 -0.0147,0.0342 -0.0195,0.0391 -0.0147,0.0391 -0.0146,0.0342 -0.0293,0.0781 -0.0146,0.0342 -0.0293,0.0781 -0.0147,0.0342 -0.0146,0.0391 -0.0195,0.0391 -0.0147,0.0342 -0.0147,0.0391 -0.01,0.0391 -0.0195,0.0342 -0.0147,0.0391 -0.01,0.0391 -0.0195,0.0391 -0.01,0.0342 -0.0439,0.11718 -0.0146,0.0342 -0.044,0.11719 -0.0146,0.0342 -0.01,0.0391 -0.0293,0.0781 -0.0146,0.0342 -0.0147,0.0391 -0.01,0.0391 -0.0293,0.0781 -0.0146,0.0342 -0.01,0.0391 -0.0293,0.0781 -0.01,0.0342 -0.0293,0.0781 -0.01,0.0391 -0.0293,0.0781 -0.01,0.0391 -0.0146,0.0342 -0.0147,0.0391 -0.01,0.0391 -0.0147,0.0391 -0.01,0.0391 -0.0147,0.0342 -0.0146,0.0391 -0.0195,0.0781 -0.0293,0.0781 -0.0195,0.0781 -0.0147,0.0342 -0.01,0.0391 -0.0147,0.0391 -0.01,0.0391 -0.0147,0.0391 -0.0195,0.0781 -0.0147,0.0391 -0.0195,0.0781 -0.0146,0.0342 -0.0195,0.0781 -0.0147,0.0391 -0.0195,0.0781 -0.0146,0.0391 -0.0293,0.11719 -0.0147,0.0391 -0.0488,0.19531 -0.0147,0.0391 -0.21484,0.85937 -0.005,0.0391 -0.0488,0.19532 -0.005,0.0391 -0.01,0.0391 -0.01,0.0439 -0.01,0.0342 -0.01,0.0439 -0.005,0.0391 -0.0195,0.0781 -0.005,0.0391 -0.0195,0.0781 -0.005,0.0391 -0.0195,0.0781 -0.005,0.044 -0.01,0.0342 -0.01,0.0439 -0.005,0.0391 -0.01,0.0391 -0.005,0.0391 -0.01,0.0391 -0.005,0.0391 -0.01,0.0391 -0.01,0.0439 -0.005,0.0342 -0.01,0.0439 -0.01,0.0781 -0.0195,0.0781 -0.005,0.0391 -0.005,0.0439 -0.01,0.0391 -0.01,0.0781 -0.01,0.0391 -0.005,0.0391 -0.01,0.0391 -0.005,0.0391 -0.005,0.0439 -0.01,0.0391 -0.0146,0.11718 -0.01,0.0439 -0.01,0.0781 -0.01,0.0391 -0.0147,0.11719 -0.005,0.0439 -0.005,0.0391 -0.01,0.0391 -0.01,0.0781 -0.005,0.044 -0.0195,0.15625 -0.01,0.0439 -0.0244,0.19531 -0.005,0.0439 -0.0195,0.15625 0,0.0439 -0.005,0.0391 -0.01,0.0391 0,0.0391 -0.005,0.0391 -0.005,0.0439 -0.0147,0.11719 0,0.0439 -0.0195,0.15625 0,0.044 -0.0147,0.11719 -0.005,0.0439 0,0.0391 -0.01,0.0781 0,0.044 -0.01,0.0781 0,0.0391 -0.005,0.0391 0,0.0439 -0.01,0.0781 0,0.0391 -0.005,0.0439 0,0.0391 -0.005,0.0391 0,0.0391 -0.005,0.0439 0,0.0391 -0.005,0.0391 0,0.0391 -0.005,0.0439 0,0.0391 -0.005,0.0391 0,0.0391 -0.005,0.0439 0,0.0781 -0.005,0.0439 0,0.0391 -0.005,0.0391 0,0.083 -0.005,0.0391 0,0.12207 -0.005,0.0391 0,0.0781 -0.005,0.0439 0,0.11719 -0.005,0.044 0,0.20019 -0.005,0.0391 0,0.80566 0.005,0.0439 0,0.2002 0.005,0.0391 0,0.16113 0.005,0.0391 0,0.083 0.005,0.0391 0,0.083 0.005,0.0391 0,0.083 0.005,0.0391 0,0.0781 0.005,0.0439 0,0.0391 0.005,0.0391 0,0.083 0.005,0.0391 0,0.0391 0.005,0.0391 0,0.0439 0.005,0.0391 0,0.0391 0.005,0.0391 0,0.0439 0.01,0.0781 0,0.0391 0.005,0.044 0,0.0391 0.01,0.0781 0,0.0391 0.005,0.0439 0.005,0.0391 0,0.0391 0.005,0.0391 0.005,0.0439 0,0.0391 0.01,0.0781 0,0.044 0.0147,0.11719 0.005,0.0439 0,0.0391 0.0146,0.11719 0.005,0.0439 0.005,0.0391 0,0.0391 0.01,0.0781 0.005,0.0439 0.0147,0.11718 0.005,0.0439 0.0195,0.15625 0.005,0.0439 0.0195,0.15625 0.005,0.0439 0.0146,0.11719 0.01,0.0391 0.005,0.0391 0.005,0.0439 0.0147,0.11718 0.01,0.0391 0.005,0.0439 0.0147,0.11718 0.01,0.0391 0.005,0.0391 0.005,0.0439 0.01,0.0391 0.01,0.0781 0.01,0.0391 0.01,0.0781 0.01,0.0439 0.01,0.0781 0.01,0.0391 0.005,0.0391 0.01,0.0391 0.005,0.044 0.01,0.0342 0.005,0.0439 0.01,0.0391 0.01,0.0781 0.01,0.0391 0.005,0.0391 0.0195,0.0781 0.005,0.044 0.01,0.0391 0.005,0.0391 0.01,0.0391 0.005,0.0391 0.0195,0.0781 0.005,0.0391 0.01,0.0391 0.01,0.0439 0.005,0.0391 0.0195,0.0781 0.005,0.0391 0.0293,0.11719 0.005,0.0391 0.0391,0.15625 0.005,0.0439 0.01,0.0391 0.01,0.0342 0.01,0.0439 0.0195,0.0781 0.005,0.0391 0.0147,0.0391 0.005,0.0391 0.13672,0.54687 0.0147,0.0391 0.0684,0.27343 0.0147,0.0391 0.0293,0.11718 0.0147,0.0391 0.0195,0.0781 0.01,0.0342 0.0146,0.0391 0.0293,0.11719 0.0146,0.0391 0.01,0.0391 0.0147,0.0391 0.0195,0.0781 0.0146,0.0391 0.01,0.0391 0.01,0.0342 0.0147,0.0391 0.01,0.0391 0.0147,0.0391 0.01,0.0391 0.0147,0.0391 0.01,0.0391 0.0146,0.0391 0.01,0.0342 0.0147,0.0391 0.01,0.0391 0.0147,0.0391 0.01,0.0391 0.0293,0.0781 0.01,0.0342 0.0147,0.0391 0.01,0.0391 0.0293,0.0781 0.01,0.0391 0.0147,0.0391 0.0147,0.0342 0.01,0.0391 0.0293,0.0781 0.0147,0.0342 0.01,0.0391 0.0439,0.11718 0.01,0.0342 0.0439,0.11719 0.0147,0.0342 0.01,0.0391 0.0439,0.11719 0.0147,0.0342 0.0293,0.0781 0.0147,0.0342 0.0439,0.11718 0.01,0.0342 0.0147,0.0391 0.0195,0.0391 0.01,0.0342 0.0146,0.0391 0.0195,0.0391 0.0147,0.0342 0.0293,0.0781 0.0147,0.0342 0.0293,0.0781 0.0147,0.0342 0.0293,0.0781 0.0146,0.0342 0.0195,0.0391 0.0147,0.0391 0.0146,0.0342 0.0147,0.0391 0.0195,0.0342 0.0293,0.0781 0.0147,0.0342 0.0146,0.0391 0.0195,0.0391 0.0147,0.0342 0.0147,0.0391 0.0195,0.0342 0.0146,0.0391 0.0147,0.0342 0.0195,0.0391 0.0147,0.0391 0.0146,0.0342 0.0195,0.0391 0.0146,0.0342 0.0195,0.0391 0.0147,0.0342 0.0195,0.0391 0.0147,0.0342 0.0146,0.0391 0.0195,0.0342 0.0147,0.0391 0.0195,0.0342 0.0147,0.0391 0.0195,0.0342 0.0147,0.0391 0.0195,0.0342 0.0147,0.0391 0.0195,0.0342 0.0195,0.0391 0.0147,0.0342 0.0195,0.0391 0.0147,0.0342 0.0195,0.0342 0.0146,0.0391 0.0195,0.0342 0.0195,0.0391 0.0146,0.0342 0.0195,0.0342 0.0195,0.0391 0.0195,0.0342 0.0147,0.0391 0.0195,0.0342 0.0195,0.0391 0.0195,0.0342 0.0147,0.0342 0.0195,0.0391 0.0391,0.0684 0.0147,0.0391 0.0391,0.0684 0.0195,0.0391 0.0195,0.0342 0.0195,0.0391 0.0195,0.0342 0.0147,0.0342 0.0195,0.0342 0.0195,0.0391 0.0586,0.10253 0.0195,0.0391 0.0391,0.0684 0.0195,0.0391 0.0586,0.10254 0.0195,0.0391 0.0781,0.13672 0.0244,0.0391 0.0781,0.13672 0.0195,0.0391 0.0244,0.0342 0.0781,0.13672 0.0244,0.0391 0.0586,0.10254 0.0244,0.0342 0.0391,0.0684 0.0244,0.0342 0.0195,0.0342 0.0195,0.0391 0.0244,0.0293 0.0195,0.0391 0.0195,0.0342 0.0244,0.0342 0.0195,0.0342 0.0244,0.0342 0.0195,0.0342 0.0244,0.0342 0.0195,0.0342 0.0244,0.0342 0.0195,0.0342 0.0244,0.0342 0.0195,0.0342 0.0244,0.0342 0.0391,0.0684 0.0488,0.0684 0.0195,0.0342 0.0488,0.0684 0.0195,0.0342 0.0244,0.0342 0.0195,0.0293 0.0488,0.0684 0.0195,0.0342 0.0488,0.0684 0.0195,0.0342 0.0244,0.0342 0.0244,0.0293 0.0244,0.0342 0.0195,0.0342 0.0732,0.10254 0.0195,0.0293 0.0977,0.13672 0.0244,0.0293 0.0244,0.0342 0.0195,0.0342 0.0488,0.0684 0.0244,0.0293 0.0732,0.10254 0.0244,0.0293 0.0244,0.0342 0.0244,0.0293 0.0732,0.10254 0.0244,0.0293 0.0488,0.0684 0.0244,0.0293 0.0488,0.0684 0.0244,0.0293 0.0293,0.0342 0.0244,0.0293 0.0488,0.0684 0.0244,0.0293 0.0244,0.0342 0.0293,0.0293 0.0244,0.0342 0.0244,0.0293 0.0244,0.0342 0.0244,0.0293 0.0293,0.0342 0.0244,0.0342 0.0244,0.0293 0.0244,0.0342 0.0293,0.0293 0.0244,0.0342 0.0293,0.0293 0.0244,0.0342 0.0244,0.0293 0.0244,0.0342 0.0293,0.0293 0.0244,0.0293 0.0293,0.0342 0.0244,0.0293 0.0293,0.0342 0.0244,0.0293 0.0244,0.0342 0.0293,0.0293 0.0244,0.0293 0.0293,0.0342 0.0244,0.0293 0.0293,0.0293 0.0244,0.0342 0.0293,0.0293 0.0244,0.0342 0.0586,0.0586 0.0244,0.0293 0.0293,0.0342 0.0244,0.0293 0.0293,0.0293 0.0293,0.0342 0.0244,0.0293 0.0293,0.0293 0.0244,0.0293 0.0293,0.0342 0.0586,0.0586 0.0244,0.0293 0.0293,0.0293 0.0293,0.0342 0.0244,0.0293 0.0879,0.0879 0.0293,0.0342 0.0244,0.0293 0.14649,0.14648 0.0244,0.0342 0.58594,0.58593 0.0342,0.0293 0.0293,0.0244 0.0879,0.0879 0.0342,0.0293 0.0879,0.0879 0.0293,0.0244 0.0342,0.0293 0.0586,0.0586 0.0342,0.0293 0.0293,0.0244 0.0586,0.0586 0.0342,0.0293 0.0293,0.0293 0.0293,0.0244 0.0342,0.0293 0.0293,0.0293 0.0342,0.0244 0.0586,0.0586 0.0342,0.0244 0.0293,0.0293 0.0342,0.0293 0.0293,0.0244 0.0342,0.0293 0.0293,0.0293 0.0293,0.0244 0.0342,0.0293 0.0342,0.0244 0.0293,0.0293 0.0342,0.0293 0.0293,0.0244 0.0342,0.0293 0.0293,0.0244 0.0342,0.0293 0.0342,0.0244 0.0293,0.0293 0.0342,0.0244 0.0342,0.0293 0.0293,0.0244 0.0342,0.0293 0.0342,0.0244 0.0293,0.0293 0.0342,0.0244 0.0293,0.0293 0.0342,0.0244 0.0342,0.0293 0.0342,0.0244 0.0293,0.0244 0.0342,0.0293 0.0684,0.0488 0.0342,0.0293 0.0293,0.0244 0.0342,0.0293 0.10254,0.0732 0.0342,0.0293 0.0684,0.0488 0.0293,0.0293 0.10253,0.0732 0.0342,0.0293 0.13672,0.0977 0.0342,0.0293 0.13672,0.0977 0.0391,0.0244 0.0342,0.0293 0.0342,0.0195 0.0342,0.0293 0.13672,0.0977 0.0391,0.0244 0.10254,0.0732 0.0391,0.0244 0.13672,0.0977 0.0391,0.0244 0.0684,0.0488 0.0391,0.0195 0.0684,0.0488 0.0391,0.0244 0.0342,0.0244 0.0391,0.0244 0.0684,0.0488 0.0391,0.0195 0.0342,0.0244 0.0391,0.0244 0.0684,0.0488 0.0391,0.0195 0.0342,0.0244 0.0391,0.0244 0.0342,0.0244 0.0391,0.0195 0.0391,0.0244 0.0342,0.0244 0.0391,0.0195 0.0342,0.0244 0.0391,0.0244 0.0342,0.0195 0.0781,0.0488 0.0342,0.0195 0.0391,0.0244 0.0391,0.0195 0.0342,0.0244 0.0391,0.0244 0.0391,0.0195 0.0342,0.0244 0.0391,0.0195 0.0391,0.0244 0.0342,0.0195 0.0391,0.0244 0.0391,0.0195 0.0391,0.0244 0.0391,0.0195 0.0342,0.0244 0.0781,0.0391 0.0391,0.0244 0.0391,0.0195 0.0342,0.0244 0.0781,0.0391 0.0391,0.0244 0.0781,0.0391 0.0391,0.0244 0.0781,0.0391 0.0391,0.0244 0.11718,0.0586 0.0391,0.0244 0.11718,0.0586 0.0391,0.0244 0.23437,0.11719 0.0439,0.0244 0.15625,0.0781 0.0439,0.0195 0.15625,0.0781 0.0439,0.0195 0.0781,0.0391 0.0439,0.0195 0.11718,0.0586 0.0439,0.0195 0.0391,0.0147 0.0439,0.0195 0.0781,0.0391 0.0439,0.0195 0.0391,0.0195 0.0439,0.0195 0.0391,0.0146 0.0391,0.0195 0.0879,0.0391 0.0391,0.0146 0.0439,0.0195 0.0391,0.0195 0.0439,0.0146 0.0391,0.0195 0.0439,0.0195 0.0391,0.0146 0.044,0.0195 0.0391,0.0195 0.044,0.0146 0.0439,0.0195 0.0391,0.0195 0.0439,0.0146 0.0391,0.0195 0.044,0.0146 0.0879,0.0391 0.0391,0.0146 0.0439,0.0147 0.0439,0.0195 0.0391,0.0195 0.0439,0.0147 0.0439,0.0195 0.0391,0.0147 0.0439,0.0146 0.0439,0.0195 0.0439,0.0147 0.0439,0.0195 0.0391,0.0147 0.0439,0.0146 0.0439,0.0195 0.0879,0.0293 0.0439,0.0195 0.0879,0.0293 0.0439,0.0195 0.13183,0.0439 0.0439,0.0195 0.0391,0.0146 0.0879,0.0293 0.0439,0.0195 0.0439,0.0146 0.0488,0.0147 0.0391,0.0146 0.0488,0.0147 0.35156,0.11719 0.0488,0.0146 0.17578,0.0586 0.0488,0.0146 0.0879,0.0293 0.0488,0.0146 0.0879,0.0293 0.0439,0.01 0.0488,0.0147 0.0879,0.0293 0.0488,0.0146 0.0439,0.0146 0.0439,0.01 0.0488,0.0147 0.044,0.0146 0.0488,0.01 0.0879,0.0293 0.0488,0.01 0.0439,0.0147 0.0488,0.0146 0.0439,0.01 0.0488,0.0146 0.0439,0.0147 0.0488,0.01 0.0439,0.0146 0.0488,0.01 0.0439,0.0147 0.0488,0.01 0.0488,0.0146 0.0439,0.01 0.0488,0.0146 0.0439,0.01 0.0488,0.0146 0.0488,0.01 0.0439,0.0146 0.0488,0.01 0.0488,0.0146 0.0439,0.01 0.0488,0.01 0.0488,0.0146 0.0488,0.01 0.0439,0.01 0.0488,0.0147 0.0488,0.01 0.0439,0.01 0.0488,0.0146 0.14649,0.0293 0.0439,0.0146 0.29297,0.0586 0.0439,0.0146 0.53711,0.10743 0.0537,0.01 0.0977,0.0195 0.0488,0.005 0.24414,0.0488 0.0488,0.005 0.0537,0.01 0.14649,0.0293 0.0488,0.005 0.0537,0.01 0.0488,0.01 0.0488,0.005 0.0488,0.01 0.0537,0.01 0.0488,0.005 0.0488,0.01 0.0537,0.005 0.0488,0.01 0.0488,0.005 0.0537,0.01 0.0488,0.01 0.0537,0.005 0.0488,0.01 0.0488,0.005 0.0488,0.01 0.0537,0.005 0.0488,0.005 0.0537,0.01 0.0488,0.005 0.0537,0.01 0.0488,0.005 0.0537,0.005 0.0488,0.01 0.0537,0.005 0.0488,0.005 0.0537,0.01 0.0488,0.005 0.0537,0.005 0.0537,0.01 0.0488,0.005 0.0537,0.005 0.0488,0.005 0.0537,0.005 0.0537,0.01 0.0488,0.005 0.10743,0.01 0.0488,0.005 0.10743,0.01 0.0488,0.005 0.10743,0.01 0.0537,0.01 0.0488,0.005 0.0537,0.005 0.0537,0 0.10743,0.01 0.0488,0.005 0.21485,0.0195 0.0537,0 0.26855,0.0244 0.0537,0 0.10742,0.01 0.0537,0 0.10743,0.01 0.0537,0 0.0537,0.005 0.0537,0 0.10742,0.01 0.0537,0 0.0537,0.005 0.0537,0 0.0537,0.005 0.0537,0 0.0537,0.005 0.0586,0 0.0537,0.005 0.10742,0 0.0537,0.005 0.0586,0 0.0537,0.005 0.10743,0 0.0586,0.005 0.16601,0 0.0537,0.005 0.27832,0 0.0537,0.005 0.83984,0 0.0586,-0.005 0.22461,0 0.0586,-0.005 0.1709,0 0.0586,-0.005 0.1123,0 0.0586,-0.005 0.1123,0 0.0586,-0.005 0.0586,0 0.0586,-0.005 0.1123,0 0.0586,-0.005 0.0586,0 0.0586,-0.005 0.0586,0 0.0537,-0.005 0.0586,-0.005 0.0586,0 0.11718,-0.01 0.0586,0 0.11719,-0.01 0.0586,0 0.11718,-0.01 0.0586,0 0.29297,-0.0244 0.0586,0 0.17578,-0.0146 0.0635,-0.005 0.35157,-0.0293 0.0635,-0.005 0.23438,-0.0195 0.0635,-0.01 0.11719,-0.01 0.0635,-0.005 0.0586,-0.01 0.0586,-0.005 0.0635,-0.005 0.0586,-0.005 0.0586,-0.01 0.0635,-0.005 0.11719,-0.01 0.0635,-0.01 0.0586,-0.005 0.0635,-0.01 0.0586,-0.005 0.0635,-0.01 0.0586,-0.005 0.0586,-0.01 0.0635,-0.005 0.0635,-0.01 0.0586,-0.005 0.0635,-0.01 0.0586,-0.005 0.0635,-0.01 0.0586,-0.005 0.0635,-0.01 0.0586,-0.01 0.0635,-0.01 0.0635,-0.005 0.0586,-0.01 0.12695,-0.0195 0.0586,-0.005 0.0635,-0.01 0.0586,-0.01 0.0635,-0.01 0.0635,-0.005 0.0635,-0.01 0.0586,-0.01 0.19043,-0.0293 0.0586,-0.01 0.25391,-0.0391 0.0586,-0.01 0.31738,-0.0488 0.0635,-0.0146 0.0635,-0.01 0.0586,-0.01 0.0684,-0.01 0.0586,-0.01 0.0635,-0.0146 0.12696,-0.0195 0.0635,-0.0146 0.0635,-0.01 0.0635,-0.0146 0.0635,-0.01 0.0684,-0.01 0.0635,-0.0147 0.0635,-0.01 0.0635,-0.0146 0.0635,-0.01 0.0635,-0.0147 0.0635,-0.01 0.0635,-0.0146 0.0635,-0.01 0.0684,-0.0147 0.0635,-0.0146 0.0635,-0.01 0.0635,-0.0146 0.0635,-0.01 0.0635,-0.0146 0.0684,-0.0146 0.0635,-0.01 0.12696,-0.0293 0.0684,-0.0147 0.0635,-0.0146 0.0635,-0.01 0.0684,-0.0147 0.12695,-0.0293 0.0684,-0.0147 0.12695,-0.0293 0.0684,-0.0147 0.0635,-0.0146 0.0684,-0.0147 0.12695,-0.0293 0.0684,-0.0147 0.0635,-0.0146 0.0684,-0.0147 0.0635,-0.0146 0.0684,-0.0146 0.0635,-0.0147 0.0684,-0.0146 0.0635,-0.0195 0.0684,-0.0146 0.0635,-0.0147 0.0684,-0.0195 0.0684,-0.0146 0.0635,-0.0146 0.0684,-0.0147 0.0635,-0.0195 0.13672,-0.0293 0.0635,-0.0195 0.0684,-0.0146 0.0684,-0.0195 0.0635,-0.0147 0.0684,-0.0195 0.0684,-0.0146 0.0635,-0.0195 0.0684,-0.0146 0.0684,-0.0195 0.0684,-0.0146 0.0635,-0.0195 0.0684,-0.0146 0.13671,-0.0391 0.0635,-0.0147 0.27344,-0.0781 0.0684,-0.0147 0.0684,-0.0195 0.0635,-0.0195 0.20508,-0.0586 0.0684,-0.0146 0.0684,-0.0244 0.0684,-0.0146 0.0684,-0.0244 0.0684,-0.0147 0.0684,-0.0195 0.0684,-0.0244 0.41016,-0.11719 0.0732,-0.0195 0.0684,-0.0244 0.20508,-0.0586 0.0684,-0.0244 0.0732,-0.0195 0.0684,-0.0195 0.0684,-0.0244 0.13672,-0.0391 0.0684,-0.0244 0.0732,-0.0195 0.0684,-0.0244 0.0684,-0.0195 0.0732,-0.0244 0.0684,-0.0195 0.0684,-0.0244 0.0732,-0.0244 0.0684,-0.0195 0.0684,-0.0244 0.0732,-0.0195 0.13672,-0.0488 0.0732,-0.0195 0.13671,-0.0488 0.0732,-0.0244 0.0684,-0.0195 0.0732,-0.0244 0.0684,-0.0244 0.0732,-0.0244 0.0684,-0.0244 0.0732,-0.0244 0.0684,-0.0244 0.0732,-0.0195 0.0684,-0.0293 0.0732,-0.0195 0.0684,-0.0293 0.0732,-0.0195 0.0732,-0.0293 0.0684,-0.0244 0.0732,-0.0244 0.0684,-0.0244 0.0732,-0.0244 0.0684,-0.0244 0.14649,-0.0488 0.0684,-0.0293 0.21973,-0.0732 0.0684,-0.0293 0.0732,-0.0244 0.0732,-0.0293 0.0684,-0.0244 0.0732,-0.0244 0.0732,-0.0293 0.0732,-0.0244 0.0732,-0.0293 0.0684,-0.0244 0.0732,-0.0293 0.0732,-0.0244 0.0732,-0.0293 0.0732,-0.0244 0.0732,-0.0293 0.0684,-0.0293 0.0781,-0.0244 0.0684,-0.0293 0.0732,-0.0244 0.21973,-0.0879 0.0732,-0.0244 0.43945,-0.17579 0.0732,-0.0244 0.0732,-0.0342 0.0732,-0.0244 0.0732,-0.0293 0.0781,-0.0342 0.0732,-0.0244 0.0732,-0.0342 0.29297,-0.11719 0.0781,-0.0293 0.0732,-0.0293 0.0732,-0.0342 0.14648,-0.0586 0.0781,-0.0342 0.14648,-0.0586 0.0781,-0.0342 0.0732,-0.0293 0.0732,-0.0342 0.0732,-0.0293 0.0781,-0.0293 0.0732,-0.0342 0.0781,-0.0293 0.0732,-0.0342 0.0732,-0.0293 0.0781,-0.0342 0.0732,-0.0293 0.0732,-0.0342 0.0781,-0.0342 0.0732,-0.0293 0.0781,-0.0342 0.0732,-0.0342 0.0781,-0.0342 0.0732,-0.0293 0.0781,-0.0342 0.0732,-0.0342 0.0781,-0.0342 0.0732,-0.0342 0.0781,-0.0293 0.0732,-0.0342 0.0781,-0.0342 0.0732,-0.0342 0.15625,-0.0684 0.0732,-0.0342 0.15625,-0.0684 0.0732,-0.0342 0.0781,-0.0391 0.0781,-0.0342 0.0732,-0.0342 0.15625,-0.0684 0.0732,-0.0342 0.0781,-0.0391 0.15625,-0.0684 0.0732,-0.0391 0.15625,-0.0684 0.0781,-0.0391 0.0781,-0.0342 0.0732,-0.0342 0.15625,-0.0781 0.15625,-0.0684 0.0781,-0.0391 0.0781,-0.0342 0.15625,-0.0781 0.0781,-0.0342 0.0732,-0.0391 0.15625,-0.0781 0.0781,-0.0342 0.23437,-0.11719 0.083,-0.0342 0.0732,-0.0391 0.083,-0.0391 0.625,-0.3125 0.083,-0.0391 0.0781,-0.0391 0.0781,-0.044 0.15625,-0.0781 0.083,-0.0391 0.0781,-0.0391 0.0781,-0.0439 0.0781,-0.0391 0.083,-0.0391 0.0781,-0.0439 0.0781,-0.0391 0.083,-0.0439 0.15625,-0.0781 0.0781,-0.0439 0.083,-0.0391 0.0781,-0.0439 0.083,-0.0391 0.0781,-0.0439 0.0781,-0.0391 0.083,-0.0439 0.0781,-0.0439 0.083,-0.0439 0.0781,-0.0391 0.0781,-0.0439 0.083,-0.0439 0.083,-0.0391 0.0781,-0.0439 0.083,-0.0439 0.0781,-0.0439 0.083,-0.044 0.0781,-0.0439 0.083,-0.0439 0.0781,-0.0439 0.083,-0.0391 0.083,-0.0439 0.0781,-0.0439 0.083,-0.0439 0.0781,-0.0439 0.083,-0.0488 0.083,-0.0439 0.0781,-0.0439 0.16601,-0.0879 0.0781,-0.0439 0.083,-0.0488 0.083,-0.0439 0.0781,-0.0439 0.083,-0.0488 0.16602,-0.0879 0.083,-0.0488 0.0781,-0.0439 0.083,-0.0439 0.083,-0.0488 0.083,-0.0439 0.16602,-0.0977 0.083,-0.0439 0.0781,-0.0439 0.16602,-0.0977 0.083,-0.0439 0.24903,-0.14648 0.083,-0.0439 0.41504,-0.24414 0.083,-0.0439 0.41504,-0.24414 0.083,-0.0537 0.083,-0.0488 0.0879,-0.0488 0.24902,-0.14649 0.083,-0.0537 0.083,-0.0488 0.0879,-0.0488 0.083,-0.0488 0.083,-0.0537 0.083,-0.0488 0.0879,-0.0488 0.083,-0.0537 0.083,-0.0488 0.083,-0.0537 0.0879,-0.0488 0.083,-0.0537 0.083,-0.0488 0.0879,-0.0537 0.083,-0.0488 0.083,-0.0537 0.0879,-0.0537 0.083,-0.0488 0.083,-0.0537 0.0879,-0.0537 0.083,-0.0488 0.0879,-0.0537 0.083,-0.0537 0.0879,-0.0537 0.083,-0.0537 0.0879,-0.0488 0.083,-0.0537 0.0879,-0.0537 0.083,-0.0537 0.0879,-0.0537 0.083,-0.0537 0.0879,-0.0537 0.083,-0.0537 0.0879,-0.0586 0.0879,-0.0537 0.083,-0.0537 0.0879,-0.0537 0.083,-0.0537 0.0879,-0.0537 0.0879,-0.0586 0.083,-0.0537 0.17578,-0.10742 0.083,-0.0586 0.17578,-0.10743 0.083,-0.0586 0.0879,-0.0537 0.0879,-0.0586 0.0879,-0.0537 0.083,-0.0586 0.0879,-0.0586 0.0879,-0.0537 0.0879,-0.0586 0.0879,-0.0537 0.083,-0.0586 0.0879,-0.0586 0.0879,-0.0537 0.35156,-0.23438 0.0879,-0.0537 0.17578,-0.11719 0.083,-0.0586 0.0879,-0.0586 0.0928,-0.0586 0.083,-0.0586 0.0879,-0.0586 0.0928,-0.0586 0.083,-0.0586 0.0928,-0.0586 0.0879,-0.0586 0.0879,-0.0635 0.26367,-0.17578 0.0879,-0.0635 0.17578,-0.11718 0.0879,-0.0635 0.0928,-0.0586 0.0879,-0.0635 0.17578,-0.11719 0.0879,-0.0635 0.0928,-0.0586 0.17578,-0.12695 0.0879,-0.0586 0.0879,-0.0635 0.0928,-0.0586 0.0879,-0.0635 0.0928,-0.0635 0.0879,-0.0635 0.0879,-0.0586 0.0879,-0.0635 0.0928,-0.0635 0.0879,-0.0635 0.0928,-0.0635 0.17579,-0.12695 0.0928,-0.0635 0.17578,-0.12696 0.0928,-0.0635 0.0879,-0.0635 0.0928,-0.0635 0.0879,-0.0635 0.0928,-0.0635 0.0879,-0.0635 0.0928,-0.0684 0.0879,-0.0635 0.18555,-0.12696 0.0879,-0.0684 0.0928,-0.0635 0.0879,-0.0635 0.0928,-0.0684 0.0928,-0.0635 0.0879,-0.0684 0.0928,-0.0635 0.0879,-0.0684 0.0928,-0.0635 0.0928,-0.0684 0.0879,-0.0635 0.18554,-0.13672 0.0879,-0.0635 0.27832,-0.20508 0.0879,-0.0635 0.37109,-0.27344 0.0879,-0.0684 0.64941,-0.47851 0.0879,-0.0684 0.0928,-0.0732 0.27832,-0.20508 0.0928,-0.0732 0.18555,-0.13672 0.0928,-0.0732 0.0928,-0.0684 0.0928,-0.0732 0.0928,-0.0684 0.0977,-0.0684 0.0879,-0.0732 0.0977,-0.0732 0.0928,-0.0684 0.18555,-0.14648 0.0928,-0.0684 0.18554,-0.14648 0.0977,-0.0732 0.0928,-0.0684 0.27832,-0.21973 0.0977,-0.0732 0.27832,-0.21972 0.0977,-0.0732 0.18554,-0.14648 0.0977,-0.0732 0.18554,-0.14649 0.0977,-0.0732 0.0928,-0.0781 0.0977,-0.0732 0.0928,-0.0732 0.0928,-0.0781 0.0977,-0.0732 0.0928,-0.0732 0.0977,-0.0781 0.18555,-0.14648 0.0977,-0.0781 0.0928,-0.0781 0.0977,-0.0732 0.0928,-0.0781 0.0977,-0.0732 0.0928,-0.0781 0.0977,-0.0732 0.0977,-0.0781 0.0928,-0.0781 0.0977,-0.0732 0.0928,-0.0781 0.0977,-0.0781 0.0928,-0.0781 0.19531,-0.15625 0.0928,-0.0781 0.19532,-0.15625 0.0928,-0.0781 0.29297,-0.23437 0.0928,-0.0781 0.19531,-0.15625 0.0928,-0.0781 0.0977,-0.083 0.19532,-0.15625 0.0977,-0.083 0.0928,-0.0781 0.0977,-0.083 0.19531,-0.15625 0.0977,-0.083 0.0977,-0.0781 0.19532,-0.16602 0.0977,-0.0781 0.0977,-0.083 0.0928,-0.083 0.0977,-0.0781 0.19531,-0.16602 0.10254,-0.0781 0.0928,-0.083 0.29297,-0.24902 0.10254,-0.083 0.78125,-0.66407 0.10254,-0.083 0.0977,-0.0879 0.19531,-0.16601 0.0977,-0.0879 0.0977,-0.083 0.10254,-0.083 0.0977,-0.0879 0.0977,-0.083 0.10254,-0.0879 0.0977,-0.083 0.0977,-0.0879 0.10254,-0.083 0.19531,-0.17579 0.0977,-0.083 0.10253,-0.0879 0.0977,-0.0879 0.10253,-0.083 0.19532,-0.17578 0.10253,-0.0879 0.0977,-0.0879 0.10253,-0.0879 0.0977,-0.0879 0.10253,-0.083 0.0977,-0.0928 0.0977,-0.0879 0.10254,-0.083 0.0977,-0.0928 0.20508,-0.17578 0.0977,-0.0879 0.10254,-0.0879 0.0977,-0.0928 0.20508,-0.17578 0.0977,-0.0928 0.10254,-0.0879 0.0977,-0.0879 0.10254,-0.0928 0.0977,-0.0879 0.10254,-0.0879 0.20508,-0.18555 0.0977,-0.0879 0.10254,-0.0928 0.10253,-0.0879 0.0977,-0.0928 0.10253,-0.0928 0.10254,-0.0879 0.20508,-0.18554 0.0977,-0.0928 0.41016,-0.37109 0.0977,-0.0928 0.10254,-0.0879 0.10254,-0.0977 0.51269,-0.46386 0.10254,-0.0977 0.30761,-0.27832 0.10254,-0.0977 0.10254,-0.0928 0.10254,-0.0977 0.20508,-0.18554 0.20507,-0.19532 0.10254,-0.0928 0.20508,-0.19531 0.10254,-0.0928 0.10742,-0.0977 0.10254,-0.0977 0.10254,-0.0928 0.30761,-0.29297 0.10743,-0.0977 0.41016,-0.39062 0.10742,-0.0977 0.20508,-0.19531 0.10742,-0.0977 0.20508,-0.19531 0.10743,-0.10254 0.20507,-0.19531 0.10743,-0.10254 0.20507,-0.19531 0.10743,-0.10254 0.10254,-0.0977 0.10742,-0.10254 0.10254,-0.0977 0.10743,-0.10254 0.10253,-0.0977 0.10254,-0.10254 0.10743,-0.10254 0.10253,-0.0977 0.10743,-0.10254 0.10254,-0.10254 0.21484,-0.20508 0.10254,-0.10253 0.10742,-0.0977 0.10254,-0.10253 0.10742,-0.10254 0.10254,-0.10254 0.21485,-0.20508 0.20996,-0.20996 0.10742,-0.10253 0.10254,-0.10254 0.21484,-0.20508 0.10254,-0.10743 0.21484,-0.20507 0.20997,-0.20997 0.10742,-0.10253 0.10743,-0.10743 0.10742,-0.10254 0.10254,-0.10742 0.10742,-0.10743 0.10743,-0.10253 0.10742,-0.10743 0.10743,-0.10254 0.32226,-0.32226 0.10743,-0.10254 0.10254,-0.10742 1.07422,-1.07422 0.10742,-0.1123 0.21484,-0.21485 0.1123,-0.10742 0.10743,-0.1123 0.21484,-0.21484 0.10743,-0.1123 0.10742,-0.10743 0.10743,-0.1123 0.10742,-0.10742 0.10743,-0.1123 0.1123,-0.10743 0.21484,-0.22461 0.1123,-0.10742 0.32227,-0.33692 0.21972,-0.21972 0.21485,-0.22461 0.1123,-0.1123 0.21484,-0.22461 0.1123,-0.1123 0.10743,-0.1123 0.1123,-0.1123 0.21484,-0.22461 0.1123,-0.11719 0.21484,-0.22461 0.1123,-0.11719 0.1123,-0.1123 0.10743,-0.11718 0.10742,-0.1123 0.1123,-0.1123 0.10743,-0.11719 0.1123,-0.1123 0.10742,-0.11719 0.1123,-0.1123 0.1123,-0.11719 0.10743,-0.11718 0.1123,-0.1123 0.10742,-0.11719 0.22461,-0.23438 0.10743,-0.1123 0.1123,-0.12207 0.1123,-0.1123 0.10742,-0.11719 0.22461,-0.23437 0.10743,-0.11719 0.22461,-0.23438 0.10742,-0.12207 0.44922,-0.46875 0.10742,-0.12208 0.1123,-0.11718 0.1123,-0.12208 0.22461,-0.23437 0.1123,-0.12208 0.10743,-0.11719 0.1123,-0.12207 0.1123,-0.11719 0.22461,-0.24414 0.1123,-0.11719 0.44922,-0.48828 0.1123,-0.11719 1.01074,-1.09863 0.1123,-0.12695 0.1123,-0.12208 0.11719,-0.12207 0.1123,-0.12208 0.1123,-0.12695 0.11231,-0.12207 0.1123,-0.12696 0.11231,-0.12207 0.11718,-0.12208 0.11231,-0.12695 0.1123,-0.12208 0.11231,-0.12695 0.11718,-0.12695 0.11231,-0.12208 0.1123,-0.12695 0.11719,-0.12695 0.11231,-0.12696 0.1123,-0.12207 0.11231,-0.12696 0.11718,-0.12695 0.11231,-0.12695 0.11719,-0.12696 0.2246,-0.2539 0.11719,-0.12696 0.11231,-0.12695 0.11718,-0.12695 0.22461,-0.25391 0.11719,-0.12695 0.11231,-0.13184 0.11718,-0.12695 0.11231,-0.12695 0.11719,-0.13184 0.1123,-0.12695 0.11719,-0.12696 0.1123,-0.13183 0.11719,-0.12695 0.1123,-0.13184 0.11719,-0.12695 0.11719,-0.13184 0.1123,-0.13184 0.11719,-0.12695 0.11231,-0.13183 0.23437,-0.26368 0.11231,-0.12695 0.35156,-0.39551 0.1123,-0.13183 0.23438,-0.26367 0.1123,-0.13184 0.35157,-0.39551 0.1123,-0.13183 0.11719,-0.13672 0.23437,-0.26368 0.11719,-0.13671 0.23438,-0.26368 0.1123,-0.13671 0.11719,-0.13184 0.11719,-0.13672 0.11718,-0.13184 0.23438,-0.27343 0.11719,-0.13184 0.35156,-0.41015 0.11719,-0.13184 1.28906,-1.50391 0.12207,-0.1416 0.23437,-0.27344 0.11719,-0.1416 0.23438,-0.27344 0.12207,-0.1416 0.11718,-0.13672 0.23438,-0.2832 0.12207,-0.13672 0.11719,-0.1416 0.11718,-0.13672 0.11719,-0.1416 0.12207,-0.1416 0.23438,-0.2832 0.12207,-0.13672 0.11718,-0.1416 0.12207,-0.14161 0.23438,-0.2832 0.12207,-0.1416 0.23437,-0.2832 0.12207,-0.14161 0.11719,-0.14648 0.12207,-0.1416 0.11719,-0.1416"
       style="fill:none;stroke:#211e1e;stroke-width:0.99624997;stroke-linecap:round;stroke-linejoin:round;stroke-miterlimit:10;stroke-opacity:1"
       inkscape:connector-curvature="0" />
    <path
       id="path13"
       d="m 254.95531,152.62091 c 0,0.34668 -0.27832,0.625 -0.625,0.625 -0.34668,0 -0.625,-0.27832 -0.625,-0.625 0,-0.34179 0.27832,-0.625 0.625,-0.625 0.34668,0 0.625,0.28321 0.625,0.625 z m 0,0"
       style="fill:none;stroke:#211e1e;stroke-width:0.99624997;stroke-linecap:round;stroke-linejoin:round;stroke-miterlimit:10;stroke-opacity:1"
       inkscape:connector-curvature="0" />
    <path
       id="path17"
       d="m 174.34109,151.8879 c 0,0.3418 -0.27832,0.625 -0.625,0.625 -0.3418,0 -0.625,-0.2832 -0.625,-0.625 0,-0.34668 0.2832,-0.625 0.625,-0.625 0.34668,0 0.625,0.27832 0.625,0.625 z m 0,0"
       style="fill:none;stroke:#211e1e;stroke-width:0.99624997;stroke-linecap:round;stroke-linejoin:round;stroke-miterlimit:10;stroke-opacity:1"
       inkscape:connector-curvature="0" />
    <path
       id="path19"
       d="m 505.30504,152.543 c 0,0.3418 -0.27831,0.625 -0.625,0.625 -0.34668,0 -0.625,-0.2832 -0.625,-0.625 0,-0.34668 0.27832,-0.625 0.625,-0.625 0.34669,0 0.625,0.27832 0.625,0.625"
       style="fill:#211e1e;fill-opacity:1;fill-rule:nonzero;stroke:none"
       inkscape:connector-curvature="0" />
    <path
       id="path21"
       d="m 505.30504,152.543 c 0,0.3418 -0.27832,0.625 -0.625,0.625 -0.34668,0 -0.625,-0.2832 -0.625,-0.625 0,-0.34668 0.27832,-0.625 0.625,-0.625 0.34668,0 0.625,0.27832 0.625,0.625 z m 0,0"
       style="fill:none;stroke:#211e1e;stroke-width:0.99624997;stroke-linecap:round;stroke-linejoin:round;stroke-miterlimit:10;stroke-opacity:1"
       inkscape:connector-curvature="0" />
    <path
       id="path23"
       d="m 396.9359,152.54789 -83.97461,0.005"
       style="fill:none;stroke:#211e1e;stroke-width:0.99624997;stroke-linecap:round;stroke-linejoin:round;stroke-miterlimit:4;stroke-opacity:1"
       inkscape:connector-curvature="0" />
    <path
       id="path25"
       d="m 395.53454,150.70218 0.78612,1.84571 -0.78612,1.84082 4.375,-1.84082 z m 0,0"
       style="fill:#211e1e;fill-opacity:1;fill-rule:nonzero;stroke:none"
       inkscape:connector-curvature="0" />
    <flowRoot
       xml:space="preserve"
       id="flowRoot3440"
       style="font-style:normal;font-weight:normal;font-size:40px;line-height:125%;font-family:sans-serif;letter-spacing:0px;word-spacing:0px;fill:#000000;fill-opacity:1;stroke:none;stroke-width:1px;stroke-linecap:butt;stroke-linejoin:miter;stroke-opacity:1"><flowRegion
         id="flowRegion3442"><rect
           id="rect3444"
           width="110.85184"
           height="60.125778"
           x="139.53719"
           y="86.460243" /></flowRegion><flowPara
         id="flowPara3446" /></flowRoot>    <text
       xml:space="preserve"
       style="font-style:normal;font-weight:normal;font-size:40px;line-height:125%;font-family:sans-serif;letter-spacing:0px;word-spacing:0px;fill:#000000;fill-opacity:1;stroke:none;stroke-width:1px;stroke-linecap:butt;stroke-linejoin:miter;stroke-opacity:1"
       x="149.58514"
       y="155.66162"
       id="text3351"
       sodipodi:linespacing="125%"><tspan
         sodipodi:role="line"
         id="tspan3353"
         x="149.58514"
         y="155.66162"
         style="font-style:italic;font-variant:normal;font-weight:normal;font-stretch:normal;font-size:11.25px;font-family:'Latin Modern Math';-inkscape-font-specification:'Latin Modern Math'">t<tspan
   style="font-style:normal;font-size:11.25px"
   id="tspan3359">=0</tspan></tspan></text>
    <text
       xml:space="preserve"
       style="font-style:normal;font-weight:normal;font-size:40px;line-height:125%;font-family:sans-serif;letter-spacing:0px;word-spacing:0px;fill:#000000;fill-opacity:1;stroke:none;stroke-width:1px;stroke-linecap:butt;stroke-linejoin:miter;stroke-opacity:1"
       x="244.57535"
       y="169.33209"
       id="text3351-3"
       sodipodi:linespacing="125%"><tspan
         sodipodi:role="line"
         id="tspan3353-6"
         x="244.57535"
         y="169.33209"
         style="font-style:italic;font-variant:normal;font-weight:normal;font-stretch:normal;font-size:11.25px;font-family:'Latin Modern Math';-inkscape-font-specification:'Latin Modern Math'">t<tspan
   style="font-style:normal;font-size:11.25px"
   id="tspan3359-7">=1</tspan></tspan></text>
  </g>
</svg>
