<?xml version="1.0" encoding="UTF-8" standalone="no"?>
<!-- Created with Inkscape (http://www.inkscape.org/) -->

<svg
   xmlns:dc="http://purl.org/dc/elements/1.1/"
   xmlns:cc="http://creativecommons.org/ns#"
   xmlns:rdf="http://www.w3.org/1999/02/22-rdf-syntax-ns#"
   xmlns:svg="http://www.w3.org/2000/svg"
   xmlns="http://www.w3.org/2000/svg"
   xmlns:sodipodi="http://sodipodi.sourceforge.net/DTD/sodipodi-0.dtd"
   xmlns:inkscape="http://www.inkscape.org/namespaces/inkscape"
   width="210mm"
   height="297mm"
   viewBox="0 0 744.09448819 1052.3622047"
   id="svg3405"
   version="1.1"
   inkscape:version="0.91 r13725"
   sodipodi:docname="Projecting.svg">
  <defs
     id="defs3407" />
  <sodipodi:namedview
     id="base"
     pagecolor="#ffffff"
     bordercolor="#666666"
     borderopacity="1.0"
     inkscape:pageopacity="0.0"
     inkscape:pageshadow="2"
     inkscape:zoom="0.81768794"
     inkscape:cx="618.04619"
     inkscape:cy="537.73439"
     inkscape:document-units="px"
     inkscape:current-layer="layer1"
     showgrid="false"
     inkscape:window-width="1839"
     inkscape:window-height="1056"
     inkscape:window-x="81"
     inkscape:window-y="24"
     inkscape:window-maximized="1"
     inkscape:snap-center="false" />
  <metadata
     id="metadata3410">
    <rdf:RDF>
      <cc:Work
         rdf:about="">
        <dc:format>image/svg+xml</dc:format>
        <dc:type
           rdf:resource="http://purl.org/dc/dcmitype/StillImage" />
        <dc:title></dc:title>
      </cc:Work>
    </rdf:RDF>
  </metadata>
  <g
     inkscape:label="Layer 1"
     inkscape:groupmode="layer"
     id="layer1">
    <g
       id="g3587"
       transform="translate(-55.033216,64.205422)">
      <path
         inkscape:connector-curvature="0"
         style="fill:#000000;fill-opacity:1;fill-rule:nonzero;stroke:none"
         d="m 468.50171,290.95911 c 0.40528,-1.61132 0.53711,-2.10937 4.76074,-2.10937 1.34766,0 1.7041,0 1.7041,-0.84962 0,-0.54198 -0.49316,-0.54198 -0.71777,-0.54198 -1.47949,0 -5.16113,0.13672 -6.64063,0.13672 -1.34765,0 -4.6289,-0.13672 -5.97167,-0.13672 -0.31739,0 -0.85449,0 -0.85449,0.89843 0,0.49317 0.40039,0.49317 1.25487,0.49317 0.0928,0 0.94239,0 1.70899,0.0928 0.80566,0.0879 1.21094,0.13183 1.21094,0.71288 0,0.18067 -0.044,0.31739 -0.18066,0.8545 l -6.01563,24.11133 c -0.44922,1.74805 -0.53711,2.10449 -4.08691,2.10449 -0.76172,0 -1.21094,0 -1.21094,0.89843 0,0.49805 0.40528,0.49805 1.21094,0.49805 l 20.78613,0 c 1.07909,0 1.12304,0 1.39159,-0.7666 l 3.54493,-9.69726 c 0.18066,-0.49316 0.18066,-0.58106 0.18066,-0.625 0,-0.18066 -0.13671,-0.49805 -0.5371,-0.49805 -0.40527,0 -0.44922,0.22949 -0.76172,0.94726 -1.52833,4.12598 -3.50587,9.24317 -11.26953,9.24317 l -4.22364,0 c -0.625,0 -0.71777,0 -0.98632,-0.044 -0.44923,-0.044 -0.58106,-0.0879 -0.58106,-0.44434 0,-0.13673 0,-0.2295 0.21972,-1.03516 l 6.05958,-24.24317"
         id="path39" />
      <path
         inkscape:connector-curvature="0"
         style="fill:#000000;fill-opacity:1;fill-rule:nonzero;stroke:none"
         d="m 488.12574,307.45325 12.4707,0 0,-1.1914 -12.4707,0 z m 0,0"
         id="path41" />
      <path
         inkscape:connector-curvature="0"
         style="fill:#000000;fill-opacity:1;fill-rule:nonzero;stroke:none"
         d="m 490.48413,314.81654 c 1.81641,-2.41212 3.3838,-2.88574 4.38477,-2.88574 1.22559,0 2.29004,0.91307 2.29004,3.04199 0,1.28417 -0.69336,4.47753 -1.63086,6.29395 -0.78125,1.53807 -2.31934,3.04198 -3.91602,3.04198 -2.22656,0 -2.78808,-2.41698 -2.78808,-2.72948 0,-0.12213 0.0635,-0.3418 0.0927,-0.46875 l 1.56737,-6.29884 m -5.92285,13.88184 c -0.21484,0.87891 -0.27831,1.12793 -1.5332,1.12793 -0.40527,0 -0.84472,0 -0.84472,0.65918 0,0.34667 0.27832,0.46875 0.43945,0.46875 0.81544,0 1.8457,-0.12213 2.69531,-0.12213 1.06445,0 2.25586,0.12213 3.28614,0.12213 0.2832,0 0.62987,-0.0927 0.62987,-0.68848 0,-0.43945 -0.43945,-0.43945 -0.81542,-0.43945 -0.69336,0 -1.53809,0 -1.53809,-0.37598 0,-0.15625 0.21972,-0.97168 0.34669,-1.44043 0.37597,-1.66015 0.81542,-3.34961 1.1621,-4.66796 0.3711,0.62987 1.34766,1.85057 3.22266,1.85057 3.82324,0 8.05175,-4.23338 8.05175,-8.89647 0,-3.667 -2.53906,-5.23438 -4.69726,-5.23438 -1.94337,0 -3.60352,1.31835 -4.44824,2.19238 -0.53222,-1.78223 -2.28516,-2.19238 -3.22754,-2.19238 -1.22071,0 -1.97266,0.81543 -2.47558,1.66015 -0.625,1.06445 -1.12794,2.94434 -1.12794,3.12989 0,0.41015 0.43946,0.41015 0.53711,0.41015 0.43458,0 0.46875,-0.0927 0.6836,-0.9375 0.47362,-1.82129 1.06934,-3.38866 2.29004,-3.38866 0.81542,0 1.03515,0.69335 1.03515,1.53807 0,0.34669 -0.0635,0.75197 -0.0928,0.9375 l -3.57422,14.28712 z m 0,0"
         id="path43" />
    </g>
    <path
       id="path45"
       d="m 633.81711,346.57255 c 0,-0.13184 -0.0879,-0.44434 -0.49316,-0.44434 -0.13672,0 -0.18067,0.044 -0.67384,0.53712 l -3.13965,3.45703 c -0.40526,-0.62988 -2.47069,-3.99415 -7.45116,-3.99415 -10.01465,0 -20.11719,9.917 -20.11719,20.33693 0,7.40722 5.29786,12.29982 12.16797,12.29982 3.90625,0 7.31933,-1.7969 9.69726,-3.8623 4.17481,-3.68167 4.93652,-7.7637 4.93652,-7.90042 0,-0.44921 -0.44921,-0.44921 -0.5371,-0.44921 -0.26856,0 -0.49317,0.0928 -0.58593,0.44921 -0.4004,1.30371 -1.43555,4.49219 -4.53125,7.09472 -3.10059,2.5098 -5.92774,3.2764 -8.26173,3.2764 -4.04296,0 -8.79882,-2.334 -8.79882,-9.33596 0,-2.56347 0.94237,-9.83399 5.42969,-15.08789 2.73925,-3.1836 6.96288,-5.42968 10.95702,-5.42968 4.58009,0 7.22656,3.45702 7.22656,8.6621 0,1.79687 -0.13183,1.84082 -0.13183,2.29003 0,0.44923 0.49317,0.44923 0.67383,0.44923 0.58105,0 0.58105,-0.0879 0.80567,-0.89844 l 2.82715,-11.44531"
       style="fill:#000000;fill-opacity:1;fill-rule:nonzero;stroke:none"
       inkscape:connector-curvature="0" />
    <path
       id="path47"
       d="m 394.53327,32.913738 c -2.69043,0 -2.87109,-3.45702 -2.87109,-4.21874 0,-2.15332 1.30371,-7.0459 2.06542,-8.93067 1.3916,-3.32519 3.72559,-5.20996 5.56642,-5.20996 2.91991,0 3.5498,3.6377 3.5498,3.9502 0,0.27343 -2.4707,10.10254 -2.60743,10.2832 -0.66894,1.25488 -3.18359,4.12597 -5.69824,4.12597 m 12.43164,-18.85253 c 0,-0.18067 -0.13184,-0.44922 -0.44921,-0.44922 -0.49316,0 -2.28516,1.79687 -3.05176,3.0957 -0.98633,-2.42187 -2.73927,-3.13965 -4.1748,-3.13965 -5.29298,0 -10.82032,6.64063 -10.82032,13.14942 0,4.40429 2.65137,7.18748 5.92773,7.18748 1.9336,0 3.68165,-1.0791 5.29786,-2.69529 -0.4004,1.57229 -1.88477,7.63179 -2.02149,8.03709 -0.35645,1.2549 -0.71288,1.4356 -3.23242,1.4795 -0.58105,0 -1.03028,0 -1.03028,0.8984 0,0.044 0,0.4932 0.58594,0.4932 1.43555,0 3.00781,-0.1367 4.48731,-0.1367 1.52832,0 3.14453,0.1367 4.62402,0.1367 0.22461,0 0.80567,0 0.80567,-0.8984 0,-0.4932 -0.44922,-0.4932 -1.167,-0.4932 -2.15331,0 -2.15331,-0.3174 -2.15331,-0.7178 0,-0.3174 0.0879,-0.5859 0.18066,-0.9912 l 6.1914,-24.96092 z m 0,0"
       style="fill:#000000;fill-opacity:1;fill-rule:nonzero;stroke:none"
       inkscape:connector-curvature="0" />
    <g
       id="g3583"
       transform="translate(295.43645,78.19303)">
      <path
         inkscape:connector-curvature="0"
         style="fill:#000000;fill-opacity:1;fill-rule:nonzero;stroke:none"
         d="m 238.89722,574.61146 16.20606,0 0,-1.3916 -16.20606,0 z m 0,0"
         id="path49" />
      <path
         inkscape:connector-curvature="0"
         style="fill:#000000;fill-opacity:1;fill-rule:nonzero;stroke:none"
         d="m 241.84644,585.70032 c 0.3125,-1.21093 1.52344,-2.4707 2.33399,-3.14452 1.56737,-1.39161 2.87108,-1.70411 3.63281,-1.70411 1.79687,0 2.87597,1.57227 2.87597,4.21875 0,2.65137 -1.48437,7.8125 -2.29003,9.51661 -1.52833,3.14452 -3.68165,4.62401 -5.34669,4.62401 -2.95899,0 -3.54493,-3.72557 -3.54493,-3.99414 0,-0.0879 0,-0.18066 0.13673,-0.71777 l 2.20215,-8.79883 m -7.90528,19.48243 c -0.35644,1.52831 -0.44922,1.84081 -2.42187,1.84081 -0.53711,0 -1.03516,0 -1.03516,0.84961 0,0.36133 0.22461,0.542 0.58593,0.542 1.21094,0 2.51466,-0.13672 3.76954,-0.13672 1.48438,0 3.00781,0.13672 4.44336,0.13672 0.2246,0 0.81054,0 0.81054,-0.89843 0,-0.49318 -0.44921,-0.49318 -1.0791,-0.49318 -2.24609,0 -2.24609,-0.31737 -2.24609,-0.71776 0,-0.542 1.88477,-7.86134 2.20215,-8.9795 0.58105,1.29882 1.84082,2.8711 4.12598,2.8711 5.20996,0 10.82031,-6.55274 10.82031,-13.1543 0,-4.21875 -2.5586,-7.18261 -5.97169,-7.18261 -2.24608,0 -4.39941,1.6162 -5.8789,3.36913 -0.44922,-2.42676 -2.38281,-3.36913 -4.04297,-3.36913 -2.06543,0 -2.91504,1.75292 -3.32031,2.56347 -0.81054,1.52344 -1.3916,4.21875 -1.3916,4.35059 0,0.44921 0.44922,0.44921 0.53711,0.44921 0.44922,0 0.49316,-0.044 0.7666,-1.03515 0.76172,-3.1836 1.66016,-5.3418 3.27637,-5.3418 0.76172,0 1.3916,0.36133 1.3916,2.07031 0,1.03028 -0.13672,1.52344 -0.3125,2.28515 z m 0,0"
         id="path51" />
    </g>
    <g
       id="g3592"
       transform="translate(-130.24528,-64.816903)">
      <path
         inkscape:connector-curvature="0"
         style="fill:#000000;fill-opacity:1;fill-rule:nonzero;stroke:none"
         d="m 524.3562,772.25794 5.07324,0 c -1.47949,6.64551 -1.88476,8.57422 -1.88476,11.58203 0,0.67383 0,1.88965 0.35645,3.41309 0.44921,1.97754 0.94726,2.24609 1.61621,2.24609 0.89844,0 1.84081,-0.81054 1.84081,-1.70898 0,-0.26856 0,-0.35645 -0.26855,-0.98633 -1.30371,-3.23242 -1.30371,-6.14747 -1.30371,-7.40723 0,-2.37792 0.31739,-4.80469 0.81055,-7.13867 l 5.11719,0 c 0.58105,0 2.20215,0 2.20215,-1.52344 0,-1.0791 -0.94728,-1.0791 -1.79688,-1.0791 l -15.03906,0 c -0.99121,0 -2.69531,0 -4.66798,2.10937 -1.57226,1.74805 -2.73925,3.81348 -2.73925,4.03809 0,0.044 0,0.44923 0.5371,0.44923 0.36134,0 0.44923,-0.18067 0.71778,-0.53712 2.20215,-3.45703 4.80469,-3.45703 5.70313,-3.45703 l 2.55859,0 c -1.43554,5.42968 -3.85742,10.86426 -5.74707,14.95117 -0.35645,0.66895 -0.35645,0.76173 -0.35645,1.07423 0,0.85448 0.71777,1.21093 1.30371,1.21093 1.34278,0 1.7041,-1.25488 2.24122,-2.91503 0.62988,-2.06544 0.62988,-2.15333 1.21093,-4.39943 l 2.51465,-9.92187"
         id="path53" />
      <path
         inkscape:connector-curvature="0"
         style="fill:#000000;fill-opacity:1;fill-rule:nonzero;stroke:none"
         d="m 354.85425,816.05677 c 0.36133,-0.80566 0.36133,-1.88477 0.36133,-2.47071 l 0,-22.67089 c 0,-0.58106 0,-1.66016 -0.35645,-2.46582 l 5.11719,0 c -0.58594,0.71777 -0.58594,1.61621 -0.58594,2.29004 l 0,22.84667 c 0,0.44923 0,1.66505 0.36133,2.47071 l -4.89258,0 m 6.10352,-25.18555 c 0,-0.89843 0,-2.42187 2.69043,-2.42187 3.23242,0 4.7168,1.21094 4.7168,6.82129 0,6.4209 -2.38282,6.95801 -5.16114,6.95801 l -2.24609,0 z m 7.40723,10.9082 c 1.43555,-1.88476 1.57226,-4.71191 1.57226,-6.50878 0,-2.37793 -0.22461,-4.75587 -1.3916,-6.41602 2.4707,0.58105 5.97168,1.92872 5.97168,6.45997 0,3.14452 -2.02148,5.43456 -6.15234,6.46483 z m -7.40723,2.02149 c 0.18066,0 1.12304,0 1.21094,0.044 l 1.52344,0 c 9.11621,0 12.39257,-4.2627 12.39257,-8.53027 0,-6.37208 -5.74707,-8.4375 -11.53809,-8.4375 l -13.10546,0 c -0.81055,0 -1.52832,0 -1.52832,0.80566 0,0.7666 0.85448,0.7666 1.21093,0.7666 2.33887,0 2.51953,0.35645 2.51953,2.55859 l 0,22.49023 c 0,2.20215 -0.18066,2.5586 -2.4707,2.5586 -0.44921,0 -1.25976,0 -1.25976,0.76172 0,0.81055 0.71777,0.81055 1.52832,0.81055 l 12.03125,0 c 0.80566,0 1.47949,0 1.47949,-0.81055 0,-0.76172 -0.76173,-0.76172 -1.25489,-0.76172 -2.55859,0 -2.73925,-0.36133 -2.73925,-2.5586 z m 0,0"
         id="path55" />
      <path
         inkscape:connector-curvature="0"
         style="fill:#000000;fill-opacity:1;fill-rule:nonzero;stroke:none"
         d="m 387.07105,779.2013 c 0,-0.84473 -0.0635,-0.8789 -0.94239,-0.8789 -2.00195,1.97754 -4.85351,2.00684 -6.13769,2.00684 l 0,1.12792 c 0.75196,0 2.81738,0 4.54102,-0.87402 l 0,15.97656 c 0,1.03516 0,1.44042 -3.12989,1.44042 l -1.19141,0 0,1.12794 c 0.56153,-0.0293 4.41406,-0.12695 5.57617,-0.12695 0.97169,0 4.917,0.0976 5.60548,0.12695 l 0,-1.12794 -1.18653,0 c -3.13476,0 -3.13476,-0.41015 -3.13476,-1.44042 l 0,-17.3584"
         id="path57" />
      <path
         inkscape:connector-curvature="0"
         style="fill:none;stroke:#211e1e;stroke-width:1.875;stroke-linecap:butt;stroke-linejoin:miter;stroke-miterlimit:10;stroke-opacity:1"
         d="m 613.62866,799.12806 -194.88281,0"
         id="path59" />
      <path
         inkscape:connector-curvature="0"
         style="fill:#211e1e;fill-opacity:1;fill-rule:nonzero;stroke:none"
         d="m 422.69605,793.92299 -2.21192,5.20507 2.21192,5.20996 -12.34375,-5.20996 z m 0,0"
         id="path61" />
      <path
         inkscape:connector-curvature="0"
         style="fill:#000000;fill-opacity:1;fill-rule:nonzero;stroke:none"
         d="m 633.60425,816.05677 c 0.36133,-0.81055 0.36133,-1.88477 0.36133,-2.47071 l 0,-22.67089 c 0,-0.58106 0,-1.66016 -0.35645,-2.46582 l 5.11718,0 c -0.58593,0.71289 -0.58593,1.61132 -0.58593,2.28515 l 0,22.85156 c 0,0.44923 0,1.66016 0.36133,2.47071 l -4.89258,0 m 6.10352,-25.18555 c 0,-0.89843 0,-2.42187 2.69043,-2.42187 3.23242,0 4.7168,1.21094 4.7168,6.82129 0,6.4209 -2.38282,6.95801 -5.16114,6.95801 l -2.24609,0 z m 7.40723,10.9082 c 1.43555,-1.88476 1.57226,-4.71191 1.57226,-6.50878 0,-2.37793 -0.22461,-4.76074 -1.3916,-6.41602 2.4707,0.58105 5.97167,1.92872 5.97167,6.45997 0,3.14452 -2.02147,5.43456 -6.15233,6.46483 z m -7.40723,2.02149 c 0.18066,0 1.12304,0 1.21094,0.044 l 1.52344,0 c 9.11621,0 12.39257,-4.2627 12.39257,-8.53027 0,-6.37208 -5.74707,-8.4375 -11.53809,-8.4375 l -13.10546,0 c -0.81055,0 -1.52832,0 -1.52832,0.80566 0,0.7666 0.85448,0.7666 1.21093,0.7666 2.33887,0 2.51953,0.35645 2.51953,2.55859 l 0,22.49023 c 0,2.19727 -0.18066,2.5586 -2.4707,2.5586 -0.44921,0 -1.25976,0 -1.25976,0.76172 0,0.80566 0.71777,0.80566 1.52832,0.80566 l 12.03125,0 c 0.80566,0 1.47949,0 1.47949,-0.80566 0,-0.76172 -0.76173,-0.76172 -1.25489,-0.76172 -2.55859,0 -2.73925,-0.36133 -2.73925,-2.5586 z m 0,0"
         id="path63" />
      <path
         inkscape:connector-curvature="0"
         style="fill:#000000;fill-opacity:1;fill-rule:nonzero;stroke:none"
         d="m 671.14819,793.42494 -1.06445,0 c -0.0976,0.68847 -0.41015,2.53906 -0.81542,2.85156 -0.25392,0.19042 -2.66602,0.19042 -3.10059,0.19042 l -5.7666,0 c 3.29101,-2.91503 4.38476,-3.79393 6.26465,-5.26367 2.31933,-1.85058 4.48241,-3.79394 4.48241,-6.76758 0,-3.79393 -3.32519,-6.11327 -7.33398,-6.11327 -3.88183,0 -6.51367,2.72949 -6.51367,5.61035 0,1.59667 1.34765,1.75781 1.66015,1.75781 0.75196,0 1.66016,-0.53711 1.66016,-1.66504 0,-0.56152 -0.21972,-1.66016 -1.85059,-1.66016 0.97168,-2.22656 3.10059,-2.91504 4.5752,-2.91504 3.12988,0 4.76074,2.44629 4.76074,4.98535 0,2.72462 -1.94336,4.8877 -2.94433,6.01563 l -7.54883,7.45117 c -0.3125,0.28809 -0.3125,0.34668 -0.3125,1.22559 l 12.90527,0 0.94238,-5.70312"
         id="path65" />
    </g>
    <path
       id="path5"
       d="m 595.27089,399.69162 c 0.79763,76.21164 -94.19016,138.99628 -212.1622,140.23099 -117.97207,1.2347 -214.25798,-59.54807 -215.05561,-135.75971 -0.79764,-76.21165 94.19501,-138.99634 212.16708,-140.23104 117.97205,-1.2347 214.2531,59.54811 215.05073,135.75976 z m 0,0"
       style="fill:none;stroke:#211e1e;stroke-width:2.5;stroke-linecap:butt;stroke-linejoin:miter;stroke-miterlimit:10;stroke-opacity:1"
       inkscape:connector-curvature="0" />
    <path
       id="path7"
       d="m 374.40578,28.300375 c 2.01063,-3.48502 -3.39812,-6.616794 -5.41363,-3.123312 -2.00819,3.480793 3.40056,6.612567 5.41363,3.123312"
       style="fill:#211e1e;fill-opacity:1;fill-rule:nonzero;stroke:none"
       inkscape:connector-curvature="0" />
    <path
       id="path9"
       d="m 23.033232,637.33412 c 2.010632,-3.48503 -3.398121,-6.6168 -5.413633,-3.12332 -2.008191,3.4808 3.400561,6.61257 5.413633,3.12332"
       style="fill:#211e1e;fill-opacity:1;fill-rule:nonzero;stroke:none"
       inkscape:connector-curvature="0" />
    <path
       id="path11"
       d="M 81.230991,530.20661 381.0689,10.497819"
       style="fill:none;stroke:#211e1e;stroke-width:1.25;stroke-linecap:round;stroke-linejoin:round;stroke-miterlimit:10;stroke-opacity:1"
       inkscape:connector-curvature="0" />
    <path
       id="path13"
       d="m 671.84809,513.78279 -18.74773,0.007 -187.50263,0.057 -93.74708,0.0309 -187.50264,0.057 -93.747084,0.0309 -18.75196,0.005"
       style="fill:none;stroke:#211e1e;stroke-width:1.25;stroke-linecap:round;stroke-linejoin:round;stroke-miterlimit:10;stroke-opacity:1"
       inkscape:connector-curvature="0" />
    <path
       id="path15"
       d="m 362.31694,10.502536 9.38203,16.236183 46.89741,81.173581 93.80328,162.35203 46.89742,81.17358 93.80328,162.35204 9.37779,16.23374"
       style="fill:none;stroke:#211e1e;stroke-width:1.25;stroke-linecap:round;stroke-linejoin:round;stroke-miterlimit:10;stroke-opacity:1"
       inkscape:connector-curvature="0" />
    <path
       id="path17"
       d="M 1.574456,635.77718 742.20055,635.54682"
       style="fill:none;stroke:#211e1e;stroke-width:2.5;stroke-linecap:round;stroke-linejoin:round;stroke-miterlimit:10;stroke-opacity:1"
       inkscape:connector-curvature="0" />
    <path
       id="path19"
       d="m 670.09946,543.21467 1.87555,3.24675"
       style="fill:none;stroke:#211e1e;stroke-width:1.25;stroke-linecap:butt;stroke-linejoin:miter;stroke-miterlimit:10;stroke-opacity:1"
       inkscape:connector-curvature="0" />
    <path
       id="path21"
       d="m 675.45496,552.47714 33.02463,57.16597"
       style="fill:none;stroke:#211e1e;stroke-width:1.25;stroke-linecap:butt;stroke-linejoin:miter;stroke-miterlimit:10;stroke-dasharray:6.95, 6.95;stroke-opacity:1"
       inkscape:connector-curvature="0" />
    <path
       id="path23"
       d="m 710.2229,612.65008 1.87556,3.24675"
       style="fill:none;stroke:#211e1e;stroke-width:1.25;stroke-linecap:butt;stroke-linejoin:miter;stroke-miterlimit:10;stroke-opacity:1"
       inkscape:connector-curvature="0" />
    <path
       id="path25"
       d="m 706.33149,615.17404 4.99364,-0.61404 3.02245,-4.01744 1.47971,11.81799 z m 0,0"
       style="fill:#211e1e;fill-opacity:1;fill-rule:nonzero;stroke:none"
       inkscape:connector-curvature="0" />
    <path
       id="path27"
       d="m 73.635002,543.37273 -1.873992,3.24819"
       style="fill:none;stroke:#211e1e;stroke-width:1.25;stroke-linecap:butt;stroke-linejoin:miter;stroke-miterlimit:10;stroke-opacity:1"
       inkscape:connector-curvature="0" />
    <path
       id="path29"
       d="M 68.298527,552.62244 35.393952,609.65591"
       style="fill:none;stroke:#211e1e;stroke-width:1.25;stroke-linecap:butt;stroke-linejoin:miter;stroke-miterlimit:10;stroke-dasharray:6.93125, 6.93125;stroke-opacity:1"
       inkscape:connector-curvature="0" />
    <path
       id="path31"
       d="m 33.661492,612.65878 -1.873987,3.24818"
       style="fill:none;stroke:#211e1e;stroke-width:1.25;stroke-linecap:butt;stroke-linejoin:miter;stroke-miterlimit:10;stroke-opacity:1"
       inkscape:connector-curvature="0" />
    <path
       id="path33"
       d="m 29.532452,610.55282 3.026121,4.01765 4.992821,0.60875 -9.492342,7.19027 z m 0,0"
       style="fill:#211e1e;fill-opacity:1;fill-rule:nonzero;stroke:none"
       inkscape:connector-curvature="0" />
    <path
       id="path35"
       d="m 726.15542,637.1132 c 2.01063,-3.48503 -3.39813,-6.6168 -5.41364,-3.12332 -2.00819,3.4808 3.40056,6.61257 5.41364,3.12332"
       style="fill:#211e1e;fill-opacity:1;fill-rule:nonzero;stroke:none"
       inkscape:connector-curvature="0" />
    <path
       id="path37"
       d="m 537.75582,637.17129 c 2.01063,-3.48503 -3.40056,-6.61257 -5.41363,-3.12331 -2.0082,3.4808 3.40056,6.61256 5.41363,3.12331"
       style="fill:#211e1e;fill-opacity:1;fill-rule:nonzero;stroke:none"
       inkscape:connector-curvature="0" />
    <path
       id="path67"
       d="m 510.27417,543.2639 19.30132,71.94377"
       style="fill:none;stroke:#211e1e;stroke-width:1.25;stroke-linecap:butt;stroke-linejoin:miter;stroke-miterlimit:10;stroke-dasharray:7.5, 7.5;stroke-opacity:1"
       inkscape:connector-curvature="0" />
    <path
       id="path69"
       d="m 524.19795,613.0184 4.97852,0.70197 3.95861,-3.09965 -1.62535,11.79666 z m 0,0"
       style="fill:#211e1e;fill-opacity:1;fill-rule:nonzero;stroke:none"
       inkscape:connector-curvature="0" />
    <path
       id="path71"
       d="M 371.69897,26.738719 506.73491,530.07165"
       style="fill:none;stroke:#211e1e;stroke-width:1.25;stroke-linecap:round;stroke-linejoin:miter;stroke-miterlimit:10;stroke-opacity:1"
       inkscape:connector-curvature="0" />
  </g>
</svg>
