<?xml version="1.0" encoding="UTF-8" standalone="no"?>
<!-- Created with Inkscape (http://www.inkscape.org/) -->

<svg
   xmlns:dc="http://purl.org/dc/elements/1.1/"
   xmlns:cc="http://creativecommons.org/ns#"
   xmlns:rdf="http://www.w3.org/1999/02/22-rdf-syntax-ns#"
   xmlns:svg="http://www.w3.org/2000/svg"
   xmlns="http://www.w3.org/2000/svg"
   xmlns:sodipodi="http://sodipodi.sourceforge.net/DTD/sodipodi-0.dtd"
   xmlns:inkscape="http://www.inkscape.org/namespaces/inkscape"
   width="210mm"
   height="297mm"
   viewBox="0 0 744.09448819 1052.3622047"
   id="svg3357"
   version="1.1"
   inkscape:version="0.91 r13725"
   sodipodi:docname="Circle Tangents.svg">
  <defs
     id="defs3359" />
  <sodipodi:namedview
     id="base"
     pagecolor="#ffffff"
     bordercolor="#666666"
     borderopacity="1.0"
     inkscape:pageopacity="0.0"
     inkscape:pageshadow="2"
     inkscape:zoom="0.35"
     inkscape:cx="375"
     inkscape:cy="520"
     inkscape:document-units="px"
     inkscape:current-layer="layer1"
     showgrid="false"
     inkscape:window-width="1839"
     inkscape:window-height="1056"
     inkscape:window-x="81"
     inkscape:window-y="24"
     inkscape:window-maximized="1" />
  <metadata
     id="metadata3362">
    <rdf:RDF>
      <cc:Work
         rdf:about="">
        <dc:format>image/svg+xml</dc:format>
        <dc:type
           rdf:resource="http://purl.org/dc/dcmitype/StillImage" />
        <dc:title></dc:title>
      </cc:Work>
    </rdf:RDF>
  </metadata>
  <g
     inkscape:label="Layer 1"
     inkscape:groupmode="layer"
     id="layer1">
    <g
       transform="matrix(1.25,0,0,1.2499999,86.013446,63.176253)"
       id="surface549">
      <path
         inkscape:connector-curvature="0"
         style="fill:none;stroke:#211e1e;stroke-width:1;stroke-linecap:round;stroke-linejoin:round;stroke-miterlimit:10;stroke-opacity:1"
         d="m 8.4375e-4,-0.00139375 c 0,-55.22656225 -44.77343775,-99.99999625 -99.99999975,-99.99999625 -55.230464,0 -100.000004,44.773434 -100.000004,99.99999625 0,55.23046875 44.76954,99.99999975 100.000004,99.99999975 55.226562,0 99.99999975,-44.769531 99.99999975,-99.99999975 z m 0,0"
         transform="matrix(1,0,0,-1,322.089,118.6197)"
         id="path5" />
      <path
         inkscape:connector-curvature="0"
         style="fill:none;stroke:#211e1e;stroke-width:1;stroke-linecap:round;stroke-linejoin:round;stroke-miterlimit:10;stroke-opacity:1"
         d="m 8.4375e-4,-0.00139375 399.99999625,0"
         transform="matrix(1,0,0,-1,22.089,18.6197)"
         id="path7" />
      <path
         inkscape:connector-curvature="0"
         style="fill:none;stroke:#211e1e;stroke-width:1;stroke-linecap:round;stroke-linejoin:round;stroke-miterlimit:10;stroke-opacity:1"
         d="m 8.4375e-4,-0.00139375 -400.00000375,0"
         transform="matrix(1,0,0,-1,422.089,118.6197)"
         id="path9" />
      <path
         inkscape:connector-curvature="0"
         style="fill:#211e1e;fill-opacity:1;fill-rule:nonzero;stroke:none"
         d="m 224.08984,118.62109 c 0,0.55079 -0.44922,1 -1,1 -0.55468,0 -1,-0.44921 -1,-1 0,-0.55468 0.44532,-1 1,-1 0.55078,0 1,0.44532 1,1"
         id="path11" />
      <path
         inkscape:connector-curvature="0"
         style="fill:none;stroke:#211e1e;stroke-width:1;stroke-linecap:round;stroke-linejoin:round;stroke-miterlimit:10;stroke-opacity:1"
         d="m 8.4375e-4,-0.00139375 c 0,-0.55078125 -0.44921875,-1.00000025 -0.99999975,-1.00000025 -0.554688,0 -1,0.449219 -1,1.00000025 0,0.55468775 0.445312,0.99999975 1,0.99999975 0.550781,0 0.99999975,-0.445312 0.99999975,-0.99999975 z m 0,0"
         transform="matrix(1,0,0,-1,224.089,118.6197)"
         id="path13" />
      <path
         inkscape:connector-curvature="0"
         style="fill:#000000;fill-opacity:1;fill-rule:nonzero;stroke:none"
         d="m 446.73047,109.64844 c 0,-0.0664 -0.043,-0.21485 -0.23828,-0.21485 -0.0625,0 -0.0859,0.0234 -0.32032,0.25782 l -1.51171,1.66015 c -0.19141,-0.30078 -1.1836,-1.91797 -3.57422,-1.91797 -4.80469,0 -9.65625,4.76172 -9.65625,9.76172 0,3.55469 2.54297,5.90625 5.83984,5.90625 1.875,0 3.51563,-0.86328 4.65625,-1.85547 2.00391,-1.76562 2.37109,-3.72656 2.37109,-3.79296 0,-0.21485 -0.21875,-0.21485 -0.25781,-0.21485 -0.13281,0 -0.23828,0.043 -0.28125,0.21485 -0.19531,0.625 -0.6914,2.15625 -2.17578,3.40625 -1.48828,1.20703 -2.84766,1.57421 -3.96484,1.57421 -1.94141,0 -4.22657,-1.12109 -4.22657,-4.48437 0,-1.22656 0.45313,-4.71875 2.60938,-7.23828 1.3125,-1.53125 3.33984,-2.60938 5.25781,-2.60938 2.19922,0 3.46875,1.66016 3.46875,4.16016 0,0.86328 -0.0664,0.88281 -0.0664,1.09766 0,0.21484 0.23828,0.21484 0.32421,0.21484 0.28125,0 0.28125,-0.043 0.39063,-0.42969 l 1.35547,-5.49609"
         id="path15" />
      <path
         inkscape:connector-curvature="0"
         style="fill:#000000;fill-opacity:1;fill-rule:nonzero;stroke:none"
         d="m 450.8125,118.24219 c 0,-0.40625 -0.0312,-0.42188 -0.45313,-0.42188 -0.96093,0.94922 -2.32812,0.96094 -2.94531,0.96094 l 0,0.54297 c 0.35938,0 1.35156,0 2.17969,-0.42188 l 0,7.67188 c 0,0.49609 0,0.69141 -1.50391,0.69141 l -0.57031,0 0,0.53906 c 0.26953,-0.0156 2.11719,-0.0586 2.67578,-0.0586 0.46485,0 2.35938,0.043 2.69141,0.0586 l 0,-0.53906 -0.57031,0 c -1.50391,0 -1.50391,-0.19922 -1.50391,-0.69141 l 0,-8.33203"
         id="path17" />
      <path
         inkscape:connector-curvature="0"
         style="fill:#000000;fill-opacity:1;fill-rule:nonzero;stroke:none"
         d="m 446.73047,10.648438 c 0,-0.06641 -0.043,-0.214844 -0.23828,-0.214844 -0.0625,0 -0.0859,0.02344 -0.32032,0.257812 l -1.51171,1.660156 c -0.19141,-0.300781 -1.1836,-1.917968 -3.57422,-1.917968 -4.80469,0 -9.65625,4.761718 -9.65625,9.761718 0,3.554688 2.54297,5.90625 5.83984,5.90625 1.875,0 3.51563,-0.863281 4.65625,-1.855468 2.00391,-1.765625 2.37109,-3.726563 2.37109,-3.792969 0,-0.214844 -0.21875,-0.214844 -0.25781,-0.214844 -0.13281,0 -0.23828,0.04297 -0.28125,0.214844 -0.19531,0.625 -0.6914,2.15625 -2.17578,3.40625 -1.48828,1.207031 -2.84766,1.574219 -3.96484,1.574219 -1.94141,0 -4.22657,-1.121094 -4.22657,-4.484375 0,-1.226563 0.45313,-4.71875 2.60938,-7.238281 1.3125,-1.53125 3.33984,-2.609376 5.25781,-2.609376 2.19922,0 3.46875,1.660157 3.46875,4.160157 0,0.863281 -0.0664,0.882812 -0.0664,1.097656 0,0.214844 0.23828,0.214844 0.32421,0.214844 0.28125,0 0.28125,-0.04297 0.39063,-0.429688 l 1.35547,-5.496093"
         id="path19" />
      <path
         inkscape:connector-curvature="0"
         style="fill:#000000;fill-opacity:1;fill-rule:nonzero;stroke:none"
         d="m 453.36719,26.128906 -0.51172,0 c -0.043,0.328125 -0.19531,1.21875 -0.39063,1.367188 -0.12109,0.08984 -1.27734,0.08984 -1.48828,0.08984 l -2.76562,0 c 1.57812,-1.394532 2.10547,-1.816407 3.00781,-2.523438 1.11328,-0.890625 2.14844,-1.820312 2.14844,-3.25 0,-1.820312 -1.59375,-2.933594 -3.51953,-2.933594 -1.86329,0 -3.125,1.308594 -3.125,2.691406 0,0.769532 0.64453,0.84375 0.79687,0.84375 0.35938,0 0.79688,-0.253906 0.79688,-0.796874 0,-0.269532 -0.10547,-0.796876 -0.89063,-0.796876 0.46875,-1.070312 1.48828,-1.398437 2.19531,-1.398437 1.50391,0 2.28907,1.171875 2.28907,2.390625 0,1.308594 -0.9336,2.347656 -1.41407,2.886719 l -3.625,3.578125 c -0.14843,0.136718 -0.14843,0.167968 -0.14843,0.589844 l 6.19531,0 0.44922,-2.738282"
         id="path21" />
      <path
         inkscape:connector-curvature="0"
         style="fill:#000000;fill-opacity:1;fill-rule:nonzero;stroke:none"
         d="m 321.39844,171.25391 5.79687,11.63671 -11.61328,0 5.81641,-11.63671 m 1.25,-1.76563 c -0.14844,-0.28125 -0.19141,-0.38672 -0.5586,-0.38672 -0.36718,0 -0.41015,0.10547 -0.5625,0.38672 l -7.28125,14.60938 c -0.10937,0.1914 -0.10937,0.23437 -0.10937,0.25781 0,0.17187 0.1289,0.17187 0.47656,0.17187 l 14.95313,0 c 0.34375,0 0.47265,0 0.47265,-0.17187 0,-0.0234 0,-0.0664 -0.10547,-0.25781 z m 0,0"
         id="path23" />
    </g>
  </g>
</svg>
