<?xml version="1.0" encoding="UTF-8" standalone="no"?>
<!-- Created with Inkscape (http://www.inkscape.org/) -->

<svg
   xmlns:dc="http://purl.org/dc/elements/1.1/"
   xmlns:cc="http://creativecommons.org/ns#"
   xmlns:rdf="http://www.w3.org/1999/02/22-rdf-syntax-ns#"
   xmlns:svg="http://www.w3.org/2000/svg"
   xmlns="http://www.w3.org/2000/svg"
   xmlns:sodipodi="http://sodipodi.sourceforge.net/DTD/sodipodi-0.dtd"
   xmlns:inkscape="http://www.inkscape.org/namespaces/inkscape"
   width="210mm"
   height="297mm"
   viewBox="0 0 744.09448819 1052.3622047"
   id="svg3454"
   version="1.1"
   inkscape:version="0.91 r13725"
   sodipodi:docname="curve and dual.svg">
  <defs
     id="defs3456" />
  <sodipodi:namedview
     id="base"
     pagecolor="#ffffff"
     bordercolor="#666666"
     borderopacity="1.0"
     inkscape:pageopacity="0.0"
     inkscape:pageshadow="2"
     inkscape:zoom="5.2500919"
     inkscape:cx="346.21466"
     inkscape:cy="914.81267"
     inkscape:document-units="px"
     inkscape:current-layer="layer1"
     showgrid="false"
     inkscape:window-width="1839"
     inkscape:window-height="1056"
     inkscape:window-x="81"
     inkscape:window-y="24"
     inkscape:window-maximized="1"
     inkscape:snap-center="true" />
  <metadata
     id="metadata3459">
    <rdf:RDF>
      <cc:Work
         rdf:about="">
        <dc:format>image/svg+xml</dc:format>
        <dc:type
           rdf:resource="http://purl.org/dc/dcmitype/StillImage" />
        <dc:title></dc:title>
      </cc:Work>
    </rdf:RDF>
  </metadata>
  <g
     inkscape:label="Layer 1"
     inkscape:groupmode="layer"
     id="layer1">
    <path
       id="path5"
       d="m 240.09987,190.151 c -0.5664,-21.95313 18.52539,-44.58496 47.08496,-53.6377 20.56641,-6.51367 41.17188,-4.44336 55.64453,4.04785"
       style="fill:none;stroke:#211e1e;stroke-width:0.75;stroke-linecap:round;stroke-linejoin:round;stroke-miterlimit:10;stroke-opacity:1"
       inkscape:connector-curvature="0" />
    <path
       id="path7"
       d="M 235.67604,183.78381 277.78542,118.7301"
       style="fill:none;stroke:#211e1e;stroke-width:0.625;stroke-linecap:round;stroke-linejoin:round;stroke-miterlimit:10;stroke-opacity:1"
       inkscape:connector-curvature="0" />
    <path
       id="path9"
       d="m 340.37331,131.25939 -95.61523,4.09668"
       style="fill:none;stroke:#211e1e;stroke-width:0.625;stroke-linecap:round;stroke-linejoin:round;stroke-miterlimit:10;stroke-opacity:1"
       inkscape:connector-curvature="0" />
    <path
       id="path11"
       d="m 268.34206,134.41369 c 0,0.34668 -0.27832,0.625 -0.625,0.625 -0.34179,0 -0.625,-0.27832 -0.625,-0.625 0,-0.34179 0.28321,-0.625 0.625,-0.625 0.34668,0 0.625,0.28321 0.625,0.625"
       style="fill:#211e1e;fill-opacity:1;fill-rule:nonzero;stroke:none"
       inkscape:connector-curvature="0" />
    <path
       id="path13"
       d="m 268.34206,134.41369 c 0,0.34668 -0.27832,0.625 -0.625,0.625 -0.34179,0 -0.625,-0.27832 -0.625,-0.625 0,-0.34179 0.28321,-0.625 0.625,-0.625 0.34668,0 0.625,0.28321 0.625,0.625 z m 0,0"
       style="fill:none;stroke:#211e1e;stroke-width:0.375;stroke-linecap:round;stroke-linejoin:round;stroke-miterlimit:10;stroke-opacity:1"
       inkscape:connector-curvature="0" />
    <path
       id="path15"
       d="m 309.04519,132.68029 c 0,0.3418 -0.2832,0.625 -0.625,0.625 -0.34668,0 -0.625,-0.2832 -0.625,-0.625 0,-0.34668 0.27832,-0.625 0.625,-0.625 0.3418,0 0.625,0.27832 0.625,0.625"
       style="fill:#211e1e;fill-opacity:1;fill-rule:nonzero;stroke:none"
       inkscape:connector-curvature="0" />
    <path
       id="path17"
       d="m 309.04518,132.68029 c 0,0.3418 -0.2832,0.625 -0.625,0.625 -0.34668,0 -0.625,-0.2832 -0.625,-0.625 0,-0.34668 0.27832,-0.625 0.625,-0.625 0.3418,0 0.625,0.27832 0.625,0.625 z m 0,0"
       style="fill:none;stroke:#211e1e;stroke-width:0.375;stroke-linecap:round;stroke-linejoin:round;stroke-miterlimit:10;stroke-opacity:1"
       inkscape:connector-curvature="0" />
    <path
       id="path19"
       d="m 248.87429,164.4674 c 0,0.34668 -0.2832,0.625 -0.625,0.625 -0.34668,0 -0.625,-0.27832 -0.625,-0.625 0,-0.34179 0.27832,-0.625 0.625,-0.625 0.3418,0 0.625,0.28321 0.625,0.625"
       style="fill:#211e1e;fill-opacity:1;fill-rule:nonzero;stroke:none"
       inkscape:connector-curvature="0" />
    <path
       id="path21"
       d="m 248.87429,164.4674 c 0,0.34668 -0.2832,0.625 -0.625,0.625 -0.34668,0 -0.625,-0.27832 -0.625,-0.625 0,-0.34179 0.27832,-0.625 0.625,-0.625 0.3418,0 0.625,0.28321 0.625,0.625 z m 0,0"
       style="fill:none;stroke:#211e1e;stroke-width:0.375;stroke-linecap:round;stroke-linejoin:round;stroke-miterlimit:10;stroke-opacity:1"
       inkscape:connector-curvature="0" />
    <path
       id="path23"
       d="m 388.71804,127.62658 c 3.59375,1.35254 6.66992,3.85254 9.20898,6.73828 3.56934,4.05762 6.36719,8.72559 9.92676,12.8125 8.27637,9.50684 17.99805,16.89941 29.54101,21.97266 1.08887,0.47851 2.1875,0.93261 3.2959,1.3623 1.72364,0.67871 3.47656,1.29395 5.24414,1.85547 5.50293,1.74316 11.19141,2.92969 16.93848,3.48145 6.05469,0.58105 12.23633,0.75683 18.14941,-0.81055 6.96778,-1.8457 14.30664,-2.92969 21.52344,-2.5293"
       style="fill:none;stroke:#211e1e;stroke-width:0.75;stroke-linecap:round;stroke-linejoin:round;stroke-miterlimit:10;stroke-opacity:1"
       inkscape:connector-curvature="0" />
    <path
       id="path27"
       d="M 487.20436,182.27502 407.05788,157.99768"
       style="fill:none;stroke:#211e1e;stroke-width:0.625;stroke-linecap:round;stroke-linejoin:round;stroke-miterlimit:10;stroke-opacity:1"
       inkscape:connector-curvature="0" />
    <path
       id="path29"
       d="m 467.79518,176.20569 c 0,-0.34669 -0.2832,-0.625 -0.625,-0.625 -0.34667,0 -0.625,0.27831 -0.625,0.625 0,0.34179 0.27833,0.625 0.625,0.625 0.3418,0 0.625,-0.28321 0.625,-0.625"
       style="fill:#211e1e;fill-opacity:1;fill-rule:nonzero;stroke:none"
       inkscape:connector-curvature="0" />
    <path
       id="path31"
       d="m 467.79518,176.20568 c 0,-0.34668 -0.2832,-0.625 -0.625,-0.625 -0.34668,0 -0.625,0.27832 -0.625,0.625 0,0.3418 0.27832,0.625 0.625,0.625 0.3418,0 0.625,-0.2832 0.625,-0.625 z m 0,0"
       style="fill:none;stroke:#211e1e;stroke-width:0.375;stroke-linecap:round;stroke-linejoin:round;stroke-miterlimit:10;stroke-opacity:1"
       inkscape:connector-curvature="0" />
    <path
       id="path33"
       d="m 428.42018,164.20861 c 0,-0.34668 -0.27831,-0.625 -0.625,-0.625 -0.34178,0 -0.625,0.27832 -0.625,0.625 0,0.3418 0.28322,0.625 0.625,0.625 0.34669,0 0.625,-0.2832 0.625,-0.625"
       style="fill:#211e1e;fill-opacity:1;fill-rule:nonzero;stroke:none"
       inkscape:connector-curvature="0" />
    <path
       id="path35"
       d="m 428.42019,164.20861 c 0,-0.34668 -0.27832,-0.625 -0.625,-0.625 -0.3418,0 -0.625,0.27832 -0.625,0.625 0,0.3418 0.2832,0.625 0.625,0.625 0.34668,0 0.625,-0.2832 0.625,-0.625 z m 0,0"
       style="fill:none;stroke:#211e1e;stroke-width:0.375;stroke-linecap:round;stroke-linejoin:round;stroke-miterlimit:10;stroke-opacity:1"
       inkscape:connector-curvature="0" />
    <path
       id="path37"
       d="m 278.77663,115.42443 c 0.01,-0.0732 0.29786,-1.56738 0.6836,-2.35351 0.18066,-0.36621 0.32226,-0.63477 0.53711,-0.63477 0.22949,0 0.22949,0.24415 0.22949,0.35157 0,1.12304 -1.12793,2.2998 -1.4502,2.63671 m -0.95703,0.94239 c -0.0146,0.0244 -0.0342,0.0439 -0.0342,0.0684 0,0.0342 0.0391,0.0879 0.0781,0.0879 0.0342,0 0.0537,-0.0195 0.24414,-0.20996 0.0537,-0.0439 0.18555,-0.1709 0.24414,-0.22461 0.0635,0.52734 0.26368,1.03027 0.75196,1.03027 0.26855,0 0.50781,-0.15625 0.64453,-0.25879 0.0977,-0.0684 0.41504,-0.32715 0.41504,-0.39551 0,-0.0195 -0.0244,-0.083 -0.083,-0.083 -0.0195,0 -0.0293,0.01 -0.0879,0.0635 -0.42969,0.41992 -0.67871,0.52246 -0.87402,0.52246 -0.30274,0 -0.41016,-0.35156 -0.41016,-0.87402 0,-0.0391 0.0147,-0.35156 0.0342,-0.38574 0.01,-0.0195 0.01,-0.0342 0.14649,-0.16602 0.54687,-0.54687 1.50391,-1.68457 1.50391,-2.72949 0,-0.1123 0,-0.52246 -0.4004,-0.52246 -0.55664,0 -1.05468,1.1084 -1.12304,1.26465 -0.32227,0.73242 -0.53223,1.52343 -0.53223,2.32422 z m 0,0"
       style="fill:#211e1e;fill-opacity:1;fill-rule:nonzero;stroke:none"
       inkscape:connector-curvature="0" />
    <path
       id="path39"
       d="m 238.60574,134.04748 c 0.0146,-0.0732 0.30273,-1.56738 0.68847,-2.35351 0.18067,-0.36622 0.32227,-0.63477 0.53711,-0.63477 0.22949,0 0.22949,0.24414 0.22949,0.35156 0,1.12305 -1.12793,2.29981 -1.45507,2.63672 m -0.95215,0.94238 c -0.0147,0.0195 -0.0342,0.0439 -0.0342,0.0684 0,0.0342 0.0391,0.0879 0.0781,0.0879 0.0342,0 0.0537,-0.0195 0.24414,-0.20996 0.0537,-0.0439 0.18555,-0.1709 0.24414,-0.22461 0.0635,0.52735 0.25879,1.02539 0.75196,1.02539 0.26855,0 0.50293,-0.15136 0.64453,-0.2539 0.0976,-0.0684 0.41504,-0.33203 0.41504,-0.39551 0,-0.0244 -0.0195,-0.083 -0.083,-0.083 -0.0195,0 -0.0293,0.005 -0.0879,0.0586 -0.42969,0.4248 -0.67871,0.52734 -0.87402,0.52734 -0.30274,0 -0.41016,-0.35156 -0.41016,-0.87402 0,-0.0391 0.01,-0.35157 0.0342,-0.38575 0.01,-0.0195 0.01,-0.0342 0.14648,-0.16601 0.54688,-0.54688 1.49903,-1.68457 1.49903,-2.72949 0,-0.1123 0,-0.52247 -0.39551,-0.52247 -0.55664,0 -1.05469,1.1084 -1.12305,1.26465 -0.32226,0.73243 -0.53222,1.52344 -0.53222,2.32422 z m 0,0"
       style="fill:#211e1e;fill-opacity:1;fill-rule:nonzero;stroke:none"
       inkscape:connector-curvature="0" />
    <path
       id="path41"
       d="m 241.9114,133.68127 c 0,-0.12695 -0.01,-0.13184 -0.1416,-0.13184 -0.29785,0.29786 -0.72754,0.30274 -0.91797,0.30274 l 0,0.1709 c 0.1123,0 0.41992,0 0.67871,-0.13672 l 0,2.39746 c 0,0.15625 0,0.21973 -0.46875,0.21973 l -0.18066,0 0,0.16601 c 0.0879,-0.005 0.66406,-0.0195 0.83984,-0.0195 0.1416,0 0.7373,0.0146 0.83984,0.0195 l 0,-0.16601 -0.18066,0 c -0.46875,0 -0.46875,-0.0635 -0.46875,-0.21973 l 0,-2.60254"
       style="fill:#211e1e;fill-opacity:1;fill-rule:nonzero;stroke:none"
       inkscape:connector-curvature="0" />
    <path
       id="path43"
       d="m 252.48757,164.92639 c 0.0488,-0.18555 0.22949,-0.3711 0.35156,-0.47364 0.23438,-0.20507 0.42969,-0.2539 0.542,-0.2539 0.27343,0 0.43457,0.23437 0.43457,0.63476 0,0.39551 -0.22461,1.167 -0.34668,1.42579 -0.22461,0.46875 -0.55176,0.69335 -0.80078,0.69335 -0.44434,0 -0.53223,-0.56152 -0.53223,-0.60058 0,-0.0146 0,-0.0293 0.0244,-0.10743 l 0.32715,-1.31835 m -1.18652,2.91992 c -0.0537,0.22949 -0.0635,0.27832 -0.36133,0.27832 -0.083,0 -0.15625,0 -0.15625,0.12695 0,0.0537 0.0342,0.083 0.0879,0.083 0.18066,0 0.37597,-0.0244 0.5664,-0.0244 0.21973,0 0.44922,0.0244 0.66895,0.0244 0.0293,0 0.11719,0 0.11719,-0.13672 0,-0.0732 -0.0635,-0.0732 -0.16114,-0.0732 -0.33691,0 -0.33691,-0.0488 -0.33691,-0.10743 0,-0.083 0.2832,-1.18164 0.33203,-1.34765 0.0879,0.19531 0.27344,0.42968 0.62012,0.42968 0.78125,0 1.62109,-0.98144 1.62109,-1.97265 0,-0.63477 -0.38086,-1.0791 -0.89355,-1.0791 -0.33692,0 -0.66407,0.24414 -0.88379,0.50781 -0.0684,-0.36621 -0.35645,-0.50781 -0.60547,-0.50781 -0.3125,0 -0.43945,0.26367 -0.49805,0.38574 -0.12207,0.22949 -0.20996,0.63476 -0.20996,0.65429 0,0.0684 0.0684,0.0684 0.083,0.0684 0.0635,0 0.0732,-0.01 0.1123,-0.15625 0.11719,-0.47852 0.24903,-0.80078 0.49317,-0.80078 0.1123,0 0.20996,0.0537 0.20996,0.30761 0,0.15625 -0.0244,0.2295 -0.0488,0.3418 z m 0,0"
       style="fill:#211e1e;fill-opacity:1;fill-rule:nonzero;stroke:none"
       inkscape:connector-curvature="0" />
    <path
       id="path45"
       d="m 307.83913,125.70764 c 0.0488,-0.18067 0.2295,-0.37109 0.35157,-0.46875 0.23437,-0.20996 0.42968,-0.25879 0.54687,-0.25879 0.26856,0 0.42969,0.23926 0.42969,0.63476 0,0.39551 -0.22461,1.17188 -0.3418,1.43067 -0.22949,0.46875 -0.55176,0.68847 -0.80566,0.68847 -0.43945,0 -0.52735,-0.55664 -0.52735,-0.5957 0,-0.0147 0,-0.0293 0.0195,-0.10742 l 0.32714,-1.32324 m -1.18164,2.9248 c -0.0537,0.22949 -0.0684,0.27344 -0.36621,0.27344 -0.083,0 -0.15625,0 -0.15625,0.13184 0,0.0537 0.0342,0.0781 0.0879,0.0781 0.18067,0 0.37598,-0.0195 0.56641,-0.0195 0.22461,0 0.44922,0.0195 0.66894,0.0195 0.0293,0 0.12208,0 0.12208,-0.13184 0,-0.0781 -0.0684,-0.0781 -0.16602,-0.0781 -0.33691,0 -0.33691,-0.0439 -0.33691,-0.10743 0,-0.0781 0.2832,-1.17675 0.33203,-1.34765 0.0879,0.19531 0.27832,0.43457 0.62012,0.43457 0.78125,0 1.62109,-0.98633 1.62109,-1.97266 0,-0.63476 -0.38086,-1.0791 -0.89355,-1.0791 -0.33692,0 -0.65918,0.24414 -0.88379,0.50293 -0.0684,-0.36133 -0.35645,-0.50293 -0.60547,-0.50293 -0.30762,0 -0.43946,0.26367 -0.49805,0.38574 -0.12208,0.2295 -0.20996,0.62989 -0.20996,0.64942 0,0.0684 0.0684,0.0684 0.083,0.0684 0.0635,0 0.0732,-0.005 0.1123,-0.15625 0.11719,-0.47363 0.24903,-0.80078 0.49317,-0.80078 0.1123,0 0.20996,0.0537 0.20996,0.3125 0,0.15625 -0.0244,0.22949 -0.0488,0.3418 l -0.75684,2.99804 z m 0,0"
       style="fill:#211e1e;fill-opacity:1;fill-rule:nonzero;stroke:none"
       inkscape:connector-curvature="0" />
    <path
       id="path47"
       d="m 311.30105,125.83459 c 0,-0.12695 -0.01,-0.13184 -0.1416,-0.13184 -0.29785,0.29786 -0.72754,0.29786 -0.91797,0.29786 l 0,0.17089 c 0.1123,0 0.41992,0 0.67871,-0.13183 l 0,2.39746 c 0,0.15625 0,0.21484 -0.46875,0.21484 l -0.18066,0 0,0.1709 c 0.0879,-0.005 0.66406,-0.0195 0.83984,-0.0195 0.1416,0 0.7373,0.0147 0.83984,0.0195 l 0,-0.1709 -0.18066,0 c -0.46875,0 -0.46875,-0.0586 -0.46875,-0.21484 l 0,-2.60254"
       style="fill:#211e1e;fill-opacity:1;fill-rule:nonzero;stroke:none"
       inkscape:connector-curvature="0" />
    <path
       id="path49"
       d="m 265.22683,129.87756 c -0.40039,0 -0.42969,-0.51758 -0.42969,-0.63477 0,-0.32226 0.19531,-1.05468 0.30762,-1.33789 0.20996,-0.49804 0.56152,-0.78125 0.83496,-0.78125 0.43945,0 0.53711,0.54688 0.53711,0.59082 0,0.044 -0.37598,1.51856 -0.39551,1.54297 -0.0977,0.19043 -0.47363,0.62012 -0.85449,0.62012 m 1.86523,-2.82715 c 0,-0.0293 -0.0195,-0.0684 -0.0635,-0.0684 -0.0781,0 -0.34668,0.26855 -0.45898,0.46387 -0.14649,-0.36133 -0.41016,-0.46875 -0.62989,-0.46875 -0.79101,0 -1.62109,0.99609 -1.62109,1.96777 0,0.66406 0.40039,1.0791 0.88867,1.0791 0.29297,0 0.55176,-0.16113 0.7959,-0.40527 -0.0586,0.23926 -0.2832,1.14746 -0.30274,1.20605 -0.0537,0.19043 -0.10742,0.21973 -0.48339,0.22461 -0.0879,0 -0.15625,0 -0.15625,0.13184 0,0.01 0,0.0781 0.0879,0.0781 0.21485,0 0.44922,-0.0244 0.67383,-0.0244 0.2295,0 0.46875,0.0244 0.69336,0.0244 0.0342,0 0.12208,0 0.12208,-0.13672 0,-0.0732 -0.0684,-0.0732 -0.17578,-0.0732 -0.32715,0 -0.32715,-0.0488 -0.32715,-0.10743 0,-0.0488 0.0147,-0.0879 0.0293,-0.15137 z m 0,0"
       style="fill:#211e1e;fill-opacity:1;fill-rule:nonzero;stroke:none"
       inkscape:connector-curvature="0" />
    <path
       id="path51"
       d="m 349.27956,140.16565 c 0,-0.0195 -0.0147,-0.0635 -0.0732,-0.0635 -0.0195,0 -0.0293,0.005 -0.10254,0.0781 l -0.46875,0.51757 c -0.0635,-0.0928 -0.37109,-0.5957 -1.11816,-0.5957 -1.50391,0 -3.01758,1.48438 -3.01758,3.04688 0,1.11328 0.79101,1.8457 1.82129,1.8457 0.58593,0 1.09863,-0.26856 1.45507,-0.57617 0.62989,-0.55176 0.74219,-1.167 0.74219,-1.18653 0,-0.0684 -0.0684,-0.0684 -0.0781,-0.0684 -0.0439,0 -0.0781,0.0146 -0.0879,0.0684 -0.0635,0.19532 -0.21973,0.67383 -0.68359,1.06446 -0.46387,0.37597 -0.88867,0.49316 -1.24024,0.49316 -0.60547,0 -1.31836,-0.35156 -1.31836,-1.40137 0,-0.38574 0.14161,-1.47461 0.81543,-2.26562 0.41016,-0.47852 1.04493,-0.81055 1.64551,-0.81055 0.68359,0 1.08399,0.51758 1.08399,1.29883 0,0.26855 -0.0195,0.27344 -0.0195,0.3418 0,0.0684 0.0732,0.0684 0.0977,0.0684 0.0879,0 0.0879,-0.0146 0.12208,-0.13672 l 0.4248,-1.71875"
       style="fill:#211e1e;fill-opacity:1;fill-rule:nonzero;stroke:none"
       inkscape:connector-curvature="0" />
    <path
       id="path53"
       d="m 429.4114,159.43322 c 0.0146,-0.0732 0.30273,-1.56738 0.68847,-2.35839 0.18066,-0.36133 0.32228,-0.62989 0.53711,-0.62989 0.22949,0 0.22949,0.23926 0.22949,0.34668 0,1.12793 -1.13281,2.30469 -1.45507,2.6416 m -0.95703,0.94239 c -0.01,0.0195 -0.0341,0.0391 -0.0341,0.0684 0,0.0342 0.044,0.0879 0.083,0.0879 0.0341,0 0.0538,-0.0195 0.24413,-0.20996 0.0537,-0.0488 0.18555,-0.17579 0.23927,-0.2295 0.0684,0.53223 0.26367,1.03028 0.75683,1.03028 0.26855,0 0.50293,-0.15625 0.64453,-0.25391 0.0927,-0.0684 0.41016,-0.33203 0.41016,-0.40039 0,-0.0195 -0.0195,-0.0781 -0.0781,-0.0781 -0.0195,0 -0.0292,0.005 -0.0879,0.0586 -0.42969,0.42481 -0.6787,0.52735 -0.87401,0.52735 -0.30763,0 -0.41505,-0.35157 -0.41505,-0.87891 0,-0.0391 0.0146,-0.34668 0.0341,-0.38086 0.0146,-0.0195 0.0146,-0.0342 0.15137,-0.1709 0.542,-0.54199 1.49902,-1.67968 1.49902,-2.72461 0,-0.11718 0,-0.52734 -0.39551,-0.52734 -0.56151,0 -1.05956,1.11328 -1.12793,1.26465 -0.32226,0.7373 -0.52733,1.52344 -0.52733,2.32422 z m 0,0"
       style="fill:#211e1e;fill-opacity:1;fill-rule:nonzero;stroke:none"
       inkscape:connector-curvature="0" />
    <path
       id="path55"
       d="m 432.65847,157.09924 c 0.38574,-0.1709 0.56153,-0.23926 0.67871,-0.29297 0.0879,-0.0391 0.13184,-0.0586 0.13184,-0.14648 0,-0.0781 -0.0635,-0.15137 -0.14648,-0.15137 -0.0341,0 -0.044,0 -0.0976,0.0439 l -0.63965,0.42969 0.0684,-0.69825 c 0.01,-0.083 0,-0.20019 -0.1416,-0.20019 -0.0537,0 -0.1416,0.0342 -0.1416,0.1416 0,0.0391 0.0195,0.18066 0.0244,0.22949 0.005,0.0781 0.039,0.41504 0.0489,0.52735 l -0.63476,-0.42969 c -0.044,-0.0293 -0.0635,-0.0439 -0.1025,-0.0439 -0.083,0 -0.14649,0.0732 -0.14649,0.15137 0,0.0928 0.0586,0.11718 0.0976,0.13671 l 0.71289,0.29786 c -0.38574,0.16601 -0.56153,0.23437 -0.67872,0.28808 -0.0879,0.0391 -0.13183,0.0586 -0.13183,0.14649 0,0.083 0.0635,0.15136 0.14648,0.15136 0.0341,0 0.039,0 0.0976,-0.044 l 0.63965,-0.4248 -0.0733,0.75683 c 0,0.10254 0.0879,0.13672 0.1416,0.13672 0.0586,0 0.14649,-0.0342 0.14649,-0.13672 0,-0.0439 -0.0195,-0.18554 -0.0244,-0.23437 -0.005,-0.0781 -0.039,-0.41504 -0.0489,-0.52246 l 0.56152,0.37598 c 0.12213,0.0928 0.13184,0.0928 0.17579,0.0928 0.083,0 0.14649,-0.0684 0.14649,-0.15137 0,-0.0928 -0.0586,-0.11718 -0.0976,-0.13672 l -0.71295,-0.29296"
       style="fill:#211e1e;fill-opacity:1;fill-rule:nonzero;stroke:none"
       inkscape:connector-curvature="0" />
    <path
       id="path57"
       d="m 465.63698,170.17053 c 0.0146,-0.0732 0.30274,-1.56738 0.6836,-2.35352 0.18554,-0.36621 0.32714,-0.63476 0.54199,-0.63476 0.22461,0 0.22461,0.24414 0.22461,0.35156 0,1.12305 -1.12793,2.2998 -1.4502,2.63672 m -0.95702,0.94238 c -0.0146,0.0195 -0.0341,0.0439 -0.0341,0.0684 0,0.0342 0.039,0.0879 0.083,0.0879 0.0292,0 0.0537,-0.0195 0.23925,-0.20996 0.0538,-0.0439 0.19044,-0.1709 0.24415,-0.22949 0.0635,0.53223 0.26367,1.03027 0.75195,1.03027 0.26855,0 0.50782,-0.15137 0.64942,-0.2539 0.0927,-0.0684 0.41016,-0.33204 0.41016,-0.39551 0,-0.0244 -0.0195,-0.083 -0.083,-0.083 -0.0195,0 -0.0244,0.005 -0.0879,0.0586 -0.42969,0.42481 -0.67872,0.52735 -0.87403,0.52735 -0.30274,0 -0.41016,-0.35157 -0.41016,-0.87403 0,-0.0391 0.0146,-0.35156 0.0341,-0.38574 0.0146,-0.0195 0.0146,-0.0342 0.14648,-0.16601 0.54687,-0.54688 1.50391,-1.68458 1.50391,-2.7295 0,-0.1123 0,-0.52246 -0.40039,-0.52246 -0.55665,0 -1.05469,1.1084 -1.12305,1.26465 -0.32226,0.73242 -0.53222,1.52344 -0.53222,2.32422 z m 0,0"
       style="fill:#211e1e;fill-opacity:1;fill-rule:nonzero;stroke:none"
       inkscape:connector-curvature="0" />
    <path
       id="path59"
       d="m 468.88406,167.83654 c 0.38574,-0.17089 0.55664,-0.23437 0.67382,-0.29296 0.0927,-0.0342 0.13184,-0.0537 0.13184,-0.14649 0,-0.0781 -0.0586,-0.14648 -0.14649,-0.14648 -0.0292,0 -0.039,0 -0.0976,0.0391 l -0.63965,0.42969 0.0732,-0.69825 c 0.01,-0.083 0,-0.20019 -0.1416,-0.20019 -0.0586,0 -0.14649,0.0391 -0.14649,0.1416 0,0.0439 0.0195,0.18066 0.0244,0.22949 0.01,0.0781 0.039,0.41992 0.0489,0.52735 l -0.63477,-0.42969 c -0.044,-0.0293 -0.0586,-0.0391 -0.1025,-0.0391 -0.083,0 -0.1416,0.0684 -0.1416,0.14648 0,0.0977 0.0537,0.11719 0.0976,0.13672 l 0.708,0.29785 c -0.38574,0.1709 -0.56152,0.23438 -0.67871,0.29297 -0.0879,0.0342 -0.12695,0.0537 -0.12695,0.14648 0,0.0781 0.0586,0.14649 0.1416,0.14649 0.0341,0 0.044,0 0.1025,-0.0391 l 0.63477,-0.42969 -0.0733,0.75683 c 0,0.10254 0.0879,0.14161 0.14649,0.14161 0.0537,0 0.14649,-0.0391 0.14649,-0.14161 0,-0.0439 -0.0195,-0.18554 -0.0244,-0.22949 -0.01,-0.0781 -0.044,-0.41992 -0.0538,-0.52734 l 0.5664,0.37598 c 0.12213,0.0928 0.13184,0.0928 0.1709,0.0928 0.0879,0 0.14649,-0.0684 0.14649,-0.14648 0,-0.0977 -0.0538,-0.12208 -0.0976,-0.13672 l -0.708,-0.29785"
       style="fill:#211e1e;fill-opacity:1;fill-rule:nonzero;stroke:none"
       inkscape:connector-curvature="0" />
    <path
       id="path61"
       d="m 468.93777,170.4635 c 0,-0.13184 -0.01,-0.13184 -0.14161,-0.13184 -0.29785,0.29297 -0.72754,0.29785 -0.91796,0.29785 l 0,0.1709 c 0.11225,0 0.4248,0 0.67871,-0.13183 l 0,2.39746 c 0,0.15625 0,0.21484 -0.46875,0.21484 l -0.17579,0 0,0.1709 c 0.083,-0.005 0.65919,-0.0195 0.83496,-0.0195 0.14649,0 0.73732,0.0146 0.83985,0.0195 l 0,-0.1709 -0.17578,0 c -0.47363,0 -0.47363,-0.0586 -0.47363,-0.21484 l 0,-2.60254"
       style="fill:#211e1e;fill-opacity:1;fill-rule:nonzero;stroke:none"
       inkscape:connector-curvature="0" />
    <path
       id="path63"
       d="m 489.55788,184.02795 c -0.40038,0 -0.42968,-0.51758 -0.42968,-0.63476 0,-0.32227 0.19531,-1.05469 0.3125,-1.3379 0.20507,-0.49804 0.55664,-0.78125 0.83496,-0.78125 0.43456,0 0.53222,0.542 0.53222,0.59082 0,0.0391 -0.37109,1.51368 -0.39062,1.54297 -0.1025,0.18555 -0.47851,0.62012 -0.85938,0.62012 m 1.86524,-2.83203 c 0,-0.0244 -0.0195,-0.0635 -0.0635,-0.0635 -0.0781,0 -0.34669,0.26856 -0.45899,0.46387 -0.14648,-0.36621 -0.41016,-0.47363 -0.625,-0.47363 -0.7959,0 -1.62597,0.99609 -1.62597,1.97266 0,0.65918 0.40039,1.0791 0.88866,1.0791 0.29298,0 0.55176,-0.16114 0.7959,-0.40528 -0.0586,0.23926 -0.2832,1.14746 -0.30272,1.20606 -0.0537,0.19043 -0.10738,0.21484 -0.4834,0.22461 -0.0879,0 -0.15625,0 -0.15625,0.13183 0,0.01 0,0.0732 0.0879,0.0732 0.21484,0 0.44922,-0.0195 0.67383,-0.0195 0.2295,0 0.47363,0.0195 0.69336,0.0195 0.0341,0 0.12213,0 0.12213,-0.13183 0,-0.0732 -0.0684,-0.0732 -0.17579,-0.0732 -0.32227,0 -0.32227,-0.0488 -0.32227,-0.10743 0,-0.0488 0.01,-0.0879 0.0244,-0.15136 z m 0,0"
       style="fill:#211e1e;fill-opacity:1;fill-rule:nonzero;stroke:none"
       inkscape:connector-curvature="0" />
    <path
       id="path65"
       d="m 493.12234,180.15588 c 0.38574,-0.1709 0.56152,-0.23438 0.67871,-0.29297 0.0879,-0.0342 0.13183,-0.0537 0.13183,-0.14648 0,-0.0781 -0.0586,-0.14649 -0.14648,-0.14649 -0.0341,0 -0.044,0 -0.0976,0.0391 l -0.63965,0.42969 0.0684,-0.69824 c 0.01,-0.083 0,-0.2002 -0.14162,-0.2002 -0.0538,0 -0.1416,0.0391 -0.1416,0.14161 0,0.0439 0.0195,0.18066 0.0244,0.22949 0.005,0.083 0.039,0.41992 0.0489,0.52734 l -0.63477,-0.42969 c -0.044,-0.0293 -0.0586,-0.0391 -0.1025,-0.0391 -0.083,0 -0.14648,0.0684 -0.14648,0.14649 0,0.0977 0.0586,0.11718 0.0976,0.13672 l 0.71289,0.29785 c -0.38574,0.1709 -0.56153,0.23437 -0.67872,0.29297 -0.0879,0.0391 -0.13182,0.0537 -0.13182,0.14648 0,0.0781 0.0635,0.14649 0.14647,0.14649 0.0341,0 0.044,0 0.0976,-0.0391 l 0.63965,-0.42968 -0.0733,0.75683 c 0,0.10254 0.0879,0.1416 0.1416,0.1416 0.0586,0 0.14649,-0.0391 0.14649,-0.1416 0,-0.044 -0.0146,-0.18066 -0.0195,-0.22949 -0.01,-0.0781 -0.044,-0.41992 -0.0537,-0.52734 l 0.5664,0.37597 c 0.12212,0.0928 0.12696,0.0928 0.1709,0.0928 0.0879,0 0.14648,-0.0684 0.14648,-0.14649 0,-0.0977 -0.0538,-0.12207 -0.0976,-0.13672 l -0.71289,-0.29785"
       style="fill:#211e1e;fill-opacity:1;fill-rule:nonzero;stroke:none"
       inkscape:connector-curvature="0" />
    <path
       id="path67"
       d="m 510.71511,170.52697 c 0,-0.0244 -0.0146,-0.0684 -0.0732,-0.0684 -0.0195,0 -0.0292,0.005 -0.1025,0.0781 l -0.47364,0.52246 c -0.0586,-0.0977 -0.36621,-0.60059 -1.11328,-0.60059 -1.50391,0 -3.01758,1.48926 -3.01758,3.05176 0,1.1084 0.79101,1.84082 1.82129,1.84082 0.58593,0 1.09863,-0.26855 1.45509,-0.57617 0.62987,-0.55176 0.74218,-1.16699 0.74218,-1.18653 0,-0.0684 -0.0684,-0.0684 -0.0781,-0.0684 -0.044,0 -0.0781,0.0147 -0.0879,0.0684 -0.0635,0.19532 -0.21972,0.67383 -0.68359,1.06446 -0.46387,0.37597 -0.88867,0.49316 -1.24023,0.49316 -0.60547,0 -1.31836,-0.35156 -1.31836,-1.40137 0,-0.38574 0.1416,-1.4746 0.81543,-2.26562 0.41015,-0.47363 1.04492,-0.81055 1.6455,-0.81055 0.6836,0 1.08399,0.51758 1.08399,1.29883 0,0.26856 -0.0244,0.27344 -0.0244,0.3418 0,0.0684 0.0781,0.0684 0.10251,0.0684 0.0879,0 0.0879,-0.0146 0.12212,-0.13672 l 0.4248,-1.71386"
       style="fill:#211e1e;fill-opacity:1;fill-rule:nonzero;stroke:none"
       inkscape:connector-curvature="0" />
    <path
       id="path69"
       d="m 512.39968,171.2594 c 0.38574,-0.1709 0.56153,-0.23438 0.67872,-0.29297 0.0879,-0.0342 0.13182,-0.0537 0.13182,-0.14649 0,-0.0781 -0.0635,-0.14648 -0.14647,-0.14648 -0.0341,0 -0.044,0 -0.0976,0.0391 l -0.63965,0.42969 0.0684,-0.69824 c 0.01,-0.083 0,-0.2002 -0.1416,-0.2002 -0.0538,0 -0.1416,0.0391 -0.1416,0.1416 0,0.0439 0.0195,0.18067 0.0244,0.22949 0.005,0.083 0.039,0.41993 0.0489,0.52735 l -0.63477,-0.42969 c -0.044,-0.0244 -0.0586,-0.0391 -0.1025,-0.0391 -0.083,0 -0.14648,0.0684 -0.14648,0.14648 0,0.0977 0.0586,0.12208 0.0976,0.13672 l 0.71289,0.29785 c -0.38575,0.1709 -0.56153,0.23438 -0.67871,0.29297 -0.0879,0.0391 -0.13184,0.0537 -0.13184,0.14649 0,0.0781 0.0635,0.14648 0.14649,0.14648 0.0341,0 0.044,0 0.0976,-0.0391 l 0.63965,-0.42969 -0.0733,0.75684 c 0,0.10253 0.0879,0.1416 0.1416,0.1416 0.0586,0 0.14649,-0.0391 0.14649,-0.1416 0,-0.0391 -0.0146,-0.18067 -0.0195,-0.2295 -0.01,-0.0781 -0.044,-0.41992 -0.0538,-0.52734 l 0.56152,0.37598 c 0.12695,0.0928 0.13184,0.0928 0.17579,0.0928 0.083,0 0.14648,-0.0684 0.14648,-0.14648 0,-0.0977 -0.0537,-0.11719 -0.0976,-0.13672 l -0.71289,-0.29785"
       style="fill:#211e1e;fill-opacity:1;fill-rule:nonzero;stroke:none"
       inkscape:connector-curvature="0" />
    <path
       style="fill:none;fill-rule:evenodd;stroke:#000000;stroke-width:0.70250189;stroke-linecap:butt;stroke-linejoin:miter;stroke-miterlimit:4;stroke-dasharray:0.70250186, 0.70250186;stroke-dashoffset:0;stroke-opacity:1"
       d="m 468.16859,188.03905 -80.7468,-47.66088"
       id="path3612"
       inkscape:connector-curvature="0" />
    <path
       id="path43-6"
       d="m 470.7952,187.6841 c 0.0488,-0.18555 0.22949,-0.3711 0.35156,-0.47364 0.23438,-0.20507 0.42969,-0.2539 0.542,-0.2539 0.27343,0 0.43457,0.23437 0.43457,0.63476 0,0.39551 -0.22461,1.167 -0.34668,1.42579 -0.22461,0.46875 -0.55176,0.69335 -0.80078,0.69335 -0.44434,0 -0.53223,-0.56152 -0.53223,-0.60058 0,-0.0146 0,-0.0293 0.0244,-0.10743 l 0.32715,-1.31835 m -1.18652,2.91992 c -0.0537,0.22949 -0.0635,0.27832 -0.36133,0.27832 -0.083,0 -0.15625,0 -0.15625,0.12695 0,0.0537 0.0342,0.083 0.0879,0.083 0.18066,0 0.37597,-0.0244 0.5664,-0.0244 0.21973,0 0.44922,0.0244 0.66895,0.0244 0.0293,0 0.11719,0 0.11719,-0.13672 0,-0.0732 -0.0635,-0.0732 -0.16114,-0.0732 -0.33691,0 -0.33691,-0.0488 -0.33691,-0.10743 0,-0.083 0.2832,-1.18164 0.33203,-1.34765 0.0879,0.19531 0.27344,0.42968 0.62012,0.42968 0.78125,0 1.62109,-0.98144 1.62109,-1.97265 0,-0.63477 -0.38086,-1.0791 -0.89355,-1.0791 -0.33692,0 -0.66407,0.24414 -0.88379,0.50781 -0.0684,-0.36621 -0.35645,-0.50781 -0.60547,-0.50781 -0.3125,0 -0.43945,0.26367 -0.49805,0.38574 -0.12207,0.22949 -0.20996,0.63476 -0.20996,0.65429 0,0.0684 0.0684,0.0684 0.083,0.0684 0.0635,0 0.0732,-0.01 0.1123,-0.15625 0.11719,-0.47852 0.24903,-0.80078 0.49317,-0.80078 0.1123,0 0.20996,0.0537 0.20996,0.30761 0,0.15625 -0.0244,0.2295 -0.0488,0.3418 z m 0,0"
       style="fill:#211e1e;fill-opacity:1;fill-rule:nonzero;stroke:none"
       inkscape:connector-curvature="0" />
    <path
       id="path69-7"
       d="m 474.61186,185.71316 c 0.38574,-0.1709 0.56153,-0.23438 0.67872,-0.29297 0.0879,-0.0342 0.13182,-0.0537 0.13182,-0.14649 0,-0.0781 -0.0635,-0.14648 -0.14647,-0.14648 -0.0341,0 -0.044,0 -0.0976,0.0391 l -0.63965,0.42969 0.0684,-0.69824 c 0.01,-0.083 0,-0.2002 -0.1416,-0.2002 -0.0538,0 -0.1416,0.0391 -0.1416,0.1416 0,0.0439 0.0195,0.18067 0.0244,0.22949 0.005,0.083 0.039,0.41993 0.0489,0.52735 l -0.63477,-0.42969 c -0.044,-0.0244 -0.0586,-0.0391 -0.1025,-0.0391 -0.083,0 -0.14648,0.0684 -0.14648,0.14648 0,0.0977 0.0586,0.12208 0.0976,0.13672 l 0.71289,0.29785 c -0.38575,0.1709 -0.56153,0.23438 -0.67871,0.29297 -0.0879,0.0391 -0.13184,0.0537 -0.13184,0.14649 0,0.0781 0.0635,0.14648 0.14649,0.14648 0.0341,0 0.044,0 0.0976,-0.0391 l 0.63965,-0.42969 -0.0733,0.75684 c 0,0.10253 0.0879,0.1416 0.1416,0.1416 0.0586,0 0.14649,-0.0391 0.14649,-0.1416 0,-0.0391 -0.0146,-0.18067 -0.0195,-0.2295 -0.01,-0.0781 -0.044,-0.41992 -0.0538,-0.52734 l 0.56152,0.37598 c 0.12695,0.0928 0.13184,0.0928 0.17579,0.0928 0.083,0 0.14648,-0.0684 0.14648,-0.14648 0,-0.0977 -0.0537,-0.11719 -0.0976,-0.13672 l -0.71289,-0.29785"
       style="fill:#211e1e;fill-opacity:1;fill-rule:nonzero;stroke:none"
       inkscape:connector-curvature="0" />
  </g>
</svg>
